<?xml version="1.0" encoding="utf-8"?>
<!-- Generator: Adobe Illustrator 18.1.1, SVG Export Plug-In . SVG Version: 6.00 Build 0)  -->
<!DOCTYPE svg PUBLIC "-//W3C//DTD SVG 1.1//EN" "http://www.w3.org/Graphics/SVG/1.1/DTD/svg11.dtd">
<svg version="1.1" id="Layer_1" xmlns="http://www.w3.org/2000/svg" xmlns:xlink="http://www.w3.org/1999/xlink" x="0px" y="0px"
	 width="55.3px" height="18px" viewBox="560 363.2 55.3 18" enable-background="new 560 363.2 55.3 18" xml:space="preserve">
<g>
	<path fill="#FFFFFF" d="M592,376.1c-1-3.3-1.8-5.7-2.3-7.2c-0.4-1.3-0.8-2.3-1.1-3l0,0c0,0,0,0,0,0c0,0,0,0,0,0c0,0,0,0,0-0.1l0,0
		c0,0,0,0,0-0.1c0,0,0,0,0-0.1c0-0.1,0-0.1-0.1-0.1c0,0,0,0,0,0c0-0.1-0.1-0.1-0.1-0.2c0,0,0,0,0,0c0,0,0-0.1-0.1-0.1c0,0,0,0,0-0.1
		c0,0,0-0.1-0.1-0.1c0,0,0,0,0,0c0,0-0.1-0.1-0.1-0.1c0,0,0,0,0,0c0,0-0.1-0.1-0.1-0.1c0,0,0,0,0,0c0,0-0.1-0.1-0.1-0.1c0,0,0,0,0,0
		c0,0-0.1-0.1-0.1-0.1c0,0,0,0,0,0c0,0-0.1-0.1-0.1-0.1c0,0,0,0,0,0c0,0-0.1-0.1-0.1-0.1c0,0,0,0,0,0c0,0-0.1-0.1-0.1-0.1
		c0,0,0,0-0.1,0c0,0-0.1-0.1-0.1-0.1c0,0,0,0,0,0c0,0-0.1-0.1-0.1-0.1c0,0,0,0,0,0c-0.1,0-0.1-0.1-0.2-0.1c0,0,0,0-0.1,0
		c0,0-0.1,0-0.1-0.1c0,0,0,0-0.1,0c0,0-0.1,0-0.1-0.1c0,0,0,0-0.1,0c-0.1,0-0.1,0-0.2-0.1c0,0,0,0,0,0c-0.1,0-0.1,0-0.2-0.1
		c0,0,0,0-0.1,0c0,0-0.1,0-0.1,0c0,0,0,0-0.1,0c0,0-0.1,0-0.1,0c0,0,0,0-0.1,0c-0.1,0-0.1,0-0.2,0c0,0,0,0,0,0c-0.1,0-0.1,0-0.2,0
		c0,0,0,0-0.1,0c0,0-0.1,0-0.1,0c0,0,0,0-0.1,0c0,0-0.1,0-0.1,0c0,0,0,0-0.1,0c-0.1,0-0.1,0-0.2,0c0,0-0.1,0-0.1,0
		c-1.9,0-3.6,1.1-4.2,2.6c0,0.1,0,0.1-0.1,0.2c-0.3,0.7-0.6,1.7-1,2.9c-0.8,2.3-1.5,4.7-2.4,7.2c-0.1,0.5-0.3,0.9-0.4,1.3l0,0
		l-8.6-3.3h2.5c1.5,0,2.7-0.6,3.6-1.7c0.8-1,1.2-2.3,1.2-3.7c0-1.5-0.4-2.7-1.2-3.7c-0.9-1.1-2.1-1.7-3.6-1.7H560v3.8h9.5
		c0.4,0,0.8,0.2,1.1,0.5c0.2,0.3,0.4,0.7,0.4,1.1c0,0.4-0.1,0.8-0.4,1.1c-0.2,0.3-0.6,0.5-1,0.5h-4.9c-1.6,0-2.8,0.5-3.6,1.5
		c-0.7,0.9-1.1,2-1.1,3.5v5.9h3.9v-4.5l11.3,4.5h4.3l3.4-10.3l1.2-3.5l0,0c0.1-0.2,0.2-0.3,0.3-0.3c0.2,0,0.3,0.1,0.3,0.3l1.2,3.5
		l3.5,10.3h4.2C593.2,379.7,592.6,378,592,376.1z M588.7,366c0,0,0,0.1,0,0.1C588.7,366.1,588.7,366,588.7,366z M588.7,366.2
		c0,0.1,0,0.1,0,0.2C588.8,366.3,588.7,366.2,588.7,366.2z M588.8,366.4c0,0.1,0,0.1,0,0.2C588.8,366.5,588.8,366.4,588.8,366.4z
		 M588.8,366.6c0,0,0,0.1,0,0.1C588.8,366.7,588.8,366.6,588.8,366.6z M588.8,366.8c0,0,0,0.1,0,0.1
		C588.8,366.9,588.8,366.8,588.8,366.8z M588.9,367c0,0.1,0,0.1,0,0.2C588.9,367.1,588.9,367,588.9,367z"/>
	<path fill="#FFFFFF" d="M598.3,377.2h11v4h-12c-1.1,0-2.1-0.5-2.8-1.4c-0.7-0.8-1-1.9-1-3.1c0-1.1,0.3-2,0.8-2.8
		c0.6-0.9,1.5-1.6,2.6-2l8.1-3.2c0,0,1-0.3,0.9-1c-0.1-0.5-0.6-0.5-0.6-0.5h-11.4v-4h12.4c1.3,0,2.3,0.4,3.1,1.3
		c0.7,0.8,1,1.7,1,2.9c0,1-0.3,2-0.9,2.9c-0.7,0.9-1.6,1.6-2.7,2l-8.7,3.5c-0.4,0.2-0.5,0.3-0.5,0.5
		C597.4,377.2,598.3,377.2,598.3,377.2z"/>
	<path fill="#FFFFFF" d="M615.3,381.2h-4v-17.9h4V381.2z"/>
</g>
</svg>
