<?xml version="1.0" encoding="utf-8"?>
<!-- Generator: Adobe Illustrator 18.1.1, SVG Export Plug-In . SVG Version: 6.00 Build 0)  -->
<!DOCTYPE svg PUBLIC "-//W3C//DTD SVG 1.1//EN" "http://www.w3.org/Graphics/SVG/1.1/DTD/svg11.dtd">
<svg version="1.1" id="Layer_1" xmlns="http://www.w3.org/2000/svg" xmlns:xlink="http://www.w3.org/1999/xlink" x="0px" y="0px"
	 width="25px" height="76.8px" viewBox="575.1 333.7 25 76.8" enable-background="new 575.1 333.7 25 76.8" xml:space="preserve">
<g>
	<path fill="#FFFFFF" d="M582.2,378.2c4.5-1.4,7.9-2.5,10-3.2c1.8-0.6,3.2-1.1,4.1-1.5l0,0c0,0,0,0,0,0c0,0,0,0-0.1,0
		c0,0,0.1,0,0.1,0l0,0c0,0,0.1,0,0.1,0c0,0,0,0,0.1,0c0.1,0,0.1-0.1,0.2-0.1c0,0,0,0,0,0c0.1,0,0.1-0.1,0.2-0.1c0,0,0,0,0.1,0
		c0.1,0,0.1-0.1,0.2-0.1c0,0,0,0,0.1,0c0,0,0.1-0.1,0.1-0.1c0,0,0,0,0.1,0c0.1,0,0.1-0.1,0.2-0.1c0,0,0,0,0,0
		c0.1-0.1,0.1-0.1,0.2-0.2c0,0,0,0,0.1,0c0,0,0.1-0.1,0.1-0.1c0,0,0,0,0.1-0.1c0,0,0.1-0.1,0.1-0.1c0,0,0,0,0.1-0.1
		c0.1-0.1,0.1-0.1,0.2-0.2c0,0,0,0,0,0c0.1-0.1,0.1-0.1,0.2-0.2c0,0,0,0,0-0.1c0,0,0.1-0.1,0.1-0.1c0,0,0,0,0.1-0.1
		c0,0,0.1-0.1,0.1-0.1c0,0,0,0,0-0.1c0-0.1,0.1-0.1,0.1-0.2c0,0,0,0,0,0c0-0.1,0.1-0.1,0.1-0.2c0,0,0,0,0-0.1c0-0.1,0.1-0.1,0.1-0.2
		c0,0,0-0.1,0-0.1c0-0.1,0.1-0.1,0.1-0.2c0,0,0-0.1,0-0.1c0-0.1,0.1-0.2,0.1-0.2c0,0,0,0,0,0c0-0.1,0.1-0.2,0.1-0.3c0,0,0-0.1,0-0.1
		c0-0.1,0-0.1,0.1-0.2c0,0,0-0.1,0-0.1c0-0.1,0-0.1,0-0.2c0,0,0-0.1,0-0.1c0-0.1,0-0.2,0.1-0.3c0,0,0,0,0,0c0-0.1,0-0.2,0-0.3
		c0,0,0-0.1,0-0.1c0-0.1,0-0.1,0-0.2c0,0,0-0.1,0-0.1c0-0.1,0-0.1,0-0.2c0,0,0-0.1,0-0.1c0-0.1,0-0.2,0-0.3c0,0,0-0.1,0-0.1
		c0-2.7-1.5-5-3.6-5.8c-0.1,0-0.2-0.1-0.3-0.1c-1-0.4-2.3-0.8-4-1.4c-3.1-1.1-6.5-2.1-10-3.3c-0.6-0.2-1.2-0.4-1.8-0.6l0,0l4.6-12
		v3.4c0,2.1,0.8,3.8,2.4,5c1.4,1.1,3.1,1.7,5.2,1.7c2,0,3.8-0.6,5.2-1.7c1.6-1.2,2.3-2.9,2.3-5v-14.2h-5.3V347
		c0,0.6-0.2,1.1-0.7,1.5c-0.4,0.3-0.9,0.5-1.6,0.5c-0.6,0-1.1-0.2-1.5-0.5c-0.4-0.3-0.6-0.8-0.6-1.4v-6.7c0-2.2-0.7-3.9-2.1-5
		c-1.2-1-2.8-1.5-4.8-1.5h-8.3v5.4h6.2l-6.2,15.7v6l14.3,4.7l4.9,1.6l0,0c0.3,0.1,0.4,0.2,0.4,0.5c0,0.2-0.2,0.4-0.4,0.5l-4.9,1.6
		l-14.3,4.8v5.9C577.1,379.9,579.5,379.1,582.2,378.2z M596.2,373.6c-0.1,0-0.1,0-0.2,0.1C596.1,373.6,596.1,373.6,596.2,373.6z
		 M595.9,373.7c-0.1,0-0.2,0-0.2,0.1C595.8,373.7,595.9,373.7,595.9,373.7z M595.7,373.7c-0.1,0-0.2,0-0.2,0
		C595.5,373.8,595.6,373.8,595.7,373.7z M595.4,373.8c-0.1,0-0.1,0-0.2,0C595.3,373.8,595.3,373.8,595.4,373.8z M595.1,373.8
		c-0.1,0-0.1,0-0.2,0C595,373.9,595.1,373.8,595.1,373.8z M594.9,373.9c-0.1,0-0.2,0-0.3,0C594.7,373.9,594.8,373.9,594.9,373.9z"/>
	<path fill="#FFFFFF" d="M580.7,387v15.3h-5.5v-16.7c0-1.6,0.6-2.9,1.9-3.9c1.2-0.9,2.6-1.4,4.3-1.4c1.5,0,2.8,0.4,3.9,1.1
		c1.3,0.8,2.2,2.1,2.7,3.6l4.5,11.2c0,0,0.5,1.4,1.4,1.2c0.7-0.1,0.7-0.8,0.7-0.8v-15.9h5.5V398c0,1.8-0.6,3.2-1.8,4.2
		c-1.1,1-2.4,1.4-4,1.4c-1.5,0-2.8-0.4-4-1.2c-1.3-0.9-2.2-2.2-2.8-3.7l-4.9-12.1c-0.2-0.5-0.4-0.7-0.7-0.7
		C580.7,385.7,580.7,387,580.7,387z"/>
	<path fill="#FFFFFF" d="M575.1,410.6v-5.5H600v5.5H575.1z"/>
</g>
</svg>
