<?xml version="1.0" encoding="utf-8"?>
<!-- Generator: Adobe Illustrator 18.1.1, SVG Export Plug-In . SVG Version: 6.00 Build 0)  -->
<!DOCTYPE svg PUBLIC "-//W3C//DTD SVG 1.1//EN" "http://www.w3.org/Graphics/SVG/1.1/DTD/svg11.dtd">
<svg version="1.1" id="Layer_1" xmlns="http://www.w3.org/2000/svg" xmlns:xlink="http://www.w3.org/1999/xlink" x="0px" y="0px"
	 width="512px" height="512px" viewBox="-41 164.9 512 512" enable-background="new -41 164.9 512 512" xml:space="preserve">
<path id="instagram-6-icon" fill="#FFFFFF" d="M373.5,389.2h-35.9c2.6,10.1,4.2,20.7,4.2,31.7c0,70-56.8,126.8-126.8,126.8
	S88.2,490.9,88.2,420.9c0-11,1.5-21.6,4.2-31.7H56.5v174.3c0,8.7,7.1,15.8,15.9,15.8h285.2c8.8,0,15.9-7.1,15.9-15.8L373.5,389.2
	L373.5,389.2z M373.5,278.3c0-8.8-7.1-15.8-15.9-15.8h-47.5c-8.8,0-15.8,7.1-15.8,15.8v47.5c0,8.7,7.1,15.8,15.8,15.8h47.5
	c8.8,0,15.9-7.1,15.9-15.8V278.3z M215,341.7c-43.8,0-79.2,35.5-79.2,79.2c0,43.8,35.5,79.2,79.2,79.2c43.8,0,79.2-35.5,79.2-79.2
	C294.2,377.1,258.8,341.7,215,341.7 M373.5,626.9H56.5C30.3,626.9,9,605.6,9,579.3V262.4c0-26.3,21.3-47.5,47.5-47.5h316.9
	c26.2,0,47.5,21.3,47.5,47.5v316.9C421,605.6,399.7,626.9,373.5,626.9"/>
</svg>
