<?xml version="1.0" encoding="utf-8"?>
<!-- Generator: Adobe Illustrator 23.0.2, SVG Export Plug-In . SVG Version: 6.00 Build 0)  -->
<svg version="1.1" id="Layer_1" xmlns="http://www.w3.org/2000/svg" xmlns:xlink="http://www.w3.org/1999/xlink" x="0px" y="0px"
	 viewBox="0 0 216.4 186.2" style="enable-background:new 0 0 216.4 186.2;" xml:space="preserve">
<style type="text/css">
	.st0{fill:#171717;}
	.st1{fill:#171717;stroke:#1C1CFF;stroke-linecap:round;stroke-linejoin:round;}
</style>
<title>Asset 1</title>
<g>
	<g id="Layer_3">
		<path class="st0" d="M171.7,17.1c-0.1-0.1-0.2-0.2-0.2-0.2s-0.1-0.3,0.1-0.4s-0.1-0.3-0.1-0.4c0,0,0-0.1,0-0.1c0-0.5,0-1,0-1.5
			s0-0.4-0.7-0.8c0.8,0,0.8,0,0.8-0.2c0-0.1,0-0.2,0-0.3c0-0.3-0.1-0.7-0.1-1c-0.1-0.3-0.1-0.3-0.7-0.6c0.1,0,0.2,0,0.2-0.1
			c0.6,0,0.7-0.1,0.6-0.3s-0.2-0.4-0.1-0.5s-0.1-0.1-0.5-0.2c-0.1,0-0.2,0-0.3-0.1c-0.3-0.1-0.1-0.3,0.2-0.3s0.5-0.1,0.5-0.2
			s0-0.2-0.4-0.3s-0.4-0.2-0.4-0.4s0-0.5,0.7-0.6c0.1,0,0-0.1-0.2-0.1h-0.4c0-0.1,0.1-0.2,0.1-0.4c0-0.4,0-0.9-0.1-1.3
			c0-0.4,0-0.8-0.1-1.2c-0.3-0.7-0.7-1.4-1.2-2c-0.1-0.1-0.1-0.1-0.2-0.2c-0.1-0.1-0.2-0.2-0.2-0.2c-0.1-0.3-0.7-0.6-1.1-0.9
			c-0.5-0.1-0.6-0.3-0.6-0.4c-0.1,0-0.1,0-0.2,0c-0.2,0-0.1,0.1-0.5,0.1c-0.1-0.1-0.1-0.2-0.2-0.2c-0.1-0.1-0.3-0.1-0.4-0.1
			c-0.4,0-0.6-0.1-0.6-0.2s-0.1-0.3-0.1-0.4c0-0.1,0-0.2-0.1-0.2c0,0-0.1,0-0.2,0c-0.1,0-0.1,0-0.2,0l-0.3,0.1
			c-0.4-0.2-0.1-0.4-0.4-0.7c-0.1,0.1-0.1,0.2-0.2,0.2c-0.7-0.6-2.6,0.4-2.6,0.4c0,0-0.1,0.1-0.1,0.1c-0.2,0.5-0.5,1.1-0.9,1.5
			c-0.1,0.2-0.3,0.3-0.3,0.5c-0.3,0.7-0.6,1.4-0.9,2.1s-0.4,1.6-0.7,2.4c-0.1,0.4-0.2,0.8-0.3,1.2s-0.1,1-0.2,1.5
			c-0.3,1.1-0.4,2.3-0.5,3.4c0,0.6,0,1.2-0.1,1.8c-0.1,0.8-0.1,1.6-0.2,2.4c-0.2,1.5-0.6,3-0.7,4.5c-0.1,0.7-0.2,1.4-0.4,2
			c0,0.1-0.2,0.3-0.3,0.4s0.1,0.3,0.1,0.5s-0.1,0.5-0.1,0.7c-0.1,0.5-0.1,1.1-0.2,1.6c-0.1,0.8-0.4,1.6-0.5,2.4c0,0.1,0,0.1,0,0.2
			s-0.4,0.2-0.4,0.4s0.2,0.3,0.2,0.4c-0.1,0.2-0.1,0.4-0.1,0.6c-0.1,0.7-0.1,1.4-0.2,2s-0.2,1.1-0.2,1.7s0,1.2,0,1.7s-0.1,1.3-0.1,2
			s-0.1,1.4-0.1,2.1c0,0,0,0.1,0,0.1c0,0.6,0.1,1.2,0,1.8c0,0.3-0.1,0.7-0.2,1c0,0-0.1,0.1,0,0.1c0.3,0.2,0.1,0.3,0.1,0.5
			c0,0.2,0,0.4,0,0.7c0.1,0.4,0,0.9-0.2,1.3c0,0.1-0.1,0.2,0,0.2l0.1,0.1l-0.6,3l0.6,0.1c-0.2,0-0.4,0.1-0.5,0.2
			c-0.2,0.1,0.4,0.1,0.4,0.2s0,0.1,0,0.1s-0.1,0.4-0.1,0.5c-0.1,0.7-0.1,1.5-0.2,2.2c0,0.2-0.1,0.5-0.1,0.7c0,0.7,0,1.4,0,2.2
			c0,0.1,0,0.2,0,0.4c0.1,0.7,0.1,1.3,0.2,2c0.1,0.6,0.1,1.2,0.2,1.8c0.2,1,0.4,1.9,0.6,2.9c0.1,0.5,0.4,0.9,0.7,1.3
			c0.3,0.3,0.6,0.5,1,0.5c0.7,0.2,1,0.4,0.6,0.6l0,0c0,0.1,0,0.1,0.2,0.2c0.2,0,0.3,0,0.5,0c0.2-0.1,0.4-0.1,0.6-0.2
			c0.8-0.4,1.5-0.8,2.2-1.2c1-0.5,1.9-1.1,2.7-1.8c0.8-0.6,1.4-1.4,1.8-2.3c0-0.1,0.1-0.2,0.1-0.2c0.1-0.3,0.3-0.7,0.4-1
			s0.2-0.7,0.3-1l0.3-0.9c0-0.1,0-0.1,0-0.2c0.3-0.2,0.2-0.4,0.2-0.6c0-0.2,0.1-0.5,0.1-0.7c0.1-0.4,0.2-0.8,0.3-1.2
			c0-0.2,0.1-0.3,0.2-0.4c0.1-0.1,0.1-0.2,0.1-0.4c0-0.2,0.1-0.3,0.2-0.4c0.1-0.1,0.1-0.1,0.1-0.2c0-0.1,0-0.3,0.1-0.4
			c0.1-0.6,0.2-1.1,0.4-1.7c0-0.1,0.1-0.2,0.2-0.4c0-0.5,0.1-1,0.2-1.5c0.1-0.4,0.2-0.9,0.2-1.4c0.1-0.4,0.1-0.9,0.1-1.3
			c0-0.1,0-0.2,0-0.4c0.1-0.6,0.2-1.3,0.2-1.9s0.1-1.5,0.2-2.2c0-0.3,0.1-0.6,0.1-0.9s0.1-0.8,0.1-1.1c0.1-0.2,0.1-0.4,0.2-0.7
			c0-0.5,0.1-1,0.1-1.5c0-0.6,0.1-1.2,0.2-1.7c0-0.1,0-0.1,0-0.2c0-0.2,0-0.3,0-0.5c0-0.3,0.1-0.5,0.2-0.8c0.1-0.4,0.1-0.8,0-1.2
			c0-0.1,0-0.1,0-0.2c0.4-0.6,0-1.3,0.3-1.9c0.1-0.3-0.1-0.7-0.1-1c0-0.1,0-0.2,0.1-0.3c0.3-0.3,0.2-0.6-0.2-1
			c0.4,0,0.5-0.1,0.4-0.3c-0.1-0.1-0.2-0.2-0.3-0.2c-0.1-0.1-0.2-0.1,0-0.2s0.3-0.2,0.2-0.3s-0.2-0.5-0.3-0.8s0-0.2,0.3-0.3
			s0.3-0.1,0.2-0.2c-0.7-0.4-0.1-0.7-0.3-1.1c0,0,0.1-0.1,0.2-0.1s0.2-0.1,0.1-0.1c-0.3-0.1-0.2-0.1,0.2-0.2s0.1-0.2,0-0.3
			s-0.2-0.1-0.1-0.1c0.3-0.1,0-0.2-0.1-0.3s-0.1-0.2,0.1-0.3s0.2-0.1,0.3-0.1s0-0.2-0.3-0.2c-0.1-0.1-0.2-0.3-0.1-0.4
			s0.4-0.1,0.5-0.2s-0.1-0.2-0.1-0.3s0,0,0.1-0.1c0.2-0.1,0.4-0.2,0.1-0.4s0.4-0.2,0.1-0.4l-0.2-0.1l0,0v0l0,0
			c0.1-0.1,0.1-0.2,0-0.3s-0.2-0.3,0.3-0.3c0.1,0,0.1,0,0.1-0.1c0-0.2,0.1-0.4,0.1-0.5s0-0.1,0-0.1c-0.4-0.1-0.3-0.3,0-0.4
			s0.1-0.1,0-0.2s-0.2-0.2,0-0.3s0.2-0.2,0-0.3c-0.1,0,0-0.1,0-0.1c0.6-0.1,0.4-0.2,0.2-0.4c-0.1,0-0.1-0.1,0-0.1
			c0.4-0.3,0.5-0.6,0.2-0.9c0,0-0.1-0.1,0-0.1C172,17.4,171.9,17.2,171.7,17.1z M154,48.8c0,0.1-0.1,0.2-0.3,0.2l0.4-1.8
			c0,0.3,0,0.6,0,0.9C154.1,48.4,154.1,48.6,154,48.8z M171.4,18.1L171.4,18.1L171.4,18.1z"/>
		<polygon class="st0" points="53.6,83.6 53.6,83.6 53.6,83.6 		"/>
		<path class="st0" d="M96.3,72c-0.1-0.1-0.3-0.2-0.4-0.2c-0.5,0-1,0.1-1.5,0.1c-0.4,0.1-0.8,0.2-1.2,0.3l-1.4,0.2l0.1-0.1
			c0.2-0.4,0.2-0.9,0-1.4c-0.1-0.1-0.3-0.2-0.4-0.2c-0.5,0-1,0.1-1.5,0.1c-0.4,0.1-0.8,0.2-1.2,0.3c-1.2,0.2-2.3,0.4-3.5,0.6
			c-0.2,0-0.4,0.1-0.7,0.1c-0.7,0.1-1.3,0.2-2,0.3l-3.1,0.6c-1,0.2-2.1,0.3-3.1,0.5s-1.8,0.5-2.8,0.7c-0.7,0.2-1.4,0.3-2.2,0.5
			c-0.4,0.1-0.7,0.1-1.1,0.2c-0.8,0.1-1.6,0.2-2.3,0.4c-1,0.2-2,0.6-2.9,0.9c-0.2,0.1-0.3,0.1-0.4,0.2c-1.3,0.8-2.6,1.5-4,2.1
			c-1.1,0.5-2.2,1-3.3,1.6l-3.7,1.8c-0.2,0.1-0.3,0.1-0.3,0.4c0,0.1-0.1,0.1-0.2,0.1s-0.3-0.2-0.3-0.1c-0.1,0.3-0.5,0.2-0.7,0.2
			c-0.6,0.3-1.2,0.6-1.8,0.8c-1.4,0.5-2.7,1.2-3.9,2.2c-0.1,0.1-0.2,0.1-0.3,0.2c-0.6,0.3-1.1,0.6-1.7,0.9c-1.1,0.8-2.4,1.2-3.5,2
			c-0.3,0.2-0.6,0.4-0.8,0.6c-0.3,0.4-0.8,0.7-1.3,0.8c-0.4,0.1-0.5,0.4-0.4,1.3c0.1,0.1,0.3,0.2,0.5,0.2c0.3,0,0.6,0,0.9,0
			c0.5-0.1,0.9-0.1,1.4-0.1c0.5,0.1,1,0.1,1.6,0.1c0,0.3,0,0.5,0,0.8c0.1,0.1,0.3,0.2,0.5,0.2c0.3,0,0.6,0,0.9,0
			c0.5-0.1,0.9-0.1,1.4-0.1c0.7,0.1,1.4,0.1,2.1,0.2c0.2,0,0.3,0.1,0.5,0c0.4-0.4,1.1,0.3,1.5-0.2c0,0,0.1,0,0.1,0.1
			c0.6,0.2,1.3,0.2,2,0c0.3-0.1,0.7-0.2,1-0.3s0.6-0.1,0.9-0.2c0.3-0.1,0.7-0.2,1-0.3c0.5-0.1,0.9-0.3,1.3-0.6
			c0.2-0.1,0.3-0.6,0.7-0.1c0,0,0.1,0,0.1,0c0.6-0.3,1.4-0.2,2-0.5c0.1,0,0.1-0.1,0.2-0.1c0.5,0.2,0.9-0.2,1.4-0.3
			c0.5-0.2,1.1-0.4,1.7-0.3c0.3,0.1,0.7-0.1,0.8-0.4c0-0.1,0.1-0.2,0.2-0.2c0.7,0,1-0.8,1.8-0.7c0.1,0,0.1,0,0.1-0.1
			c0.5-0.3,1.1-0.4,1.5-0.9c0.1-0.1,0.2-0.1,0.3-0.1c0.6-0.2,1.2-0.4,1.7-0.8c0.2-0.2,0.5-0.3,0.8-0.4c0.4,0,0.8-0.2,1.2-0.4
			c0.4-0.2,0.8-0.4,1.2-0.7c0.1-0.1,0.2-0.1,0.3-0.1c0.4,0,0.7-0.2,1-0.4c0.8-0.7,1.8-1.3,2.9-1.6c0.3-0.1,0.5-0.2,0.7-0.3
			c0.6-0.4,1.2-0.6,1.9-0.6c0.3,0.1,0.6,0,0.8-0.3c0.1-0.2,0.2-0.3,0.5-0.2c0.1,0.1,0.2,0.1,0.3,0c0.3-0.3,0.8-0.2,1.1-0.6
			c0.2-0.2,0.4-0.4,0.7-0.5c0.8-0.5,1.6-1,2.5-1.4c0.6-0.1,1.1-0.4,1.5-0.7c0.1-0.1,0.1,0,0.2,0l0.5-0.2c0.1,0,0.2-0.2,0.3-0.1
			c0.3,0.1,0.5-0.1,0.6-0.3c0.1-0.1,0.2-0.1,0.3-0.2l2.7-1.1l3.2-1.3c0.1,0,0.2-0.1,0.2-0.1c0.6-0.3,1.2-0.7,1.8-1
			c0.4-0.2,0.7-0.5,0.8-0.9C96.5,72.9,96.5,72.5,96.3,72z M78.4,73.6L78.4,73.6L78.4,73.6L78.4,73.6z M54,88.1L54,88.1l0.1,0.1H54
			L54,88.1L54,88.1z M56.4,87.5L56.4,87.5L56.4,87.5L56.4,87.5z M54.7,87.9l1.1-0.3l-0.1,0.1L55,87.9L54.7,87.9z M57,87.3v-0.1
			l0.2-0.2c0.1,0,0.2-0.1,0.2-0.1c0,0.1,0,0.1,0,0.2C57.3,87.2,57.1,87.3,57,87.3z M64.2,79.2L64.2,79.2L64.2,79.2L64.2,79.2z
			 M61.9,80.2L61.9,80.2C61.9,80.3,61.9,80.3,61.9,80.2C61.9,80.3,61.9,80.2,61.9,80.2L61.9,80.2z M61.2,80.3c0-0.1,0.1-0.1,0.1-0.1
			c0.1,0.1,0.1,0.1,0.2,0.2c0,0.1,0,0.1,0,0.2c0,0-0.1,0.1-0.1,0.1s-0.1-0.1-0.2-0.2C61.2,80.4,61.2,80.4,61.2,80.3L61.2,80.3z
			 M60.7,79L60.7,79L60.7,79z M60.2,81c-0.1,0.4-0.3,0.3-0.5,0.3c0-0.1,0-0.1,0-0.2L60.2,81z M59.1,79.8
			C59.1,79.8,59.1,79.8,59.1,79.8L59.1,79.8C59.1,79.8,59.1,79.8,59.1,79.8L59.1,79.8z M58.9,81.7L58.9,81.7L58.9,81.7z M58.2,81.8
			c0,0.1,0.1,0.1,0.1,0.2c-0.1,0.2-0.2,0.3-0.5,0.1c0.1-0.3,0.2-0.4,0.3-0.5S58.2,81.8,58.2,81.8z M58.1,80.3L58.1,80.3l-0.7,0.2
			v-0.1L58.1,80.3z M57.2,82.3C57.2,82.3,57.2,82.3,57.2,82.3l0,0.1h0C57.2,82.4,57.2,82.4,57.2,82.3L57.2,82.3z M56.5,81L56.5,81
			l-0.3,0.1v-0.1L56.5,81z M55,83c0.3-0.1,0.5-0.4,1.1-0.2c-0.3,0.4-0.8,0.6-1.2,0.5C54.7,83,54.9,83.1,55,83L55,83z M54.7,81.8
			L54.7,81.8L54.2,82V82L54.7,81.8z M51.6,84.3c0.4-0.2,0.8-0.3,1.2-0.6c0.1-0.1,0.3-0.2,0.4-0.3c0.1-0.1,0.2,0,0.4,0.2
			c0.2-0.3,0.4-0.6,0.8-0.3c0,0,0,0.1,0,0.1c-0.2,0.2-0.5,0.4-0.8,0.6c-0.6,0.2-1.3,0.4-2,0.6c0,0-0.1,0-0.1-0.1
			C51.5,84.3,51.5,84.3,51.6,84.3z M50.8,84.8L50.8,84.8L50.8,84.8L50.8,84.8z M49.3,85.8c0,0,0.1,0,0.1,0.1s0,0.2,0,0.2
			c0,0-0.1,0.1-0.1,0.1c0,0-0.1-0.1-0.1-0.1C49.2,86,49.3,85.9,49.3,85.8L49.3,85.8z M48.4,86.6L48.4,86.6L48.4,86.6L48.4,86.6z
			 M45.6,87.9L45.6,87.9L45.6,87.9L45.6,87.9z M44,88.5L44,88.5L44,88.5L44,88.5z M58.3,89.2L58.3,89.2L58.3,89.2L58.3,89.2
			L58.3,89.2z M59,88.9l1.1-0.3C59.9,88.9,59.7,89,59,88.9L59,88.9z M60.7,88.4L60.7,88.4L60.7,88.4L60.7,88.4z M61.7,88.2
			c-0.1,0.1-0.2,0.1-0.3,0.1l0-0.1c0.1-0.1,0.2-0.2,0.2-0.3c0,0,0.1,0,0.2,0S61.7,88.2,61.7,88.2L61.7,88.2z M64,87.2
			C64,87.2,63.9,87.2,64,87.2L64,87.2L64,87.2L64,87.2L64,87.2z M64.8,86.5L64.8,86.5L64.8,86.5L64.8,86.5z M65.3,86.3L65.3,86.3
			l0.4-0.2v0.1L65.3,86.3z M67.9,85.3l0.3-0.3C68.3,85.5,68.2,85.5,67.9,85.3L67.9,85.3z M70,84.1C70,84.1,70,84.1,70,84.1L70,84.1
			L70,84.1L70,84.1z"/>
		<path class="st1" d="M92.8,73.2"/>
		<path class="st0" d="M59.8,42.7v-0.8c0-0.2-0.1-0.5-0.2-0.7c-0.1-0.5-0.2-0.9-0.4-1.4c-0.2-0.5-0.4-0.9-0.6-1.3
			c-0.2-0.4-0.5-0.9-0.8-1.3c-1.3-1.9-3.1-3.4-5.2-4.2c-2.3-0.9-4.8-1.4-7.2-1.3h-0.5c-0.5,0-1.1,0-1.6,0.1l-0.8,0.1h-0.4h-0.3
			l-2,0.4c-0.8,0.1-1.5,0.2-2.3,0.3c-0.1,0-0.2,0-0.3,0.1C37,33,36.6,33,36.3,33c-0.5,0.1-0.9,0.2-1.4,0.3c-0.9,0.4-1.8,0.6-2.7,0.6
			c-0.1,0-0.4,0-0.4,0.2c-0.1,0.4-0.4,0.4-0.6,0.4l-2.1,0.8c-0.4,0.1-0.8,0.3-1.2,0.3c-0.2,0-0.4,0-0.6-0.1c-0.4-0.1-0.7-0.2-1-0.3
			s-0.5,0-0.6,0.7c0,0.2,0,0.4,0,0.6c-0.2-0.1-0.4-0.2-0.6-0.3c-0.3-0.1,0,0.4-0.1,0.5S25,36.9,25,36.9c-0.4,0.1-0.7,0.2-1,0.3
			c-1.4,0.5-2.7,1-4.1,1.6c-0.4,0.2-0.9,0.3-1.3,0.5c-1.3,0.6-2.6,1.2-3.9,1.9c-0.2,0.1-0.5,0.2-0.7,0.3c-1.2,0.7-2.3,1.3-3.5,2
			s-2,1.2-3,1.9c-1.6,1.2-3.2,2.3-4.7,3.5c-0.7,0.5-1.3,1.1-1.7,1.9c-0.3,0.4-0.4,0.9-0.3,1.3c0.1,0.8,0,1.2-0.6,1.1H0.2
			c-0.1,0-0.2,0.1-0.2,0.3c0,0,0,0.1,0,0.1C0.1,53.8,0.3,54,0.4,54c0.3,0.1,0.5,0.2,0.8,0.2l3.3,0.5c1.5,0.2,3.1,0.4,4.7,0.4
			c1.6,0.1,3.2-0.2,4.8-0.7c0.1,0,0.3-0.1,0.4-0.1l1.9-0.5c0.6-0.2,1.2-0.4,1.9-0.7l1.6-0.5c-0.6,4.4-1.1,8.8-1.7,13.2
			c-0.8,6.6,0,0.1,0,0.1c-0.2,0.1-0.3,0.2-0.4,0.4c0,0.1-0.2,0.2-0.4,0.2c-1.3,0.2-2.5,0.7-3.5,1.5c-0.2,0.1-0.4,0.2-0.6,0.2
			c-1.3,0.2-1.4,0.4-1.5,0.7c0,0.1,0.1,0.2-0.2,0.3l0,0c0,0.2,1,0.6,1,0.8s1.1,0.6,1.6,0.9c0.2,0.1,0.3,0.2,0.5,0.3l2.7,1.7
			c-0.4,5-0.7,10-1.1,15c-0.2,0-0.1,0.1,0,0.2l-0.1,1c-0.1,0-0.1,0.1,0,0.1v0.5v0.3c0,0,0,0.1,0,0.1v0.3c-0.2,0.1-0.4,0.2,0,0.4l0,0
			v0.2c-0.1,0.1-0.2,0.1-0.1,0.2l0.1,0.1v0.7H16c-0.1,0-0.1,0.1-0.1,0.1c0,0.2-0.1,0.4-0.1,0.6c0,0,0,0.1,0,0.1
			c0.3,0.2,0.2,0.3,0,0.4s-0.1,0.1,0,0.2s0.1,0.2,0,0.3s-0.2,0.2,0,0.3c0,0,0.1,0.1,0,0.1c0,0,0,0,0,0c-0.5,0.1-0.4,0.3-0.2,0.4
			c0.1,0,0.1,0.1,0,0.1c-0.3,0.2-0.4,0.7-0.2,1c0,0,0,0,0,0c0,0.1,0.1,0.1,0,0.2c-0.4,0.1-0.2,0.3,0,0.4s0.2,0.2,0.2,0.2
			s0,0.3-0.1,0.4s0.1,0.3,0.1,0.5c0,0,0,0.1,0,0.2c0,0.6,0,1.1-0.1,1.7c0,0.1,0,0.3,0,0.4v0.5c-0.1,0-0.1,0.1-0.1,0.2
			c0,0.1,0,0.1,0,0.2v0.4c-0.1,1.2-0.3,2.4-0.4,3.6c-0.2,2.5-0.1,2.8,0.8,2.7c0,1.2,0.1,2.2,0.1,3.2c-0.1,0.7-0.1,1.4,0,2
			c0.3,0.7,0.5,0.5,0.8-0.7c0.1-0.3,0.1-0.7,0.2-1l0.1,0.3c0.1,0.1,0.1,0.2,0.2,0.2c0.1,0.1,0.2,0.2,0.2,0.3c0.1,0.3,0.6,0.6,1,0.9
			c0.4,0.1,0.5,0.3,0.5,0.5s0.1,0,0.1,0.1c0.2,0,0.1-0.2,0.4-0.1c0.1,0.1,0.1,0.2,0.2,0.3c0.1,0.1,0.3,0.1,0.4,0.1
			c0.4,0,0.5,0.1,0.5,0.2s0,0.3,0.1,0.5c0,0.1,0,0.2,0,0.3c0,0,0.1,0.1,0.1,0.1c0.1,0,0.1,0,0.2,0c0.1,0,0.2-0.1,0.2-0.2
			c0.3,0.3,0,0.5,0.3,0.8c0.1-0.1,0.1-0.2,0.2-0.2c0.3-0.1,0.5-0.4,0.6-0.7c0.1-0.1,0.2-0.3,0.2-0.4c0.1-0.2,0.2-0.4,0.3-0.6
			s0-0.1,0.1-0.2s0.2,0.1,0.2,0.1s0,0.2,0,0.3s0.1,0.2,0.7,0.4c0.1,0.2-0.1,0.3,0.2,0.5c0,0,0.1-0.1,0.1-0.1
			c0.2-0.6,0.5-1.1,0.8-1.7c0.1-0.2,0.2-0.4,0.3-0.6c0.3-0.8,0.6-1.5,0.8-2.3s0.4-1.8,0.6-2.7c0.1-0.4,0.2-0.8,0.3-1.3
			s0.1-1.1,0.2-1.6c0.2-1.2,0.4-2.5,0.4-3.8c0-0.6,0.1-1.3,0.1-1.9c0.1-0.9,0.1-1.8,0.2-2.7c0.2-1.6,0.5-3.2,0.6-4.8
			c0.1-0.8,0.2-1.5,0.4-2.2c0-0.2,0.2-0.3,0.2-0.4s-0.1-0.3-0.1-0.5s0.1-0.5,0.1-0.8c0.1-0.6,0.1-1.2,0.2-1.8
			c0.1-0.9,0.3-1.8,0.4-2.6c0-0.1,0-0.1,0-0.2c0.1-0.1,0.4-0.2,0.3-0.4s-0.2-0.3-0.2-0.4s0.1-0.4,0.1-0.6c0.3,0.2,0.7,0.4,0.9,0.6
			c0.3,0.2,0.5,0.2,0.9-0.1c0.1-0.1,0.2-0.2,0.3-0.2c0.4-0.1,1,0.4,0.8,0.8s0,0.6,0.3,0.7c0.3,0.3,0.7,0.4,1.2,0.3
			c0.1,0,0.2,0,0.3,0h0.2c0.1,0,0.2,0.1,0.4,0.1c0.5,0.1,0.9,0.7,0.7,1.2c0,0.1,0.2,0.1,0.3-0.1l0.2-0.3c0.2,0.2,0.4,0.3,0.6,0.4
			l2.2,1.3c0.6,0.4,1.3,0.7,2,1c1.2,0.4,2.5,0.7,3.8,0.9c0.1,0,0.3,0,0.4,0c0.2,0,0.3,0,0.5,0c0.5,0.2,1.3-0.1,1.9-0.2
			c0.3-0.3,0.7-0.3,1-0.1c0,0,0.1-0.1,0.2-0.1c0.1-0.2-0.2-0.2,0.1-0.5c0.2,0,0.3,0,0.5,0c0.2,0,0.3-0.1,0.4-0.3
			c0.2-0.4,0.4-0.4,0.6-0.4s0.5,0.2,0.8,0.4c0.1,0.1,0.3,0.1,0.4,0.2c0,0,0.1,0,0.2-0.1c0-0.1,0.1-0.1,0-0.2c0-0.1-0.1-0.3-0.1-0.4
			c0.6-0.1,0.8,0.4,1.3,0.4c-0.1-0.2-0.2-0.2-0.3-0.4c-0.1-0.4-0.4-0.8-0.8-1.1c-0.2-0.2-0.3-0.4-0.5-0.6l-0.7-0.8l-0.2-0.2
			c0.2-0.1,0.2-0.1,0.3-0.1s0.3,0.2,0.5,0.3s0.4,0.1,0.9-0.4c0.3,0,0.4,0.4,0.8,0.2c0-0.1-0.1-0.1-0.1-0.2c-0.8-0.7-1.5-1.5-2.2-2.3
			c-0.2-0.3-0.5-0.6-0.7-0.8c-1-1-2-2-3.1-2.9c-1.2-1-2.5-2-3.8-3l-0.9-0.7c-0.3-0.2-0.7-0.6-0.7-0.6c-0.1-0.1-0.3-0.2-0.5-0.3
			c-0.4-0.3-0.3-0.6-0.9-0.8c-0.2-0.1-0.4-0.2-0.6-0.3c0,0-0.1-0.1,0-0.1c0.2-0.1,0.4-0.2,0.7-0.3c0.5-0.1,1.1-0.3,1.6-0.5l0.5-0.3
			l1-0.5c0.7-0.3,1.3-0.7,2-1.1c0.3-0.2,0.7-0.2,0.9-0.4s0.5-0.5,0.8-0.7c0.5-0.4,1-0.7,1.4-1c1-0.8,2-1.7,3-2.6
			c0.7-0.8,1.5-1.5,2.2-2.4c0.8-0.9,1.4-1.8,2-2.8c0.1-0.2,0.2-0.3,0.3-0.5c0.3-0.3,0.7-0.5,0.8-0.8c0-0.4,0.1-0.8,0.2-1.2l0.4-0.8
			c0.1-0.3,0.2-0.6,0.3-0.8l0.4-1.4l0.3-1.3c0.1-0.4,0.2-0.9,0.2-1.2l0.2-1.4l0.5-3.8C59.9,44.4,59.8,43.6,59.8,42.7z M15.7,67.5
			L15.7,67.5h0.2H15.7z M15.5,95.6L15.5,95.6L15.5,95.6L15.5,95.6z M44.5,47.3L44.5,47.3L44.5,47.3C44.5,47.3,44.6,47.3,44.5,47.3
			c0.1,0.1,0.1,0.1,0,0.2s-0.1,0.4-0.2,0.5c-0.1,0.3-0.1,0.5-0.2,0.8c0,0.3,0,0.5-0.1,0.8c0,0.1,0,0.2-0.1,0.2
			c-0.2,0.3-0.4,0.6-0.5,0.9c-0.1,0.3-0.2,0.6-0.5,0.8c-0.2,0.3-0.4,0.6-0.4,1c0,0.1-0.1,0.2-0.2,0.2c-0.5,0.1-0.7,0.4-0.5,1.1
			c-0.3-0.2-0.5-0.2-0.6,0c0,0.1,0,0.3,0,0.4c0,0.2,0,0.3-0.2,0.2s-0.3,0-0.4,0.1c-0.2,0.4-0.4,0.7-0.6,1c-0.1,0.1-0.2,0.2-0.5,0.1
			s-0.4-0.1-0.4,0.1c0,0.9-0.8,0.8-1.2,1.3c0,0-0.2,0-0.2,0s-0.2-0.1-0.2,0c0,0.3-0.1,0.3-0.3,0S37,57.1,37,57.3
			c0,0.1,0,0.2-0.1,0.2c-0.3-0.2-0.3,0.1-0.3,0.3s-0.3,0.3-0.5,0.2S35.8,58,35.7,58s-0.3,0.1-0.1,0.5l-0.1,0.2l-0.3,0.3
			c-0.2,0.2-0.5,0.3-0.7,0.4c-0.4,0-0.8,0.1-1.2,0.1c-0.3,0.2-0.6,0.3-0.9,0.6c-0.1,0-0.2,0-0.3,0c-0.2,0-0.4,0-0.6,0.1
			c0-0.1,0-0.1,0-0.2c0.1-0.8,0.1-1.6,0.2-2.4c0-0.3,0.1-0.5,0.1-0.8c0-0.8,0-1.6,0-2.3c0-0.1,0-0.3,0-0.4c-0.1-0.7-0.1-1.5-0.2-2.2
			c0-0.7-0.1-1.3-0.2-1.9c0-0.2-0.1-0.4-0.1-0.6c0.2,0,0.4,0,0.6-0.1c0.9-0.3,1.8-0.6,2.7-0.8c0.2,0,0.5-0.1,0.7-0.1l0.5-0.2
			c0.4-0.1,0.7-0.2,1.1-0.3c0.7-0.2,1.4-0.4,2.1-0.5c0.2,0,0.4-0.1,0.6-0.2c1.1-0.2,2.1-0.4,3.1-0.5l1.1-0.1H44c0.1,0,0.1,0,0.2,0
			c0.1,0,0.2,0,0.2,0.1v0.2c0,0,0.1,0.2,0.1,0.3S44.7,47.1,44.5,47.3L44.5,47.3z"/>
		<path class="st0" d="M150.4,9.5c0-0.5,0-0.9,0.1-1.4c0.1-0.1,0.1-0.3,0.1-0.4c0.1-0.3,0.1-0.6,0.1-0.9c0-0.1,0-0.1,0-0.2
			c0-0.1,0-0.1-0.1-0.2c0-0.1-0.1-0.1-0.1-0.2L150,6.1C149.8,6,149.7,6,149.5,6c-0.1,0-0.1,0.1-0.4-0.2s-0.1-0.1-0.1,0
			c0,0.3-0.2,0.1-0.3,0.1s-0.2-0.1-0.3-0.1c-0.3,0-0.6-0.1-0.9-0.2c-0.1,0-0.2-0.1-0.2,0.1s-0.1,0.1-0.1,0.1s-0.1-0.1-0.2-0.4
			l-0.2-0.3v0.2l0.4,0.7c-0.1,0-0.2,0-0.3,0.1s-0.1,0.1-0.3,0s-0.1,0-0.2,0s-0.2,0.1-0.3,0.2s-0.4,0-0.5,0.2
			c-0.1,0.1-0.1,0.1-0.2,0.2c-0.1,0-0.3,0-0.4,0.1c0,0-0.1-0.1-0.3-0.4s-0.2-0.2-0.2-0.2c0,0.1,0,0.2,0,0.3c0,0.1,0,0.1,0,0.2h-0.1
			l-0.1-0.1c0,0,0,0,0,0.1c0,0-0.1,0.1-0.1,0.1l0,0c-0.1-0.1-0.2-0.1-0.3,0.1H144l0,0c-0.1-0.2-0.2-0.3-0.2-0.2v0.2
			c-0.4,0-0.9,0-1.3,0.1c-0.1,0-0.2,0.2-0.3,0.2s-0.4,0.1-0.7,0.2c-0.2,0.1-0.3,0.1-0.5,0.1c-0.2,0-0.5,0-0.7,0.1s-0.5,0.4-0.9,0.2
			 M139.3,7.8c-0.1,0.3-0.4,0.2-0.6,0.3c-0.4,0.2-0.9,0.4-1.3,0.5c0,0-0.1,0-0.1,0c-0.3-0.2-0.5,0-0.7,0.2s-0.1,0.1-0.2,0.1
			c-0.3-0.2-0.4,0.1-0.6,0.3s-0.2,0.2-0.3,0.1c-0.2-0.1-0.4-0.1-0.5,0.1c-0.1,0-0.1,0.2-0.2,0.1s-0.2,0.3-0.3,0.2s-0.3-0.1-0.4-0.1
			s-0.1,0.1-0.1,0.1s-0.2,0.1-0.3,0s-0.4-0.1-0.5,0.2c0,0.2-0.1,0.3-0.2,0.2s-0.3-0.1-0.5-0.1s-0.4,0-0.6,0s-0.5-0.1-0.7,0.2
			c0,0.1-0.1,0-0.1,0c-0.2-0.1-0.5-0.1-0.7,0.1c-0.1,0-0.2,0.1-0.3,0.1c-0.2,0-0.4,0-0.5,0.1c-0.2,0.1-0.4,0.3-0.6,0.3
			c-0.4,0-0.7,0.1-1,0.3c-0.1,0.1-0.3,0.2-0.5,0.2c-0.5,0.1-1.1,0-1.5,0.5c-0.4-0.2-0.6,0.2-0.9,0.2c-0.1,0-0.3,0-0.4,0.1
			c-0.8,0.3-1.6,0.4-2.4,0.8c-0.5,0.3-1,0.4-1.5,0.5c-0.1,0-0.1,0-0.1,0.1c0,0.3-0.2,0.2-0.3,0.2s-0.3-0.1-0.4,0.2s-0.1,0.1-0.2,0.1
			c-0.4-0.3-0.6-0.1-0.8,0.1c-0.1,0.1-0.2,0.2-0.2,0.1c-0.2,0-0.5,0-0.7,0.1c-0.2,0.1-0.5,0.2-0.7,0.3c-0.5,0.1-0.9,0.4-1.4,0.4
			c0,0-0.1,0-0.1,0c-0.5,0.2-1,0.3-1.5,0.5c-0.4,0.3-0.9,0.4-1.4,0.4c0,0-0.1,0-0.1,0c-0.3,0.1-0.5,0.3-0.9,0.2c0,0-0.1,0-0.1,0
			c-0.3,0.3-0.7,0.3-1,0.4c-0.1,0.1-0.2,0.1-0.3,0.2c-0.1,0.1-0.2,0.2-0.4,0.1c-0.3-0.1-0.7,0-0.9,0.2c-0.1,0.1-0.2,0.1-0.3,0.2
			c-0.5,0.2-1,0.4-1.6,0.6c-0.2,0.1-0.5,0.1-0.7,0.3s-0.6,0.4-0.9,0.5s-0.4,0.4-0.6,0.4c-0.6,0.3-1.2,0.8-1.6,1.4
			c-0.4,0.5-0.8,1.1-1.1,1.7c-0.5,0.8-0.9,1.7-1.3,2.5c-0.1,0.2-0.1,0.4,0,0.6c0,0.2,0,0.4,0,0.6c1.1,0.8,2.4,1.4,3.7,1.6h0.2
			c0.5,0.1,0.9,0.3,1.3,0.5c0.7,0.1,1.5,0.2,2.2,0.1c0.6-0.1,1.1-0.2,1.7-0.3l3.5-0.8c0.8-0.2,1.7-0.4,2.5-0.6s1.8-0.5,2.7-0.8
			c0.5-0.1,1.1-0.2,1.6-0.4s1.1-0.4,1.7-0.5l0.9-0.3l1.9-0.5c0.1,0,0.1,0,0.2-0.1c0.6-0.1,1.2-0.2,1.9-0.4c0.3-0.1,0.5-0.2,0.7-0.3
			c0.4-0.1,0.8-0.2,1.3-0.3s0.8-0.3,1.3-0.4c0.4-0.1,0.8-0.2,1.1-0.4c0.5-0.2,1.1-0.4,1.6-0.5l0.9-0.3l-0.7,1
			c-0.1,0.1-0.1,0.3-0.2,0.4c-0.4,0.3-0.7,0.7-0.8,1.1c-0.2,0.4-0.5,0.8-0.8,1.2c-0.5,0.7-1,1.5-1.4,2.2c-0.1,0.3-0.3,0.5-0.6,0.8
			c-0.2,0.2-0.3,0.4-0.4,0.7c-0.1,0.4-0.3,0.7-0.6,1c-0.1,0.1-0.2,0.2-0.3,0.4l-0.4,0.8l-1.9,3.1c-0.1,0.2-0.4,0.4-0.5,0.6
			c-0.5,1-1.1,1.9-1.7,2.8c-0.6,0.8-1.1,1.7-1.5,2.6l-1.4,2.4l-0.4,0.7l-2,3.6l-2.2,4.1l-1,1.7c-0.4,0.7-0.8,1.4-1.2,2.1
			c-0.2,0.4-0.6,0.8-0.8,1.2c-0.4,1-1,1.9-1.6,2.8c-0.5,1.1-1.2,2.2-1.9,3.2c-0.1,0.1-0.1,0.3-0.2,0.4c-0.2,0.3-0.3,0.7-0.5,1
			c-0.3,0.5-0.6,0.9-0.9,1.4c-0.4,0.8-0.8,1.5-1.2,2.3c-0.1,0.2-0.2,0.4-0.3,0.6c-0.8,1.1-1.4,2.2-2,3.4c-0.6,1.2-1.2,2.3-1.9,3.5
			c-0.7,1.1-1.2,2.3-1.7,3.5c-0.2,0.4-0.4,0.7-0.6,1c-1,1.2-1.5,2.4-1.3,3.1c-0.7,0.4-1.1,0.9-1.1,1.2c0,0.2,0,0.4,0,0.6
			c0,0.2,0,0.3-0.4,0.7c-0.4,0.3-0.7,0.7-0.9,1.1l-2.8,5c-0.2,0.2-0.3,0.4-0.6,0.6c-0.4,0.3-0.5,0.5-0.4,0.5c0.3,0,0.2,0.2-0.7,0.9
			c-0.7,0.6,0.3,2.9,0.5,3s0.2,0,0.1,0.2c-0.7,0.7-0.5,0.7-0.3,0.8l0.2-0.2c0.7-0.4,1.1-0.4,1.2-0.2s-0.1,0.2,0,0.3s0.5-0.1,1.2-0.5
			c-0.1,0.1-0.1,0.1,0,0.1s0.1,0.4,0.3,0.4c0.5-0.1,0.9-0.3,1.3-0.4c0.1,0,0.1,0,0.1,0c0.2,0.2,0.4,0.3,1.4-0.3s0.5,0.3,1.4-0.3
			l0.6-0.4l0,0l0.3-0.1l0,0c0.2,0.1,0.6-0.1,1.1-0.3c0.6-0.3,1.2-0.5,0.9,0.1c-0.1,0.1,0.2,0.1,0.4,0l2.2-0.5c0.1,0,0.3-0.1,0.4-0.1
			c0.8-0.6,1.2-0.6,1.6-0.5c0.3,0,0.6-0.1,0.8-0.2c0.5-0.2,0.8-0.4,1-0.2s0.7,0.1,1.3-0.4c0.2-0.1,0.4-0.2,0.5-0.1
			c0.2,0.5,0.9,0.2,1.7-0.3c0.2-0.1,0.3-0.2,0.5-0.2c1.3,0.1,2.6-0.2,3.8-0.8c0.2-0.1,0.5-0.2,0.6-0.1c0.5,0.3,1.1-0.1,1.7-0.4
			c0.2-0.2,0.6-0.4,0.8-0.4c0.6,0.1,1.1-0.4,1.6-0.3c0.7,0.1,1.1-0.4,1.7-0.6c0.2-0.1,0.4-0.1,0.5-0.2l3.4-0.9
			c0.9-0.2,0.9-0.2,1.4-1.1c0.3,0.8,0.3,0.8,0.7,0.6c0.2-0.1,0.4-0.1,0.6-0.2c0.6-0.2,1.3-0.4,1.9-0.7s0.6-0.3,0.9-1
			c0.1,0.1,0.2,0.1,0.2,0.2c0.3,0.5,0.6,0.6,0.9,0.3c0.3-0.3,0.6-0.4,1-0.4c0.2,0,0.3-0.2,0.2-0.6c0-0.1,0-0.2,0-0.3
			c0.1-0.3,0.6-0.3,0.8,0s0.3,0.4,0.5,0.3c0.3-0.1,0.5-0.3,0.5-0.5c0.1-0.4,0.3-0.5,0.6-0.6c0.5-0.3,1.1-0.2,1.5,0.2
			c0.1,0.1,0.2-0.1,0.1-0.3l-0.1-0.3c0.3-0.1,0.5-0.1,0.8-0.2l2.7-0.8c0.8-0.2,1.6-0.5,2.3-0.8c1.3-0.7,2.5-1.4,3.6-2.3
			c0.1-0.1,0.2-0.2,0.3-0.3c0.1-0.1,0.3-0.2,0.4-0.3c0.6-0.2,0.9-1,1.3-1.5c0-0.4,0.3-0.7,0.6-0.8c0,0,0-0.1,0-0.2s-0.3,0-0.4-0.4
			c0.1-0.1,0.3-0.2,0.4-0.3c0.1-0.1,0.1-0.3,0.1-0.5c-0.2-0.4-0.1-0.6,0.1-0.7s0.6-0.2,0.9-0.3s0.3-0.1,0.5-0.2s0.1-0.1,0-0.2
			c0-0.1-0.1-0.1-0.1-0.2c-0.1-0.1-0.3-0.1-0.4-0.2c0.3-0.5,0.9-0.3,1.3-0.7c-0.2,0-0.4,0-0.5-0.1c-0.5-0.3-1-0.3-1.6-0.2
			c-0.3,0-0.5,0-0.8-0.1h-1.5c0-0.2,0.1-0.3,0.2-0.3s0.4-0.1,0.6-0.2s0.4-0.2,0.4-0.9c0.2-0.2,0.6-0.1,0.8-0.5h-0.3
			c-1.2,0.1-2.4,0.2-3.5,0.2c-0.4,0-0.8,0-1.2,0c-1.6,0.1-3.1,0.2-4.7,0.4c-1.8,0.2-3.5,0.6-5.2,0.9c-0.8,0.1-1.7,0.2-2.5,0.4
			c-1,0.2-2,0.5-3,0.7c-2.4,0.6-4.9,0.9-7.2,1.7c-0.6,0.2-1.2,0.3-1.8,0.5l-0.5,0.1h-0.1h-0.2c-0.3,0.1-0.6,0.2-0.9,0.2
			c-0.6,0.1-0.7-0.2-1.2,0c-0.1,0-0.2,0-0.2,0l0.4-0.4c0.1-0.1,0.4-0.3,0.5-0.4s-0.2,0.1-0.2,0.1s0.1-0.2,0.2-0.2s0.1-0.2,0.2-0.3
			s0.5-0.4,0.5-0.5s0,0,0,0s0.4,0,0.4,0s-0.2-0.1-0.2-0.1s0.1,0,0.1,0l1.9-3.4c0.6-1.1,1.3-2.1,1.9-3.2s1.1-2.2,1.6-3.3
			c0.7-1.3,1.4-2.5,2-3.8l2.1-3.9l0.1-0.3c0.5-1.1,1-2.2,1.6-3.3c0.3-0.6,0.8-1.2,1.1-1.9c0.1-0.1,0.1-0.2,0.1-0.2
			c-0.1-0.4,0.2-0.7,0.4-1c0.2-0.4,0.5-0.8,0.6-1.2c0.3-0.9,0.8-1.7,1.4-2.4c0.1-0.1,0.2-0.3,0.1-0.4c-0.2-0.3,0-0.5,0.1-0.7
			l1.2-2.1c0.2-0.4,0.4-0.8,0.7-1.1c0.1-0.2,0.3-0.3,0.5-0.4c0.3-0.2,0.7-0.3,1-0.5s0.4-0.4,0-0.9c-0.1-0.1-0.3-0.3-0.4-0.4
			c0.2,0,0.4-0.1,0.6-0.1c0.3-0.2-0.3-0.3-0.3-0.5c0-0.1,0-0.1,0.1-0.2c0.2-0.3,0.4-0.7,0.6-1l2.2-4.1c0.2-0.5,0.5-0.9,0.8-1.3
			l2-4.1c0.1-0.2,0.3-0.5,0.4-0.7l1.8-3.9c0.5-1.2,1-2.3,1.5-3.5c0.8-1.9,1.5-3.8,2.2-5.7c0.3-0.8,0.5-1.7,0.5-2.6 M95,95.4l0.2-0.1
			C95.6,95.2,95.2,95.3,95,95.4z M114.5,91.4L114.5,91.4L114.5,91.4L114.5,91.4z"/>
		<polygon class="st0" points="146.8,5.3 146.8,5.3 146.8,5.3 		"/>
		<path class="st0" d="M145.1,5.6c0-0.1-0.1-0.2-0.1-0.3c-0.1-0.1-0.1-0.1-0.1-0.1S144.9,5.3,145.1,5.6
			C145.1,5.7,145.1,5.7,145.1,5.6z"/>
		<path class="st0" d="M143.8,6.2l-0.1-0.3c0,0-0.1-0.2-0.1-0.1c0,0.1,0,0.1,0,0.2L143.8,6.2z"/>
		<path class="st0" d="M143.5,6.2C143.5,6.2,143.5,6.2,143.5,6.2c0-0.1-0.1-0.3-0.1-0.3s-0.1,0-0.1,0c0,0.1,0,0.1,0.1,0.2
			C143.4,6.1,143.5,6.1,143.5,6.2z"/>
		<path class="st0" d="M146.5,5.2L146.4,5l0,0l0.1,0.3C146.6,5.3,146.6,5.2,146.5,5.2z"/>
		<path class="st0" d="M140.2,7.5c0,0,0-0.1-0.1-0.1l-0.1-0.1L140.2,7.5C140.1,7.4,140.2,7.5,140.2,7.5z"/>
		<path class="st0" d="M140.5,7.3V7.2l-0.1-0.1L140.5,7.3L140.5,7.3z"/>
		<path class="st0" d="M139.8,7.8L139.8,7.8V7.6l0,0V7.8z"/>
		<polygon class="st0" points="141.5,6.6 141.5,6.6 141.5,6.6 		"/>
		<path class="st0" d="M146.6,5.4L146.6,5.4L146.6,5.4L146.6,5.4z"/>
		<path class="st0" d="M99.4,84.9c0-1.7,0-3.4-0.1-5.1c-0.1-1.9-0.3-3.8-0.5-5.8c-0.1-0.9-0.1-1.8-0.2-2.8c-0.1-1.1-0.3-2.2-0.5-3.3
			c-0.4-2.7-0.6-5.3-1.2-8c-0.2-0.7-0.3-1.3-0.4-2l-0.6-3.5c-0.6-3.4-1.1-6.8-1.7-10.2C93.5,39,92.7,33.4,91.9,28c0-0.1,0-0.2,0-0.4
			c0-0.4,0-0.5,0.1-0.5s0.1,0,0.1-0.3c0,0,0-0.2,0-0.2s0-0.1,0-0.1c0,0,0-0.1,0-0.1c0,0,0-0.2,0-0.3s0-0.1,0-0.1s0,0,0-0.2
			c0-0.3,0-0.6,0-0.9c0-0.4,0-0.6-0.1-0.5s0,0-0.1,0.1l0,0c0,0.2,0,0.3,0,0.4V25c0,0.1,0,0.2,0-0.1s0-0.5,0-0.5c0-0.1,0-0.3,0-0.4
			c0-0.2,0-0.3,0-0.5c-0.1-0.1-0.1-0.4-0.2-0.3s-0.1-0.1-0.1-0.7c0-0.1,0-0.2,0-0.2c0-0.2-0.1-0.5-0.1-0.7s0-0.1,0-0.1
			s-0.1-0.2-0.2-0.3s0-0.2-0.1-0.2S91,20.9,91,20.6s-0.1-0.1-0.1-0.3s-0.1-0.2-0.1-0.5c0,0,0-0.1,0-0.1c0-0.1-0.1,0-0.1,0
			s-0.2-0.1-0.4-0.1s0,0,0-0.1l0,0h-0.1c0,0,0-0.1,0,0s-0.1,0.1-0.1,0s-0.1,0-0.1,0.1s0,0.1-0.1,0.1l0,0v0.4l0,0h-0.1l0,0l0,0
			l-0.5,0.1c-0.1,0-0.2,0-0.2,0c-0.1,0.1,0.3-0.3-0.1-0.1c0,0,0,0,0-0.1s0.3-0.2-0.2,0.1c-0.1,0-0.1,0-0.1,0c0,0,0-0.1,0-0.1
			c0-0.1,0.2-0.2,0.2-0.2s-0.4,0.2-0.3,0.1c-0.3,0.2-0.2,0.1-0.2,0s0.1-0.1-0.3,0.1l0,0c0,0,0.1-0.1,0,0s-0.2,0.1-0.1,0
			s0.1-0.1-0.1,0c-0.3,0.2-0.3,0.2-0.4,0.2s-0.3,0.1-0.2-0.1s0-0.1,0.1-0.2s0,0-0.2,0.1c-0.4,0.3-0.4,0.2-0.2,0.1s0.1-0.1,0.1-0.1
			S87,20.1,87,20.2s0.1-0.2,0.2-0.3s0,0-0.1,0s-0.3,0.2-0.3,0.2s-0.1,0-0.4,0.2l0,0l0.7-0.5c-0.1,0-0.1,0.1-0.2,0.1
			c0,0-0.1,0-0.4,0.2S86,20.4,86,20.4s-0.1,0-0.3,0.1l-0.2,0.1l-0.1,0.1c0,0-0.1,0.1-0.1,0.1L85.1,21H85c0.1-0.1,0,0-0.2,0.1
			l-0.4,0.3l-2,0.5c-0.4,0.1-0.8,0.2-1.2,0.4l-0.6,0.2l-0.1,0l0,0c0,0,0,0.2-0.2,0.3l-0.1,0C80,23,80,23,80,23s0,0-0.4,0.2l0.3-0.3
			l0.2-0.3h-0.2c-0.1,0.1-0.3,0.1-0.4,0.2c-0.1,0.1-0.3,0.2-0.4,0.2l0,0H79l0.1,0c0,0,0,0,0,0H79h-0.1L78.6,23h-0.1
			c-0.1,0.1-0.1,0.1-0.2,0.2c0,0-0.3,0.1,0.1,0c0.1,0,0,0,0,0c-0.2,0.1-0.3,0.2-0.2,0.2s-0.2,0.1-0.3,0.2c-0.2,0.1-0.3,0.2-0.5,0.4
			c-0.1,0.1,0,0.2-0.1,0.2c0,0,0,0,0,0.1l0,0h-0.2l-2,6.5l-2.8,8.6l-2.9,8.9L69.3,49l-2,6.8c-0.2,0.8-0.6,1.5-0.8,2.2
			c0,0.1-0.1,0.2-0.1,0.3c0.1,0.5-0.1,0.8-0.2,1.2c-0.2,0.5-0.3,0.9-0.4,1.4c-0.2,1-0.5,1.9-1,2.8c-0.1,0.1-0.2,0.3-0.1,0.4
			c0.2,0.3,0.1,0.5,0,0.8l-0.7,2.5c-0.1,0.5-0.3,1.1-0.5,1.6c-0.1,0.2-0.2,0.4-0.4,0.5c-0.3,0.3-0.6,0.5-0.9,0.8s-0.3,0.5,0.1,0.9
			c0.2,0.1,0.3,0.2,0.5,0.3c-0.2,0.1-0.4,0.2-0.6,0.3c-0.3,0.2,0.3,0.3,0.3,0.4c0,0.1,0,0.2-0.1,0.2l-0.4,1.2l-1.6,4.8
			c-0.2,0.5-0.4,1-0.5,1.6l-1.4,4.8c-0.1,0.3-0.2,0.6-0.2,0.8l-1,4.5c-0.3,1.3-0.7,2.7-0.9,4c-0.4,2.2-0.9,4.3-1.3,6.5
			c-0.2,1-0.2,1.9-0.1,2.9c0,0.5,0.3,1,0.7,1.3c0.6,0.5,0.7,1,0.2,1.4l0,0.1c-0.1,0.1-0.1,0.3,0.1,0.4c0.2,0.1,0.4,0.1,0.5,0
			c0.3-0.1,0.6-0.3,0.8-0.4c1-0.8,2-1.5,3-2.3c1.4-1.1,2.7-2.4,3.9-3.7c1.3-1.4,2.4-3,3.1-4.8c0.1-0.2,0.2-0.3,0.2-0.5
			c0.3-0.7,0.7-1.4,1-2.1s0.6-1.5,1-2.2l0.8-2c0.1-0.1,0.1-0.3,0.2-0.4c0.3-0.4,0.6-0.9,0.7-1.3c0.2-0.5,0.4-1,0.6-1.5
			c0.3-0.9,0.7-1.7,1.1-2.6c0.1-0.3,0.2-0.6,0.4-0.9c0.2-0.2,0.3-0.5,0.3-0.8c0.1-0.4,0.2-0.8,0.5-1.2c0.1-0.1,0.2-0.3,0.2-0.5
			l0.3-0.9l1.4-3.7c0.1-0.3,0.3-0.5,0.4-0.8c0.4-1.1,0.7-2.3,1.2-3.3c0.4-1,0.8-2,1.1-3l1-2.8l0.2-0.8l1.4-4.2
			c0.1-0.2,0.1-0.4,0.2-0.6c0-0.1,0.1-0.1,0.1-0.2c0-0.1,0.1-0.2,0.1-0.3c0,0,0.1,0.1,0.1,0s0.1-0.2,0.1-0.3c0-0.1,0-0.1,0-0.2
			c0-0.1,0.1-0.2,0.1,0.1c0,0,0,0,0-0.1s0-0.2,0-0.3s0,0.1,0.1,0.2s0-0.4,0.1-0.6c0,0,0-0.2,0-0.1c0,0.5,0,0.4,0.1,0.2
			s0.1-0.5,0.1-0.1s0.1-0.6,0.1-0.9c0-0.1,0-0.1,0,0v0.2c-0.1,1.2-0.1,0.9,0.2-1.1c-0.1,1.5-0.2,2-0.1,1.5l0.1-1.1
			c0-0.4,0.1-0.7,0,0.1c-0.1,1.2-0.1,1-0.1,0.8c0.1-0.4,0.1-0.7,0.2-1c0-0.1,0-0.1-0.1,1c-0.1,0.9-0.2,1.1-0.1,0.6
			c0.4-2.2,0.1-0.4,0.2-0.9c0,0,0,0.3-0.1,0.6c-0.1,0.5-0.1,0.6,0,0.3c0.2-0.8,0.1-0.5-0.1,0.5c-0.2,0.9-0.1,0.4,0-0.2
			c0-0.2,0.1-0.5,0.1-0.4c-0.2,0.8,0,0.1,0.1-0.2s0.1-0.2,0,0.2l-0.2,0.8c-0.1,0.4,0,0.1,0.2-0.8c0.1-0.2,0.2-0.6,0.1-0.1l-0.3,1.1
			c0,0.1,0-0.1,0.1-0.1l0,0v0.2c-0.1,0.5-0.3,0.9,0,0.1s-0.2,0.8,0,0.2l0.1-0.4l0,0l0,0c-0.1,0.3,0,0.2,0,0s0.2-0.3-0.2,0.6
			c-0.1,0.2-0.1,0.2-0.1,0.2v0.1c0,0,0,0.1,0,0c0.3-0.5,0.2-0.4,0.1,0c-0.1,0.1,0,0.1,0,0s0.1-0.2,0,0s-0.2,0.3,0,0
			c0.1-0.1,0.1,0,0,0C82,60.2,82,60,82.3,59.8c0.1-0.1,0.1-0.1,0,0c-0.3,0.4-0.4,0.4-0.1,0.2c0,0,0.1,0,0,0c-0.4,0.3-0.2,0.1,0,0
			s0.2-0.1,0.2-0.1s0.1,0-0.1,0.1s0.1,0,0.2,0s0,0,0,0c0-0.2,0.1,0.7,0.2,1.2l0.3,1.7c0.2,1,0.2,1,1,1.6c-0.8,0.2-0.8,0.2-0.7,0.7
			c0.1,0.2,0.1,0.4,0.1,0.6c0.2,0.7,0.3,1.4,0.6,2.1s0.2,0.7,0.9,1.1c-0.1,0.1-0.1,0.2-0.2,0.2c-0.6,0.3-0.6,0.6-0.4,0.9
			c0.2,0.3,0.4,0.7,0.3,1.1c0,0.2,0.2,0.3,0.6,0.3c0.1,0,0.2,0,0.3,0c0.2,0.1,0.3,0.4,0.1,0.7c-0.1,0.1-0.1,0.1-0.2,0.2
			c-0.4,0.2-0.4,0.3-0.4,0.5c0,0.3,0.2,0.5,0.5,0.6c0.3,0.1,0.5,0.4,0.6,0.7c0.3,0.6,0.1,1.2-0.4,1.6C85.9,75.9,86,76,86.2,76
			l0.3-0.1c0,0.3,0,0.6,0.1,0.9l0.7,3c0.2,0.9,0.4,1.7,0.6,2.6c0.6,1.4,1.2,2.8,2,4.1c0.1,0.1,0.2,0.3,0.3,0.4
			c0.1,0.1,0.2,0.3,0.3,0.5c0.2,0.7,1,1.1,1.4,1.6c0.4,0.1,0.7,0.4,0.8,0.8c0,0,0.1,0,0.2,0.1c0.2-0.1,0-0.3,0.4-0.3
			c0.1,0.2,0.2,0.3,0.3,0.5c0.1,0.1,0.3,0.2,0.5,0.1c0.4-0.1,0.6,0,0.7,0.2s0.2,0.7,0.3,1c0.1,0.2,0.1,0.3,0.2,0.5s0.1,0.1,0.2,0.1
			c0.1,0,0.1,0,0.2-0.1c0.1-0.1,0.1-0.3,0.2-0.4c0.5,0.4,0.3,1,0.7,1.4c0-0.2,0-0.4,0.1-0.6c0.3-0.5,0.4-1.1,0.3-1.7
			c0-0.3,0.1-0.6,0.1-0.9l0.6-0.7c0.1,0.4,0.2,0.4,0.9,0.5c0.2,0.3,0,0.6,0.4,0.9c0-0.1,0-0.2,0.1-0.3c0.1-1.3-0.1-2.5,0.1-3.8
			C99.3,85.8,99.3,85.4,99.4,84.9z M82.4,59.8L82.4,59.8L82.4,59.8L82.4,59.8z M91.8,27.8L91.8,27.8c0-0.1,0-0.2,0-0.3s0,0,0,0.1
			V27.8z M88.7,20.9L88.7,20.9L88.7,20.9L88.7,20.9z M88.9,20.9L88.9,20.9L88.9,20.9L88.9,20.9L88.9,20.9z M88.3,20.2l0.1-0.1l0,0
			L88.3,20.2L88.3,20.2z M81.5,22.4h0.1c-0.1,0-0.1,0.1-0.2,0.2c0,0-0.3,0.1,0.1,0l0,0c-0.2,0.1-0.4,0.2-0.5,0.2L81.5,22.4z
			 M81.1,22.9c0.2-0.1,0.1,0,0.1,0S81,23,81.1,22.9c0.1,0.1,0,0.1-0.1,0.2l-0.2,0.1l-0.1,0.1l-0.2,0.1c0,0-0.1,0.1-0.1,0.1l-0.1,0.1
			C80.2,23.6,80.7,23.1,81.1,22.9L81.1,22.9z M80.4,23.7L80.4,23.7L80.4,23.7L80.4,23.7L80.4,23.7z M80.3,23.9L80.3,23.9h-0.1v-0.1
			C80.4,23.8,80.3,23.9,80.3,23.9L80.3,23.9z M79.4,23.3c0.2,0,0.2,0-0.1,0.1C79.2,23.4,79.2,23.4,79.4,23.3L79.4,23.3z M78.5,24
			L78.5,24L78.5,24L78.5,24z"/>
		<path class="st0" d="M204.9,154.3c-1.2-0.4-0.8-0.8-2.2-1c-0.3-0.1-0.5-0.3-0.6-0.6c0-0.6-0.3-1.2-0.8-1.5
			c-0.1-0.1-0.1-0.2-0.1-0.3c-0.3-1.7-0.6-3.4-0.7-5.1c-0.2-0.9-0.3-1.8-0.3-2.7c0-1.8-0.1-3.6-0.3-5.4c0-0.4,0-0.7,0-1.1
			c0-1.9,0-3.9,0-5.8c0-0.4,0.1-0.9,0.2-1.3c0.5-1.7,0.2-3.4,0.2-5.1c0-0.8,0.2-1.6,0.3-2.3s0.1-1.5,0.1-2.2c0-0.5,0.1-1,0.1-1.5
			c0.2-1.7,0.3-3.3,0.4-5c-0.1-2.8,0.8-5.4,1.2-8.1c0.1-0.6,0-1.3,0.1-2c0.2-1.4,0.6-2.8,0.8-4.2s0.3-3.1,0.4-4.6
			c0-0.7,0.8-1.2,2.6-1.5c0.7-0.1,1.4,0,2.1,0.3c0.2,0.2,0.4,0.3,0.6,0.5c0.7,0.6,1.4,1.2,2,1.8c0.3,0.3,0.6,0.7,0.8,1.1
			c0.1,0.1-0.1,0.2,0,0.3c1.4,1.5,1.3,2.8,1.3,4.2c0.1,0.6,0.2,1.1,0.4,1.7c0.3,0.8,0.8,1.5,1.4,2.1c0.3,0.5,0.5,1,0.6,1.5
			c0.1,0.4,0.2,0.7,0.2,1.1c0,0.1,0.1,0.2,0.1,0.2c0,1,0,1.9,0,2.9c0,0.3,0.1,0.5,0.1,0.8c0.1,0.2,0.1,0.4,0.1,0.6
			c0,0.7,0.1,1.4,0.2,2.1c0.2,1,0.2,2.1-0.1,3.1c-0.3,1.2-0.6,2.4-0.8,3.6c-0.1,0.7,0,1.4,0,2c-0.1,0.9-0.2,1.8-0.3,2.7
			c0,0.2-0.2,0.3-0.1,0.5c0.4,0.8,0.2,1.7-0.5,2.3c-0.1,0.1-0.1,0.2-0.1,0.3c0.5,0.9,0,1.7,0.1,2.6c0,1.7-0.2,3.4-0.6,5.1
			c-0.1,0.2-0.1,0.5,0,0.7c0.5,0.7,0.5,1.7,0.1,2.4c-0.1,0.4-0.1,0.8-0.1,1.1c-0.1,0.8-0.1,1.6-0.2,2.4c-0.1,1-0.1,2-0.3,3
			c-0.1,0.5-0.3,1.1-0.6,1.6c-0.4,1.1-1,2.2-1.7,3.1c-0.9,0.9-1.9,1.7-3,2.3C206.8,153.5,205.9,153.9,204.9,154.3z"/>
		<path class="st0" d="M109.8,145.4c-0.2-0.4-0.3-0.4-0.3-0.3c0,0.1,0,0.2,0,0.3c0,0.1,0,0.2-0.1,0s-0.2-0.2-0.3-0.1
			s-0.2,0.3-0.4,0.5s-0.1,0.1-0.3-0.2s-0.2-0.3-0.2-0.1c0,0.8-0.4,0.4-0.6,0.6c0,0-0.1-0.1-0.1-0.1s-0.1-0.2-0.1,0
			c0,0.3,0,0.2-0.2-0.1s-0.2-0.1-0.2,0.1s0,0.2,0,0.2c-0.2-0.2-0.1,0-0.1,0.2s-0.1,0.2-0.2,0s-0.1-0.2-0.2-0.2s-0.1,0,0,0.4l0,0l0,0
			c-0.1,0.1-0.1,0.3-0.2,0.2s-0.2-0.3-0.3-0.4s-0.1,0.1-0.2,0.2s0,0-0.1-0.1s-0.3-0.3-0.2,0.1s-0.3-0.3-0.3,0v0.2l0,0
			c-0.1-0.1-0.1,0-0.2,0.1s-0.1,0.3-0.3-0.2c0-0.1-0.1-0.1-0.1-0.1l-0.4,0.1c0,0-0.1,0-0.1,0c0.1,0.4,0,0.3-0.2,0.1s-0.1,0-0.1,0.1
			s0,0.2-0.2,0.1s-0.2-0.2-0.2,0.1c0,0.1,0,0.1-0.1,0c-0.3-0.5-0.3-0.3-0.3,0c0,0.1,0,0.1-0.1,0.1c-0.3-0.2-0.6-0.2-0.6,0.1
			c0,0.1-0.1,0.1-0.1,0c-0.2-0.3-0.3-0.1-0.3,0.1s0,0.3,0,0.2s-0.2,0.1-0.3,0s-0.2,0.1-0.2,0.3c0,0,0,0.1-0.1,0.1
			c-0.3,0.2-0.6,0.3-1,0.5s-0.3,0.1-0.2,0.9c-0.3-0.8-0.3-0.8-0.4-0.6c-0.1,0-0.1,0.1-0.2,0.1c-0.2,0.1-0.4,0.3-0.5,0.4
			c-0.2,0.2-0.1,0.2-0.1,0.8c0-0.1-0.1-0.1-0.1-0.2c-0.3-0.5-0.4-0.6-0.4-0.4s-0.1,0.3-0.3,0.2s-0.1,0.1,0.1,0.6
			c0,0.1,0.1,0.2,0.1,0.3c0.1,0.3-0.1,0.2-0.3-0.1s-0.2-0.4-0.3-0.4s-0.1,0.1-0.1,0.4s0,0.4-0.1,0.5s-0.3,0.1-0.7-0.4
			c-0.1-0.1,0,0,0,0.2l0.1,0.3c-0.1,0-0.2,0-0.3,0.1c-0.3,0.2-0.5,0.3-0.8,0.5c-0.3,0.1-0.5,0.3-0.7,0.5c-0.3,0.5-0.6,1.1-0.8,1.7
			c0,0.1,0,0.2,0,0.3c0,0.1,0,0.2-0.1,0.3s-0.1,0.9-0.1,1.3s0.1,0.6,0,0.7c0,0.1,0,0.1,0,0.2c0.1,0.2,0.1,0,0.2,0.4
			c0,0.1,0,0.2-0.1,0.3c0,0.2,0,0.3,0.1,0.4c0.2,0.4,0.2,0.6,0.1,0.6c-0.1,0.1-0.2,0.2-0.2,0.2c0,0-0.1,0.1-0.1,0.1
			c0,0.1,0,0.1,0,0.2c0,0.1,0.1,0.1,0.1,0.2l0.2,0.2c0,0.4-0.2,0.2-0.3,0.5c0.1,0,0.1,0,0.2,0.1c0.3,0.4,0.5,0.4,0.7,0.4
			s0.2,0.1,0.3,0.1l0.4,0.1h0.1c0,0.2,0,0.3,0,0.3s-0.1,0.1-0.2,0.1s-0.1,0.1,0.1,0.8c0,0.2-0.2,0-0.2,0.4l0.1,0.1
			c0.4,0,0.9,0.1,1.3,0.3c0.1,0.1,0.3,0.1,0.5,0.1c0.5,0.1,1.1,0.1,1.7,0.1c0.6,0,1.2-0.1,1.8-0.2c0.3,0,0.6,0,0.8-0.1
			c0.3-0.1,0.6-0.2,1-0.3c0.8-0.1,1.6-0.4,2.3-0.7c0.4-0.2,0.7-0.4,1.1-0.5c0.5-0.2,1.1-0.4,1.6-0.6c1-0.2,2-0.5,3-0.9
			c0.5-0.2,0.9-0.3,1.4-0.3c0.1,0,0.3,0.1,0.4,0.1s0.2-0.2,0.2-0.2c0.2-0.1,0.3-0.1,0.5-0.1c0.4-0.1,0.7-0.3,1.1-0.4
			c0.5-0.2,1.1-0.2,1.7-0.4c0,0,0.1-0.1,0.1,0s0.3,0.3,0.4,0.2s0.1-0.3,0.2-0.3c0.1,0,0.3-0.1,0.4-0.1c0.4-0.2,0.9-0.4,1.3-0.5
			s0.8-0.2,1.2-0.3s0.7-0.4,1.1-0.6s0.9-0.4,1.3-0.5l1.3-0.6l0.1-0.1c0.3-0.2,0.7-0.4,1.1-0.6c0.2-0.1,0.5-0.1,0.7-0.2h0.1
			c0-0.3,0.2-0.2,0.3-0.3s0.3-0.1,0.4-0.2c0.2-0.2,0.6-0.3,0.9-0.2c0.1,0,0.1,0,0.1-0.1c0-0.3,0.1-0.3,0.1-0.3
			c0.2-0.1,0.5-0.2,0.7-0.4c0.1-0.1,0.3-0.1,0.4-0.1c0.1,0,0.2,0.1,0.3,0.2s0.4,0.4,0.5,0.5s0.2,0.1,0.1-0.5c0-0.2-0.1-0.3-0.2-0.6
			c0.1,0.1,0.2,0.3,0.3,0.4c0.2,0.2-0.1-0.4-0.1-0.5s0,0,0.1,0s0.2-0.1,0.4-0.1l1.4-0.5c0.2,0,0.3-0.1,0.5-0.1
			c0.4-0.2,0.9-0.5,1.3-0.7c0.1,0,0.2-0.1,0.2-0.1l1.2-0.9c0.3-0.3,0.7-0.5,1-0.8c0.5-0.5,1-1,1.5-1.5c0.3-0.3,0.4-0.7,0.5-1.1
			c0.1-0.4,0-0.7-0.1-1.1c-0.2-0.7-0.1-1,0.1-0.7l0,0c0,0,0.1,0,0-0.2c-0.1-0.2-0.1-0.3-0.2-0.4c-0.1-0.2-0.3-0.4-0.4-0.5
			c-0.5-0.6-1.1-1.1-1.6-1.6c-0.7-0.7-1.4-1.3-2.2-1.9c-0.6-0.5-1.3-0.8-2.1-0.9c-0.1,0-0.1,0-0.2,0c-0.3,0-0.5,0-0.8,0
			s-0.5,0.1-0.8,0.1l-0.7,0.1c0,0-0.1,0.1-0.1,0c-0.1-0.1-0.3-0.1-0.5,0c-0.1,0.1-0.3,0.1-0.5,0.1c-0.3,0-0.6,0.1-0.9,0.1
			c-0.1,0-0.2,0.1-0.3,0c-0.1-0.1-0.2-0.1-0.3,0c0,0,0,0,0,0c-0.1,0.1-0.3,0.1-0.4,0c0,0,0,0,0,0c-0.1,0-0.1,0-0.2,0
			c-0.1,0-0.2,0.1-0.3,0.1l-1.2,0.2c-0.1,0-0.2-0.1-0.3,0c-0.4,0.1-0.6,0.3-1,0.3c-0.3,0-0.7,0.1-0.9,0.3L121,141
			c-0.1,0-0.2,0.1-0.2,0.1c-0.4,0.1-0.8,0.3-1.3,0.4s-0.9,0.4-1.4,0.6c-0.2,0.1-0.4,0.1-0.6,0.2s-0.5,0.2-0.7,0.2s-0.3,0-0.5,0.1
			c-0.3,0.2-0.7,0.3-1,0.4c-0.4,0.2-0.8,0.3-1.2,0.3c-0.1,0-0.1,0-0.1,0.1c-0.1,0.1-0.2,0.1-0.3,0.2c-0.2,0.1-0.4,0.1-0.6,0.1
			c-0.3,0-0.5,0.3-0.8,0.4c0,0-0.1,0.1-0.1,0.1c-0.5-0.2-0.8,0.4-1.3,0.3c-0.2,0-0.4,0.3-0.6,0.4c-0.1,0-0.1,0-0.2,0
			C109.9,144.7,109.7,144.9,109.8,145.4L109.8,145.4z M102.6,147.4L102.6,147.4L102.6,147.4L102.6,147.4z"/>
		<path class="st0" d="M107.4,109.1c0.1,0,0.1-0.1,0.2-0.1c0-0.1,0-0.1,0-0.2c0-0.1-0.1-0.1-0.1-0.2c-0.1-0.1-0.1-0.1-0.2-0.2
			c0-0.4,0.3-0.2,0.4-0.6c-0.1,0-0.2,0-0.2-0.1c-0.2-0.3-0.4-0.4-0.7-0.4c-0.1,0-0.2-0.1-0.4-0.1l-0.5-0.1h-0.2c0-0.2,0-0.3,0-0.3
			s0.2-0.1,0.2-0.1s0.1-0.2,0-0.9c0-0.2,0.2,0,0.2-0.4l-0.1-0.1c-0.5,0-1-0.1-1.5-0.2c-0.2-0.1-0.4-0.1-0.6-0.1
			c-0.6-0.1-1.3-0.1-1.9-0.1c-0.7,0-1.4,0.2-2.1,0.2c-0.3,0-0.7,0.1-1,0.1c-0.4,0.1-0.8,0.2-1.2,0.3c-1,0.2-1.9,0.4-2.8,0.8
			c-0.5,0.2-0.9,0.4-1.4,0.5c-0.7,0.2-1.3,0.4-2,0.6c-1.2,0.3-2.5,0.5-3.7,0.9c-0.6,0.2-1.1,0.3-1.7,0.4c-0.1,0-0.3-0.1-0.4-0.1
			s-0.2,0.2-0.3,0.3s-0.4,0.1-0.6,0.2c-0.4,0.1-0.9,0.3-1.3,0.4c-0.7,0.2-1.4,0.2-2,0.4c-0.1,0-0.1,0.1-0.2,0s-0.3-0.3-0.4-0.2
			s-0.1,0.3-0.2,0.3c-0.2,0-0.4,0.1-0.5,0.1c-0.5,0.2-1.1,0.4-1.6,0.5s-1,0.2-1.4,0.4s-0.9,0.4-1.3,0.6s-1.1,0.4-1.6,0.6l-1.6,0.6
			l-0.1,0.1c-0.4,0.2-0.9,0.5-1.3,0.7c-0.3,0.1-0.6,0.1-0.8,0.2c0,0-0.1,0-0.1,0c0,0.3-0.2,0.2-0.3,0.3c-0.2,0-0.4,0.1-0.5,0.2
			c-0.3,0.2-0.7,0.3-1.1,0.2c-0.1,0-0.2,0-0.1,0.1c0,0.3-0.1,0.3-0.2,0.3c-0.3,0.1-0.6,0.3-0.9,0.4c-0.2,0.1-0.3,0.1-0.5,0.1
			c-0.1,0-0.2-0.1-0.3-0.2s-0.4-0.3-0.6-0.5s-0.3-0.1-0.2,0.5c0,0.2,0.1,0.3,0.1,0.6c-0.1-0.1-0.2-0.3-0.3-0.4
			c-0.2-0.2,0.1,0.4,0,0.5s0,0-0.1,0S65,116,64.8,116l-1.7,0.6c-0.2,0-0.4,0.1-0.6,0.2c-0.5,0.2-1.1,0.5-1.6,0.8
			c-0.1,0-0.2,0.1-0.3,0.1l-1.5,0.9c-0.4,0.3-0.9,0.5-1.3,0.8c-0.7,0.5-1.3,1-2,1.6c-0.3,0.3-0.6,0.7-0.7,1.1
			c-0.1,0.4-0.1,0.7,0,1.1c0.1,0.7,0.1,1-0.2,0.8l0,0c0,0-0.1,0,0,0.3c0.1,0.2,0.1,0.3,0.2,0.5c0.1,0.2,0.3,0.4,0.4,0.5
			c0.6,0.6,1.2,1.1,1.7,1.6c0.8,0.7,1.6,1.3,2.4,1.9c0.7,0.5,1.5,0.8,2.4,0.8c0.1,0,0.1,0,0.2,0c0.3,0,0.6,0,0.9,0s0.6-0.1,0.9-0.1
			l0.8-0.1c0.1,0,0.1-0.1,0.2,0c0.2,0.1,0.4,0.1,0.6,0c0.2-0.1,0.4-0.1,0.6-0.1c0.3-0.1,0.7-0.1,1-0.1c0.1,0,0.2-0.1,0.4,0
			c0.1,0.1,0.2,0,0.3-0.1c0.1-0.1,0.3-0.1,0.5,0c0.1,0,0.1,0,0.2,0c0.1,0,0.2-0.1,0.3-0.1l1.4-0.2c0.1,0,0.2,0.1,0.3,0
			c0.2-0.1,0.5-0.1,0.7-0.2c-0.1,0.6-0.1,1.2-0.2,1.8c-0.1,0.8-0.1,1.5-0.3,2.3c-0.1,0.5-0.1,1.1-0.1,1.6s-0.1,0.9-0.2,1.4
			s-0.1,1.2-0.2,1.7c0,0.2-0.1,0.5-0.1,0.7c0,0.4,0,0.7-0.1,1.1c0,0.3-0.2,0.7-0.2,1s-0.1,0.7-0.1,1s0,0.4,0,0.7
			c-0.1,0.3-0.1,0.7,0,1c0.1,0.1,0,0.2-0.1,0.4c-0.1,0.2-0.1,0.4-0.1,0.5c0,0.3,0,0.6,0,0.8c-0.1,0.9-0.2,1.8-0.4,2.6
			c0,0.1,0,0.3,0,0.4c0,0.1,0,0.3,0,0.4c-0.1,1-0.3,2-0.4,3.1c-0.1,0.5-0.1,0.9-0.1,1.4c-0.2,0.6-0.2,1.1-0.1,1.7
			c0,0.2,0,0.4-0.1,0.5c-0.1,0.1-0.1,0.2-0.1,0.3c0,0.1,0.2,0.2,0.2,0.3s-0.1,0.2-0.1,0.3s0.1,0.4-0.1,0.5s-0.1,0.2-0.1,0.3
			c0.1,0.5,0,1.1-0.2,1.6c0,0.1,0,0.2,0,0.2c0.2,0.2,0,0.5,0,0.7s-0.1,0.2-0.1,0.3s0,0.2,0,0.2l-0.7-0.1c0.1,0.6,0.1,0.7,0.6,1.2
			v0.1c0,0-0.1,0.1-0.1,0.1c-0.6,0.1-0.8,0.4-0.6,0.8c0.2,0.4,0.2,0.8,0.1,1.2c-0.1,0.2,0.1,0.3,0.5,0.4l0,0c0,0.2,0,0.4-0.1,0.5
			c0,0.1,0,0.3,0,0.4c-0.2,0.1-0.3,0.2-0.3,0.4c0,0.2,0.1,0.4,0.2,0.6c0,0.2,0,0.5,0,0.8c-0.1,0.5-0.2,1.1-0.2,1.6
			c0,0.3,0,0.5,0,0.8c0,0.5,0,1-0.1,1.4c0,0.1-0.1,0.2,0.1,0.4c0,0.1,0,0.1,0,0.2c0,0.3-0.1,0.5-0.2,0.8c-0.1,0.1-0.1,0.4,0,0.5
			c0.1,0.1,0.1,0.3,0,0.4c0,0-0.1,0.1-0.1,0.1c-0.2,0.1-0.1,0.2-0.1,0.3c0,0.5,0,1,0,1.5c0,0.3,0.2,0.6-0.1,0.9c0,0,0,0.1,0,0.1
			c0.2,0.4,0.2,0.8,0,1.1c0,0.1,0,0.1,0,0.2s0.1,0.1,0.1,0.2s0,0.3,0,0.5s0.3,0.4,0.2,0.6c0,0,0,0.1,0.1,0.1
			c0.4,0.1,0.3,0.2,0.4,0.4c0.1,0.2,0.3,0.4,0.5,0.5c0.2,0.1,0.3,0.1,0.5,0l0.1-0.1c0.3,0.2,0,0.3-0.1,0.4s0.1,0.2,0.4,0.2h0.1
			c0.1,0.1,0.1,0.2,0.2,0.3c0.1,0.2,0.2,0.4,0.2,0.5c0.1,0.7,0.7,1.2,1.1,1.9c0.4,0.2,0.6,0.5,0.6,0.9c0,0,0.1,0.1,0.2,0.1
			c0.2,0,0.1-0.4,0.5-0.3c0.1,0.2,0.1,0.4,0.2,0.5c0.1,0.2,0.3,0.3,0.4,0.2c0.4,0,0.6,0.1,0.6,0.4s0.1,0.7,0.1,1c0,0.2,0,0.4,0,0.6
			s0.1,0.1,0.2,0.1c0.1,0,0.1,0,0.2-0.1c0.1-0.1,0.2-0.2,0.3-0.4c0.4,0.5,0,1,0.3,1.5c0.1-0.2,0.1-0.4,0.2-0.5
			c0.4-0.4,0.6-1,0.7-1.6c0.1-0.3,0.2-0.6,0.3-0.8l0.4-1.2l0.1-0.4c0.2,0.1,0.2,0.2,0.2,0.3s0,0.5,0,0.7c0,0.4,0.1,0.4,0.8,0.7
			c0.2,0.3-0.1,0.6,0.2,1c0-0.1,0.1-0.2,0.1-0.3c0.3-1.2,0.4-2.5,0.9-3.7c0.2-0.4,0.3-0.9,0.3-1.3c0.3-1.7,0.7-3.3,0.9-5
			c0.3-1.9,0.5-3.8,0.7-5.7c0.1-0.6,0.1-1.1,0.2-1.7s0.3-1.2,0.4-1.8c0-1.2,0.1-2.3,0.4-3.4c0-0.1,0-0.2,0-0.3c0-0.2,0-0.4,0-0.5
			c0.3-1.5,0.4-3,0.4-4.5c0-0.4,0.1-0.8,0.2-1.1c0.2-1.5,0.2-3,0.5-4.4c0.3-2.4,0.8-4.7,1.1-7.1c0.2-1.9,0.6-3.7,0.9-5.5
			c0.1-0.4,0.2-0.8,0.2-1.2c0.1-1.2,0.2-2.4,0.3-3.6s0.3-2.3,0.5-3.4h0.1c0.1-0.8,0.2-1.6,0.3-2.4c0.1-0.9,0.1-1.7-0.1-2.6
			c0,0,0-0.1,0-0.1c0.3-0.1,0.7-0.2,1.1-0.3s0.9-0.3,1.3-0.4c0.4-0.1,0.8-0.3,1.2-0.5c0.6-0.2,1.2-0.3,1.8-0.4h0.1c0,0,0.1,0,0.1,0
			l1-0.4l0.8-0.3c0.1,0.1,0.2,0.2,0.2-0.1l0.1-0.1c0.1,0.1,0.2,0.2,0.2,0s0-0.1,0-0.1l0.2-0.1h0.1l0.3-0.1l0.1,0.2
			c0,0.1,0.1,0.1,0.1,0.1l0.4-0.1c0,0,0.1,0,0.1,0c0-0.4,0.1-0.3,0.3-0.2s0.1,0,0.2-0.1s0.1-0.2,0.2-0.1s0.2,0.2,0.2-0.1
			c0-0.1,0.1-0.1,0.1,0c0.3,0.5,0.3,0.3,0.4,0c0-0.1,0-0.1,0.1-0.1c0.3,0.2,0.6,0.2,0.8-0.2c0-0.1,0.1-0.1,0.1,0
			c0.2,0.3,0.3,0.1,0.3-0.1s0-0.3,0.1-0.2s0.2-0.2,0.3,0s0.2-0.2,0.3-0.3c0,0,0.1-0.1,0.1-0.1c0.4-0.2,0.8-0.3,1.2-0.5
			s0.3-0.1,0.3-0.6l0.1-0.1c0.2,0.4,0.2,0.4,0.3,0.3c0.1,0,0.1-0.1,0.2-0.1c0.2-0.1,0.5-0.3,0.7-0.4c0.1-0.1,0.2-0.2,0.2-0.3
			l0.3-0.1c0.2,0.3,0.2,0.3,0.3,0.1c0-0.1,0.1-0.1,0.1-0.2h0.1c0.1,0,0.1,0,0.2,0c0.1,0,0.1,0,0-0.2c0.1-0.1,0.3-0.2,0.4-0.2
			c0,0,0,0,0.1,0l0,0c0.2,0,0.4-0.1,0.6-0.3c0,0,0.1,0,0.1,0v-0.5c0.1,0.1,0.2,0.2,0.2,0.3c0.1,0.1,0.1,0,0-0.2l-0.1-0.3
			c0.1,0,0.2,0,0.3-0.1c0.3-0.2,0.7-0.3,1-0.5c0.3-0.1,0.6-0.3,0.8-0.5c0.4-0.5,0.8-1.1,1.1-1.8c0-0.1,0.1-0.2,0.1-0.3
			c0-0.1,0.1-0.2,0.1-0.3c0.2-0.2,0.2-0.9,0.2-1.3c-0.1-0.5,0-0.6,0.1-0.7c0-0.1,0-0.1,0-0.2c-0.1-0.2-0.1,0-0.2-0.4
			c0-0.1,0.1-0.2,0.1-0.3c0-0.2,0-0.3-0.1-0.5c-0.2-0.4-0.2-0.6-0.1-0.6S107.3,109.2,107.4,109.1z M96.6,120.8L96.6,120.8
			L96.6,120.8z"/>
		<path class="st0" d="M143.6,146.5c-0.1-1.9-0.1-3.8-0.4-5.7c-0.4-3.2-1.6-6.2-1.6-9.5c0-0.3-0.1-0.6-0.2-0.9
			c-0.1-0.5-0.2-1-0.3-1.5c0-1.3-0.9-6.3-1.5-10c-0.7-3.9-1.5-7.6-2.2-11.3c-0.2-0.8-0.3-1.8-0.4-2.7c0,0,0-0.1,0-0.1
			c0,0,0-0.1,0-0.1c0,0,0-0.2,0-0.3s0-0.1,0-0.1s0,0.1,0-0.2c0-0.3,0-0.6,0-0.9c0-0.4,0-0.6-0.1-0.5s0,0-0.1,0.1l0,0v0.7
			c0,0.1,0,0.2,0-0.1s0-0.5,0-0.5c0-0.1,0-0.3,0-0.4c0-0.2,0-0.3,0-0.5c0-0.1-0.1-0.4-0.1-0.3s-0.1-0.2-0.1-0.7c0-0.1,0-0.2,0-0.2
			c0-0.2,0-0.5-0.1-0.7s0-0.1,0-0.1s-0.1-0.2-0.2-0.3s0-0.2-0.1-0.2s-0.1-0.2-0.1-0.5s0-0.1-0.1-0.3s-0.1-0.3-0.1-0.5
			c0,0,0-0.1,0-0.1c0-0.1-0.1,0-0.1,0s-0.2-0.2-0.4-0.1s0,0,0-0.1l0,0h-0.1c0,0,0-0.1,0,0s-0.1,0.1-0.1,0s-0.1,0-0.1,0.1
			s-0.1,0.1-0.1,0.1l0,0c0,0.3-0.1,0.7-0.1,0.8s0-0.3,0-0.3s0,0.1,0,0.3v-0.5l-0.1,0.8c0-0.2,0-0.3,0-0.4c0,0.1,0,0.1,0,0.1
			c0,0.6-0.1,0.7-0.1,0.6s0-0.1,0-0.1s0,0,0-0.4c0,0.2,0,0.4-0.1,0.6c0,0.1,0,0.1-0.1,0.2c-0.1-0.1-0.3-0.2-0.4-0.4
			c-0.1-0.1-0.2-0.2-0.2,0s0,0.1-0.1,0.1s0,0,0-0.1s0-0.1,0,0.1H134c0,0-0.1-0.2-0.1-0.4s0-0.2-0.1-0.4v0.2l0.2,0.8
			c-0.1,0-0.2-0.1-0.3,0s-0.1,0.1-0.2-0.1s-0.1-0.1-0.1-0.1s-0.2,0.1-0.2,0.1s-0.3-0.1-0.4,0s-0.4,0-0.5,0.1s-0.1,0-0.2-0.4
			c-0.1-0.2-0.1-0.3-0.1-0.2c0,0.1,0,0.2,0,0.2c0,0.2,0,0.4-0.1,0.1c0-0.1,0,0,0,0.1s0,0.2-0.1,0.1s-0.2-0.2-0.3,0s-0.1,0-0.1,0
			c-0.1-0.2-0.1-0.3-0.1-0.2s0,0.4-0.1,0.6s0,0.1-0.1,0s-0.2-0.3-0.2-0.1s-0.1-0.1-0.1-0.2s-0.1-0.2-0.1-0.1c0.1,0.5,0,0.3-0.1,0.4
			l0,0c-0.1-0.2-0.1-0.1-0.1,0s-0.1-0.4-0.1-0.4s0,0,0,0s0,0.2,0,0.3c0,0.3-0.1,0.5-0.3-0.1c0-0.1-0.1-0.1-0.1-0.1s-0.1,0.1-0.2,0.1
			c-0.1,0-0.2,0-0.3,0.1c0,0,0,0.2-0.1,0s0,0.2-0.1,0.2s-0.2-0.4-0.2-0.3s0,0,0,0s-0.1,0.4-0.2,0.5l0,0c0,0.2-0.1,0.2-0.3-0.1
			s-0.2-0.3-0.2,0.1c0,0.1,0,0.2-0.1,0.1c-0.2-0.3-0.2-0.2-0.3-0.2s-0.1,0,0,0.3s0,0.2,0,0.1c-0.2-0.4-0.3-0.2-0.4-0.2
			c0,0.1,0,0.1,0,0.2l0.2,0.2l-0.1,0.2c0,0-0.1,0-0.2-0.2s-0.2-0.3-0.2-0.3c-0.1,0.1-0.1,0.1-0.2,0.1c0,0-0.1,0,0,0.4s0,0.3,0,0.3
			h-0.3l0,0c-0.1,0.3-0.2,0.3-0.3,0.1V101c0-0.1,0-0.2-0.1-0.2c0,0-0.1-0.1-0.1,0s-0.3,0.3-0.3,0.8l-0.2-0.8v-0.1
			c0,0.2,0,0.4,0.1,0.6c0.1,0.5,0,0.5-0.1,0.2c0-0.1-0.1-0.2-0.1-0.2c0-0.1,0,0.1,0,0.4l0.1,0.3c0,0-0.1-0.1-0.1-0.2
			c0-0.1-0.1-0.4-0.1-0.5s0,0-0.1,0c0,0-0.1,0.1-0.1,0.1l-0.3,0.2c0,0-0.1,0.1,0,0.4c0,0.1,0,0.2,0,0.2c-0.1,0.1-0.2,0.2-0.4,0.2
			c0,0-0.1,0-0.2-0.4c0-0.1-0.1-0.2-0.1-0.2c-0.1,0-0.2-0.2-0.2,0.4c0.1,0.3,0.2,0.1,0.3,0.3c0,0.1-0.1,0.2-0.2,0.2
			c0,0-0.1-0.1-0.2-0.5s-0.1-0.3-0.1-0.3c0,0-0.1,0.1-0.1,0.1c0,0.1,0,0.2,0,0.3l0.1,0.3c-0.1,0-0.1,0-0.2-0.4
			c-0.1-0.2-0.1-0.2-0.1-0.2c-0.1,0.2-0.2,0.2-0.4,0.2l-0.1-0.7l-0.2-0.8c0.1,0.4,0,0.8-0.1,1.2c0-0.2-0.1-0.3-0.2-0.5
			c-0.1-0.1-0.1-0.1-0.2-0.1c-0.1,0-0.2,0.1-0.2,0.2c0,0.1-0.1,0.3-0.1,0.4s0,0.4,0,0.5s-0.1-0.1-0.2,0s-0.2,0.2-0.2,0.6
			c0,0.1-0.1,0.1-0.1,0.2s-0.1,0.2-0.2,0.4s0,0.2-0.1,0.2s-0.1,0.2,0,0.5c-1.5,4.5-1.6,4.9-3.2,9.4l-2.5,7l-1.3,3.6l-0.8,2.1
			c-0.4,1.1-0.9,2.1-1.2,3.2c-1,3.2-1.9,6.4-2.9,9.6s-2.1,6.1-3.2,9.1h-0.1c-0.7,2.1-1.5,4.3-2.2,6.4c-0.8,2.3-1.3,4.6-1.5,7
			c-0.2,1.3-0.2,2.5-0.1,3.8c0.1,0.4,0,0.9-0.2,1.3c-0.9,2-0.5,4.3-0.6,6.4c0,1.3,0.5,2.5,1.5,3.3c1,0.7,1.7,1.8,1.8,3
			c0,0.1,0.1,0.3,0.2,0.4c0.2,0.1,0.5,0.3,0.6,0.2c1.1-0.6,2.4-0.9,3-2c1.8-3.4,3.7-6.8,5.4-10.3c1.2-2.4,2.2-4.8,3.2-7.3
			c1.5-3.9,3-7.8,4.1-11.8s2.5-7.7,3.8-11.5l2.3-6.8l0.4-1.3l0,0l0,0c0,0,0.1,0.1,0.1,0.1c0,0,0-0.1,0-0.1c0-0.2,0-0.4,0-0.6
			c0-0.1,0-0.1,0-0.2v0.1c0,0.2,0,0.4,0,0.5l0,0c0,0.1,0,0.1,0.1,0.1h0.1h0.1l0,0l0,0l0.1,0.2l1,3.6c0.7,2.6,1.5,5.2,2.3,7.8
			c1.1,3.4,2.2,6.9,3.2,10.3c1.3,4.2,3.1,8.2,5.1,12.1c0.3,0.6,0.8,1.1,1.3,1.5c0.2,0.1,0.4,0.2,0.6,0.1c0.2-0.1,0.4-0.2,0.5-0.4
			c0.1-0.2,0.1-0.4,0.1-0.6c-0.4-2,0.2-3.9,0.9-5.9c0.2-0.6,0.4-1.2,0.5-1.9C144,152.8,144,149.6,143.6,146.5z M130,101.2L130,101.2
			z M128.5,101.6c0.2-0.1,0.4-0.4,0.7-0.2l0,0l-0.9,0.2C128.4,101.6,128.4,101.6,128.5,101.6L128.5,101.6z M126.7,100.7L126.7,100.7
			L126.7,100.7L126.7,100.7L126.7,100.7z M124.7,101.5c0,0.4,0,0.5-0.2,0.4C124.4,101.6,124.5,101.6,124.7,101.5L124.7,101.5z
			 M124.5,101.9L124.5,101.9C124.5,102,124.5,102,124.5,101.9L124.5,101.9z"/>
		<polygon class="st0" points="133.3,98.8 133.3,98.8 133.3,98.8 		"/>
		<path class="st0" d="M128.1,99.9c0.1,0.3,0.2,0.1,0.2,0.2s-0.1-0.3-0.1-0.3S128.1,99.6,128.1,99.9z"/>
		<path class="st0" d="M131.9,98.6c0-0.1,0-0.2,0-0.3c0-0.1-0.1-0.2-0.1-0.1c0,0.1,0,0.2,0,0.3C131.9,98.5,131.9,98.6,131.9,98.6z"
			/>
		<path class="st0" d="M130.8,98.7v-0.3c0-0.1-0.1-0.2-0.1-0.2c0,0.1,0,0.1,0,0.2L130.8,98.7z"/>
		<path class="st0" d="M122.5,101.5c0,0,0-0.1,0-0.1v-0.2c0,0-0.1,0-0.1,0c0,0.1,0,0.1,0,0.2C122.4,101.4,122.4,101.5,122.5,101.5z"
			/>
		<path class="st0" d="M126,100.8c0-0.1-0.1-0.1-0.1-0.2c0,0,0,0,0,0.1c0,0.1,0,0.2,0,0.3c0,0,0,0.1,0.1,0.1c0,0,0,0,0.1,0V101
			L126,100.8z"/>
		<path class="st0" d="M130.6,98.6L130.6,98.6c0,0-0.1-0.2-0.1-0.2s-0.1-0.1-0.1-0.1c0,0,0,0.1,0,0.2
			C130.5,98.5,130.5,98.5,130.6,98.6z"/>
		<path class="st0" d="M126.3,100.9v-0.3c0,0-0.1-0.1-0.1-0.1c0,0,0,0.1,0,0.2L126.3,100.9z"/>
		<path class="st0" d="M123.7,102v-0.2c0,0,0-0.1,0-0.1c0,0.1,0,0.1,0,0.2V102z"/>
		<path class="st0" d="M124.1,101.9c0-0.1,0-0.1,0-0.2l-0.1-0.2v0.2C124,101.8,124,101.9,124.1,101.9z"/>
		<path class="st0" d="M133.2,98.6l-0.1-0.2l0,0v0.3C133.1,98.7,133.2,98.7,133.2,98.6z"/>
		<path class="st0" d="M121.1,101.9c0,0,0-0.1,0-0.1c0,0,0-0.1,0-0.1C121.1,101.7,121.1,101.8,121.1,101.9
			C121.1,101.8,121.1,101.9,121.1,101.9z"/>
		<path class="st0" d="M123.1,101v-0.2c0,0,0-0.1,0-0.1c0,0,0,0.1,0,0.2C123.1,100.9,123.1,100.9,123.1,101z"/>
		<path class="st0" d="M127.7,98.8c0,0,0-0.1,0-0.1v-0.1V98.8C127.7,98.7,127.7,98.8,127.7,98.8z"/>
		<path class="st0" d="M128,98.7c0,0,0-0.1,0-0.1v-0.1V98.7L128,98.7z"/>
		<path class="st0" d="M127.4,98.9L127.4,98.9L127.4,98.9L127.4,98.9L127.4,98.9z"/>
		<polygon class="st0" points="128.9,98.4 128.9,98.3 128.9,98.4 		"/>
		<path class="st0" d="M125.1,100.6C125.1,100.6,125.1,100.5,125.1,100.6v-0.1V100.6C125.1,100.6,125.1,100.6,125.1,100.6z"/>
		<path class="st0" d="M121.9,100.7L121.9,100.7c0,0,0,0.1,0,0.1V100.7z"/>
		<path class="st0" d="M123,101.1L123,101.1L123,101.1L123,101.1z"/>
		<path class="st0" d="M133.2,98.8L133.2,98.8L133.2,98.8L133.2,98.8z"/>
		<path class="st0" d="M124.9,100.5L124.9,100.5L124.9,100.5L124.9,100.5z"/>
		<path class="st0" d="M200.7,79.6c0-0.1-0.1-0.2-0.3-0.2c0,0,0,0-0.1,0c-0.2,0-0.3,0.2-0.5,0.1c-0.4,0-0.7,0-1.1,0.2l-0.3,0.1v-0.6
			c-0.2,0.1-0.3,0.1-0.5,0.2l-1.6,0.4l-2.3-0.2c-0.1,0.1-0.4-0.2-0.4,0.2l0,0l0,0l0,0c-0.1,0.1-0.1,0.3,0,0.7
			c-0.1-0.3-0.2-0.5-0.3-0.5l-0.3,0.1l0,0c0.1,0.5-0.1,0.2-0.1,0.2s-0.1-0.2-0.1-0.1c0.1,0.4-0.1,0.2-0.2,0.3c0,0.1-0.1,0.1-0.1,0.2
			c0,0,0,0.1,0,0.3l-0.4,0.1c-0.2-0.1-0.2,0-0.3,0l-0.1,0.1l-0.8,0.2l0,0l-5.2,1.5l0,0c0-0.1,0-0.1-0.1-0.2c0-0.1-0.1-0.1-0.1-0.2
			c-0.1,0.1-0.1,0.1-0.2,0.2c0,0.1,0,0.1,0.1,0.2l0.1,0.1h-0.1v-0.1v-0.1v0.1l0,0h-0.1v-0.1c0,0-0.1,0-0.1,0c0,0,0,0.1,0,0.1L185,83
			c-1.1,0.3-2.3,0.6-3.4,0.9l-10.3,3.2c-0.6,0.2-1.2,0.3-1.8,0.5l-0.6,0.2l-0.3,0.1l-0.6,0.2l-1.3,0.5l-2.5,0.9
			c-1.5,0.5-3,1.1-4.5,1.7c-2.4,0.9-4.8,1.9-7.1,2.9c-1,0.4-2,1-2.9,1.7c-0.5,0.3-0.8,0.8-0.9,1.3c-0.1,0.8-0.6,1.2-1.3,1h-0.1
			c-0.2,0-0.3,0.1-0.3,0.3c0,0.2,0.2,0.3,0.3,0.4c0.3,0.2,0.6,0.3,0.9,0.4c1.3,0.4,2.7,0.7,4,1c2,0.5,4,0.8,6,0.9
			c2.2,0.3,4.4,0.2,6.6-0.1c0.2,0,0.4-0.1,0.6-0.1c0.9-0.2,1.8-0.3,2.7-0.4s1.9-0.4,2.8-0.6l0.6-0.1c0.2,0,0.3-0.1,0.5-0.1h0.4
			c0.1,0,0.1-0.1,0.2,0s0.3,0.1,0.5,0.1c0.2,0,0.3-0.1,0.5-0.1c0.3,0,0.5,0,0.7,0s0.2-0.1,0.2,0.1s0.1,0.1,0.2,0s0.3-0.2,0.2,0
			s0,0.1,0,0.1s0.1,0,0.2,0c0.1,0,0.3,0,0.4,0.1c0,0-0.1,0.1-0.1,0.1l-0.1,0.1c-0.2,0.3-0.1,0.3-0.5,0.7c-0.2,0.1-0.3,0.3-0.4,0.5
			l-0.3,0.4c0,0,0,0.1,0,0.1c-0.1,0.2-0.3,0.4-0.4,0.6l-2.2,4l-1.2,2.1l-1.5,2.6c-0.3,0.5-0.7,1-1,1.5c-0.6,1.2-1.3,2.3-1.9,3.5
			c-0.7,1.4-1.5,2.7-2.3,4c-0.1,0.2-0.2,0.3-0.2,0.5c-0.2,0.4-0.4,0.8-0.6,1.2c-0.3,0.6-0.7,1.2-1.1,1.8c-0.5,0.9-1,1.9-1.5,2.9
			c-0.1,0.2-0.2,0.3-0.3,0.5c-1.1,1.3-1.6,3.1-2.6,4.5c-0.5,0.8-0.8,1.6-1.1,2.4c-0.1,0.2-0.2,0.4-0.4,0.6c-0.7,0.6-1,1.5-0.9,2.3
			c-0.4,0-0.7,0.1-0.7,0.5c0,0.2,0,0.4,0,0.7c0,0.2,0,0.4-0.3,0.4s-0.5,0.3-0.6,0.6c-0.2,0.6-0.4,1.3-0.7,1.9
			c-0.1,0.3-0.3,0.5-0.6,0.5c-0.3,0-0.5,0.2-0.5,0.5c0.1,0.5-0.1,1-0.4,1.5l-0.4,0.6c-0.1,0.1-0.1,0.2-0.2,0.3s-0.2,0.4-0.3,0.6
			c-0.1,0.2-0.3,0.3-0.4,0.4c-0.2,0.1-0.4,0.2-0.4,0.5c0,0.5-0.1,0.6-0.6,0.8s-0.6,0.8-0.6,1.2c0,0.2,0,0.5-0.1,0.5
			c-0.6,0.4-0.5,0.8-0.6,1.2c-0.1,0.6-0.4,1.1-0.9,1.4c-0.2,0.2-0.5,0.4-0.7,0.6c-0.4,0.5-0.5,0.8-0.1,0.9c-0.2,0.7-0.5,1.3-0.9,1.9
			c-0.4,0.4-0.9,0.9-1.2,1.3c-0.2,0.4-0.4,0.8-0.6,1.3c-0.1,0.1-0.2,0.2-0.3,0.3c-0.6,0.6-1.2,1.3-1,1.7s-1.2,1.3-1.1,1.8
			c0,0.1,0.1,0.2,0.1,0.2l0,0l-0.2,0.3l0,0c-0.3,0.3-0.5,0.7-0.6,1.2l0.3,2c-0.1,0-0.2-0.1-0.2,0c-0.1,0.2-0.3,0.3-0.4,0.5
			c-0.4,0.5-0.6,1.1-0.6,1.8c0,0.2,0,0.4-0.2,0.4c-0.1-0.2-0.1-0.3-0.2-0.5s-0.2-0.4-0.2-0.3c-0.1,0.4,0,0.8,0.1,1.2
			c-0.1,0.1-0.2,0.2-0.3,0.4l0,0c-0.1-0.1-0.2-0.1-0.1,0.2l-0.1,0.1c-0.2,0.5-0.5,0.9-0.8,1.4c-0.1,0.1-0.1,0.3-0.1,0.4
			c0,0.1,0.1,0.2,0.1,0.4c0,0.1,0.1,0.1,0.1,0.2c0.5,0.2,0.9,0.5,1.2,0.9c0.1,0.1,0.2,0.2,0.3,0.2c0.8,0.5,1.7,0.9,2.6,1.1v0.3
			c0.5,0,0.9-0.1,1.4-0.3c0.7,0,1.4-0.1,2.1-0.3c0.5-0.2,1.1-0.3,1.6-0.4c0.3-0.1,0.6-0.2,0.8-0.4l0.6-0.3l6.1-1.6
			c1.5-0.2,2.8-0.8,4-1.8c-0.1,0.9-0.1,0.9,1,0.5c0.5-0.1,0.9-0.2,1.4-0.4c1.6-0.5,3.2-0.9,4.7-1.4c0.5-0.1,0.9-0.3,1.4-0.5
			c0.4-0.2,0.4-0.4,0.6-0.7c0.1,0.1,0.2,0.1,0.2,0.2c0.3,0.5,0.7,0.6,1.1,0.3c0.4-0.3,0.8-0.4,1.3-0.4c0.3,0,0.3-0.2,0.3-0.6
			c0-0.1,0-0.2,0-0.3c0.2-0.3,0.5-0.4,0.8-0.2c0.1,0.1,0.2,0.1,0.2,0.2c0.2,0.4,0.4,0.4,0.6,0.3c0.3-0.1,0.6-0.3,0.7-0.6
			c0.1-0.4,0.4-0.5,0.8-0.7c0.6-0.3,1.3-0.3,1.9,0.2c0.1,0.1,0.2-0.1,0.1-0.3l-0.1-0.3c0.4-0.1,0.7-0.1,1-0.2l3.4-1
			c1-0.3,2-0.6,2.9-1c1.6-0.7,3.1-1.6,4.6-2.5c0.2-0.1,0.3-0.2,0.4-0.4c0.2-0.1,0.3-0.3,0.5-0.4c0.8-0.3,1.2-1.1,1.7-1.6
			c0.1-0.6,0.5-0.7,0.8-0.9c0,0,0-0.1,0.1-0.2s-0.4,0.1-0.4-0.4c0.2-0.1,0.4-0.2,0.5-0.4c0.1-0.1,0.2-0.3,0.1-0.5
			c-0.2-0.4,0-0.6,0.2-0.7l1.1-0.4c0.2-0.1,0.4-0.1,0.6-0.2c0,0,0.1-0.1,0.1-0.2c0-0.1-0.1-0.1-0.1-0.2c-0.2-0.1-0.3-0.1-0.5-0.1
			c0.5-0.5,1.1-0.4,1.6-0.8c-0.3,0-0.5,0.1-0.6,0c-0.6-0.2-1.3-0.3-1.9-0.1c-0.3,0-0.7,0-1,0l-1.5,0.1h-0.4c0-0.2,0.1-0.3,0.2-0.3
			l0.8-0.2c0.4-0.1,0.5-0.2,0.5-1c0.3-0.2,0.7-0.1,1-0.5c-0.2,0-0.3,0-0.4,0c-1.5,0.1-2.9,0.4-4.4,0.4c-0.5,0-1,0-1.6,0.1
			c-1.9,0.2-3.9,0.4-5.8,0.7c-2.2,0.3-4.4,0.8-6.6,1.2c-1,0.2-2.1,0.4-3.1,0.6c-1.3,0.3-2.5,0.6-3.8,0.9l-1.1,0.3l-0.5,0.1H164h-0.4
			c-0.3,0-0.6,0.1-0.8,0.2c-0.3,0.1-0.6,0.2-0.9,0.2c-0.4,0.1-0.8,0.2-1.1,0.2l0.1-0.1c0.2-0.4,0.6-0.8,0.8-1.1
			c0.2-0.3,0.4-0.6,0.6-0.9c0.1-0.2,0.3-0.5,0.6-0.6h0.1c0,0,0.1-0.1,0.2-0.2c0.1-0.1,0.3-0.3,0.4-0.4c0.2-0.4,0.3-0.8,0.5-1.2
			c0.3-0.6,0.7-1.1,1-1.7l2.1-3.8c1.1-1.9,2.3-3.7,3.4-5.6c0.1-0.2,0.2-0.3,0.3-0.5c0.3-0.3,0.7-0.4,0.8-0.7c0.1-0.3,0.2-0.7,0.3-1
			c0.3-0.5,0.6-1,0.9-1.5l2.7-4.8c0.8-1.4,1.6-2.7,2.3-4s1.4-2.8,2.1-4.2c0.8-1.6,1.7-3.2,2.6-4.7l2.7-4.9l0.2-0.3l1.1-2.1l2.1-3.9
			c0.8-1.5,1.8-3,2.6-4.6c0.1-0.2,0.3-0.4,0.3-0.6c0.2-0.8,0.6-1.6,1.1-2.2c0.5-1,1.1-1.9,1.6-2.9c1-2,2.1-4,3.4-5.8
			c0.2-0.3,0.5-0.8,0.4-0.8c-0.3-0.2,0.1-0.7,0.4-1.2v-0.8h0.1l0,0c0-0.2,0-0.4-0.1-0.5v-0.4c0.1,0.2,0.2,0.5,0.3,0.7
			c0-0.4,0-0.7,0.2-0.6s0-0.1,0-0.4c0.2-0.2,0.3-0.4,0.4-0.6c0-0.2,0.1-0.4,0.3-0.5c0.1-0.1,0.2-0.3,0.3-0.4
			c0.1-0.2,0.2-0.5,0.1-0.8c-0.1-0.2,0-0.5,0.1-0.7c0.2-0.2,0.2-0.7-0.1-1.6c-0.1-0.4-0.1-0.5,0-0.6s0.2-0.1,0.4-0.1v0.1
			c0.1-0.1,0.3-0.2,0.4-0.2s0-0.1,0-0.1C200.7,79.8,200.7,79.7,200.7,79.6z M139.7,166.9l0.1,0.3l-0.1,0.1
			C139.6,167.1,139.6,167,139.7,166.9L139.7,166.9z M193.6,80.6l0.1-0.2L193.6,80.6L193.6,80.6z"/>
		<path class="st0" d="M191,81.2L191,81.2L191,81.2L191,81.2z"/>
	</g>
</g>
</svg>
