<svg xmlns="http://www.w3.org/2000/svg" viewBox="0 0 216.23 186.02"><defs><style>.cls-1{fill:#171717;}</style></defs><title>razitazi-logo</title><g id="Layer_2" data-name="Layer 2"><g id="Layer_1-2" data-name="Layer 1"><g id="Layer_3" data-name="Layer 3"><path class="cls-1" d="M171.67,17.1c-.08-.07-.25-.16-.18-.2s-.05-.29.13-.39-.06-.29-.13-.43a.33.33,0,0,1,0-.14V14.41c0-.53,0-.44-.69-.81.83,0,.83,0,.78-.19a1.22,1.22,0,0,1,0-.27,8.27,8.27,0,0,0-.12-1c-.08-.3-.12-.3-.7-.59a.86.86,0,0,1,.23-.05c.6,0,.74-.14.56-.32s-.2-.35-.08-.51-.08-.15-.54-.22l-.33,0c-.28-.1-.15-.32.25-.33s.5-.06.47-.16,0-.23-.37-.34-.37-.24-.42-.38,0-.47.67-.6c.12,0,0-.09-.23-.1h-.36a2.2,2.2,0,0,0,.07-.37c0-.45,0-.89-.05-1.34a3.85,3.85,0,0,0-.11-1.17,10.22,10.22,0,0,0-1.16-2,2.18,2.18,0,0,0-.22-.21c-.08-.08-.19-.17-.21-.25-.07-.3-.72-.59-1.1-.88-.49-.13-.55-.29-.6-.44l-.17-.05c-.23,0-.06.15-.48.08l-.22-.24a.72.72,0,0,0-.45-.13c-.45,0-.58-.09-.61-.2s-.06-.3-.09-.45a2,2,0,0,0-.05-.24.33.33,0,0,0-.16,0,.6.6,0,0,0-.19,0l-.28.14c-.38-.25-.06-.44-.35-.69-.09.09-.08.17-.21.21-.68-.59-2.64.41-2.64.41a.68.68,0,0,0-.12.12,10.14,10.14,0,0,1-.85,1.55,1.9,1.9,0,0,0-.34.54c-.31.7-.65,1.4-.88,2.1s-.44,1.62-.66,2.44c-.1.39-.24.78-.31,1.17s-.11,1-.17,1.46a20,20,0,0,0-.46,3.45,15.05,15.05,0,0,1-.13,1.77c-.07.82-.12,1.63-.24,2.44-.2,1.49-.6,3-.68,4.46a13,13,0,0,1-.38,2.05c0,.14-.24.27-.26.41s.11.32.1.48-.09.49-.12.74c-.06.54-.1,1.09-.17,1.63-.1.81-.37,1.61-.46,2.42v.2c0,.06-.43.23-.35.35s.21.28.18.41a3.44,3.44,0,0,0-.12.64c-.07.68-.11,1.36-.19,2s-.21,1.14-.25,1.72,0,1.16,0,1.74-.09,1.34-.14,2-.09,1.38-.14,2.07v.14a17,17,0,0,1,0,1.75,6.78,6.78,0,0,1-.19,1s-.06.09,0,.13c.26.19.12.35.11.52a2.36,2.36,0,0,0,0,.65,1.7,1.7,0,0,1-.23,1.28c0,.06-.08.15,0,.2l.13.08-.6,3,.56.12a3.13,3.13,0,0,0-.52.16c-.22.12.37.1.45.17s0,.07,0,.1-.07.36-.09.54c-.07.72-.13,1.45-.2,2.17,0,.24-.09.47-.09.71v2.54c.06.67.13,1.33.2,2s.11,1.19.21,1.79c.17,1,.36,1.94.59,2.91a2.62,2.62,0,0,0,.7,1.27,1.91,1.91,0,0,0,1,.53c.71.2,1,.4.59.61h0c0,.06,0,.13.22.16a2.09,2.09,0,0,0,.5,0,3.81,3.81,0,0,0,.64-.24c.75-.38,1.51-.76,2.2-1.15a16.43,16.43,0,0,0,2.7-1.83A5.11,5.11,0,0,0,164.84,60a.92.92,0,0,1,.09-.23c.13-.33.28-.66.39-1s.19-.69.29-1l.26-.9v-.2a.66.66,0,0,0,.25-.62,3.76,3.76,0,0,1,.12-.67c.1-.4.23-.8.3-1.2a.58.58,0,0,1,.16-.43.36.36,0,0,0,.08-.36A.49.49,0,0,1,167,53a.37.37,0,0,0,.1-.23,1.18,1.18,0,0,1,.05-.41c.12-.56.25-1.11.38-1.67,0-.12.14-.24.17-.36a7,7,0,0,1,.23-1.51,4.63,4.63,0,0,0,.22-1.38l.15-1.28v-.38c.07-.64.17-1.28.23-1.93s.1-1.45.16-2.17a9,9,0,0,1,.11-.91c0-.3.07-.75.13-1.12a3.9,3.9,0,0,0,.18-.67,9.17,9.17,0,0,1,.15-1.48,5,5,0,0,1,.25-1.72.67.67,0,0,0,0-.2v-.51a3.39,3.39,0,0,1,.19-.76,4.22,4.22,0,0,0,0-1.23v-.2c.4-.61,0-1.29.32-1.92.15-.31-.06-.66-.09-1a.29.29,0,0,1,.08-.26c.31-.3.25-.61-.24-1,.38,0,.52-.13.39-.26a2.26,2.26,0,0,0-.29-.25c-.11-.08-.17-.15,0-.19s.27-.16.23-.26-.19-.51-.27-.77,0-.2.29-.26.34-.14.17-.24c-.68-.41-.13-.74-.28-1.12a.48.48,0,0,1,.19-.1c.1,0,.21-.06.09-.11s-.19-.14.19-.17.14-.17,0-.28-.19-.11-.15-.12c.29-.08,0-.18-.09-.28s-.1-.23.08-.33.24-.07.32-.12,0-.17-.32-.24c-.09-.15-.25-.31-.07-.44s.4-.14.47-.23-.05-.2-.07-.3,0,0,.08-.06c.23-.1.42-.21.06-.37s.4-.21.11-.37l-.2-.1h0v0h0c.15-.08.09-.17,0-.27s-.21-.26.34-.3a.14.14,0,0,0,.13-.11,3.41,3.41,0,0,1,.1-.54c0-.18,0-.08,0-.1-.36-.15-.27-.26,0-.38s.06-.13,0-.2-.16-.18,0-.26.24-.19,0-.32c-.07,0,0-.11,0-.12.55-.09.45-.24.19-.41-.06,0-.07-.09,0-.12.36-.28.46-.58.18-.92,0-.05-.06-.13,0-.15C172,17.41,171.86,17.26,171.67,17.1ZM154,48.8c0,.09-.15.16-.27.24l.37-1.75v.91A2.43,2.43,0,0,1,154,48.8Zm17.35-30.68h0Z"/><polygon class="cls-1" points="53.58 83.65 53.57 83.65 53.57 83.65 53.58 83.65"/><path class="cls-1" d="M96.33,72c-.13-.07-.28-.19-.38-.19a11.82,11.82,0,0,0-1.46.13c-.4.07-.77.23-1.17.3l-1.42.25.06-.09A2.1,2.1,0,0,0,92,71c-.13-.07-.28-.19-.38-.19a11.82,11.82,0,0,0-1.46.13c-.4.07-.77.23-1.17.3-1.16.22-2.33.42-3.49.62a5.1,5.1,0,0,0-.67.08l-2,.3-3.1.57c-1,.18-2.09.32-3.11.54s-1.84.49-2.76.72c-.71.18-1.43.33-2.15.47-.36.07-.73.11-1.1.18-.78.13-1.58.22-2.35.41-1,.25-2,.58-2.94.89a1.65,1.65,0,0,0-.44.22,31.79,31.79,0,0,1-4,2.11c-1.08.53-2.18,1-3.26,1.56L53.9,81.77c-.15.07-.31.09-.33.42,0,.11-.13.13-.22.13s-.28-.19-.31-.12c-.14.34-.48.15-.7.24-.62.27-1.22.57-1.85.82a14.13,14.13,0,0,0-3.89,2.16,2.21,2.21,0,0,1-.34.18,16.18,16.18,0,0,0-1.65.87c-1.14.76-2.43,1.18-3.54,2a5.35,5.35,0,0,0-.8.62,2.49,2.49,0,0,1-1.35.85c-.37.06-.55.44-.44,1.29a1.85,1.85,0,0,0,.45.21,6.17,6.17,0,0,0,.86,0,5.55,5.55,0,0,1,1.41-.09,10.28,10.28,0,0,0,1.57.12,2,2,0,0,0,0,.77,1.85,1.85,0,0,0,.45.21,6.17,6.17,0,0,0,.86,0,5.55,5.55,0,0,1,1.41-.09c.71.13,1.37.09,2.06.15.16,0,.34.07.45,0,.4-.36,1.1.26,1.48-.15a.17.17,0,0,1,.13.06,3.41,3.41,0,0,0,2,0c.33-.1.65-.22,1-.31l.9-.22a6.75,6.75,0,0,1,1-.29A2.27,2.27,0,0,0,55.73,91c.17-.14.26-.61.66-.09h.1c.63-.27,1.39-.2,2-.53a.3.3,0,0,1,.21,0c.55.16.94-.16,1.39-.3a3.77,3.77,0,0,1,1.72-.35.83.83,0,0,0,.84-.37.19.19,0,0,1,.17-.15c.68,0,1-.83,1.76-.69a.12.12,0,0,0,.14-.08c.49-.3,1.06-.39,1.46-.88.06-.07.17-.06.26-.08a6.48,6.48,0,0,0,1.73-.8,1.7,1.7,0,0,1,.78-.36,2.8,2.8,0,0,0,1.19-.4,3.41,3.41,0,0,0,1.18-.72c.07-.09.21-.07.31-.1a2.46,2.46,0,0,0,1-.36,6.92,6.92,0,0,1,2.89-1.57,4.12,4.12,0,0,0,.74-.34,2.87,2.87,0,0,1,1.94-.55.64.64,0,0,0,.75-.3c.11-.21.24-.32.48-.21a.26.26,0,0,0,.27,0c.34-.26.8-.22,1.12-.55a3.41,3.41,0,0,1,.68-.5,13.92,13.92,0,0,1,2.5-1.4,3.38,3.38,0,0,0,1.52-.74c0-.06.14,0,.21,0l.52-.17c.1,0,.18-.17.3-.12.3.12.47-.08.64-.28a.68.68,0,0,1,.28-.18l2.68-1.08,3.25-1.28.24-.13c.59-.33,1.18-.67,1.79-1a2,2,0,0,0,.85-.9A2.13,2.13,0,0,0,96.33,72ZM78.39,73.64v.06h0ZM54,88.12h.09v.11H54v-.11Zm2.4-.62v-.06h0Zm-1.72.42,1.13-.34-.13.14-.72.22ZM57,87.35v-.12l.17-.2a.41.41,0,0,1,.24-.08v.19A1.77,1.77,0,0,1,57,87.35Zm7.24-8.1h0v0Zm-2.31,1v.07h-.06a.14.14,0,0,1,0-.09Zm-.77.07a.57.57,0,0,1,.13-.14,1.84,1.84,0,0,1,.17.22.28.28,0,0,1,0,.18s-.08.09-.14.08-.12-.1-.17-.16a.42.42,0,0,1,0-.15Zm-.93.69c-.08.36-.29.35-.51.34a.54.54,0,0,1,0-.18ZM59.1,79.82v.06h0v-.07Zm-.85,2a.66.66,0,0,1,.06.2c-.1.21-.25.26-.51.14.07-.32.19-.42.34-.46S58.22,81.76,58.25,81.82Zm-.11-1.49v0l-.66.2v0Zm-1,2h.05v.11h-.05a.14.14,0,0,1,0-.09ZM56.55,81v.06l-.27.08v-.06ZM55,83c.32-.08.55-.43,1.11-.19a1.62,1.62,0,0,1-1.25.54c-.12-.35.07-.26.19-.28Zm-.23-1.21v.06l-.54.17V82Zm-3.11,2.51c.39-.19.79-.35,1.18-.55a2.05,2.05,0,0,0,.38-.34c.11-.11.25,0,.41.23.2-.28.38-.62.81-.29v.13a3.61,3.61,0,0,1-.75.55c-.64.24-1.31.41-2,.6a.15.15,0,0,1-.12-.07C51.45,84.34,51.55,84.34,51.61,84.31Zm-.77.53h0v0Zm-1.51,1a.14.14,0,0,1,.12.08.23.23,0,0,1,0,.17.29.29,0,0,1-.14.08l-.14-.12a.82.82,0,0,1,.16-.22Zm-.93.73h0v0Zm-2.8,1.3V88h0Zm-1.6.62h0v0Zm14.35.71v-.07h.09v.11Zm.64-.27,1.13-.34c-.25.36-.41.42-1.12.34Zm1.68-.48h0v0Zm1-.21a1.06,1.06,0,0,1-.34.12l0-.12a2.42,2.42,0,0,1,.25-.31h.16c.05,0,0,.28,0,.31Zm2.32-1-.08-.09h0l.06,0,0,.08Zm.79-.77v-.08h0Zm.51-.14v-.06l.44-.13v0Zm2.63-1,.35-.35c0,.52-.1.57-.37.41ZM70,84.15v-.07h0v.07Z"/><path class="cls-1" d="M59.82,42.72v-.78a4.38,4.38,0,0,0-.15-.72,8.44,8.44,0,0,0-.42-1.38,8.7,8.7,0,0,0-.59-1.32,10,10,0,0,0-.75-1.26A11.67,11.67,0,0,0,52.67,33a17.92,17.92,0,0,0-7.23-1.3h-.51a10.68,10.68,0,0,0-1.6.13l-.8.09h-.67l-2,.35c-.76.14-1.53.2-2.27.32a.41.41,0,0,0-.29.07c-.3.34-.69.3-1,.39a9,9,0,0,0-1.36.35,8.57,8.57,0,0,1-2.72.64c-.14,0-.35,0-.39.18-.12.37-.38.36-.61.44l-2.12.79a9.65,9.65,0,0,1-1.16.35,1.22,1.22,0,0,1-.57-.07c-.35-.09-.7-.23-1-.32s-.55,0-.56.65v.59a3.16,3.16,0,0,0-.56-.33c-.33-.1,0,.4-.09.52s-.12.06-.19.09a9.72,9.72,0,0,0-1,.34c-1.37.53-2.74,1-4.09,1.6-.44.18-.91.32-1.34.52-1.3.61-2.59,1.25-3.86,1.9-.22.11-.46.2-.68.33-1.17.65-2.32,1.35-3.47,2s-2,1.21-3,1.88Q5.1,47.28,2.83,49a6.6,6.6,0,0,0-1.7,1.87,1.74,1.74,0,0,0-.26,1.33c.13.8-.05,1.2-.63,1.14H.17a.22.22,0,0,0-.16.27.12.12,0,0,0,0,.08.86.86,0,0,0,.37.36,3.78,3.78,0,0,0,.81.24l3.29.55a31.47,31.47,0,0,0,4.65.38,13.42,13.42,0,0,0,4.75-.65l.43-.13,1.85-.55c.63-.2,1.24-.44,1.87-.65l1.62-.54q-.87,6.6-1.69,13.2c-.83,6.6,0,.1,0,.1a.65.65,0,0,0-.35.41c0,.08-.16.16-.35.21a7.33,7.33,0,0,0-3.46,1.5,1,1,0,0,1-.6.25c-1.3.15-1.43.42-1.51.68,0,.1,0,.24-.17.31h0c0,.24,1,.58,1,.81s1.06.59,1.63.87a4.48,4.48,0,0,1,.47.28l2.73,1.74q-.55,7.5-1.1,15c-.18,0-.13.13,0,.23l-.07,1c-.07,0-.07.1,0,.14v.86a.11.11,0,0,0,0,.11v.28c-.2.11-.35.22,0,.4h0v.17c-.1.07-.25.13-.1.23l.08.05v.71H16a.12.12,0,0,0-.12.12,3.88,3.88,0,0,1-.09.58v.11c.32.16.24.28,0,.41s-.06.14,0,.22.14.2,0,.28-.22.21,0,.35a.08.08,0,0,1,0,.09.08.08,0,0,1,0,0c-.49.1-.4.26-.17.45,0,0,.06.1,0,.13a.7.7,0,0,0-.18,1l0,0c0,.06,0,.14,0,.17-.37.12-.22.28,0,.45s.23.17.16.21,0,.31-.11.43.05.31.12.47a.38.38,0,0,1,0,.15c0,.55,0,1.11-.05,1.66a1.21,1.21,0,0,0,0,.38v.5c-.08,0-.07.09,0,.2v.64c-.12,1.19-.29,2.38-.37,3.56-.18,2.51-.09,2.79.76,2.65,0,1.16.06,2.17.07,3.19a5.09,5.09,0,0,0,0,2c.28.69.53.53.82-.65.08-.32.15-.65.22-1l.15.28a2.2,2.2,0,0,0,.2.23.89.89,0,0,1,.19.27c.06.33.64.63,1,.94.44.14.49.31.54.47s.1,0,.15.06.06-.16.43-.09c.06.08.12.17.2.26a.57.57,0,0,0,.4.13c.4,0,.52.1.54.21s.05.33.07.49a1.13,1.13,0,0,0,0,.26.34.34,0,0,0,.15.06.48.48,0,0,0,.17,0l.25-.15c.33.26,0,.48.31.75.08-.1.07-.19.18-.23a.91.91,0,0,0,.58-.69,2.26,2.26,0,0,1,.25-.38c.11-.18.21-.37.31-.55s.05-.11.07-.16.22.1.23.14,0,.22,0,.33.07.22.71.37c.14.15-.1.29.2.48a1.47,1.47,0,0,0,.1-.13,10.66,10.66,0,0,1,.76-1.69,2.55,2.55,0,0,0,.31-.59c.28-.76.58-1.52.8-2.29s.4-1.76.6-2.65c.09-.42.22-.84.28-1.27s.1-1,.16-1.58a27.78,27.78,0,0,0,.43-3.75,17.69,17.69,0,0,1,.13-1.92c.07-.88.12-1.77.23-2.65.19-1.62.55-3.21.64-4.84A15.22,15.22,0,0,1,29.11,89c0-.15.22-.29.24-.45s-.1-.35-.09-.52.08-.54.11-.81c.06-.59.1-1.18.16-1.77.1-.88.34-1.75.43-2.63a.41.41,0,0,1,0-.22c.1-.13.38-.25.32-.39s-.19-.3-.16-.45.07-.4.1-.6a4,4,0,0,1,.93.64c.26.25.5.21.93,0,.11-.06.21-.17.32-.19.43-.06,1,.43.84.81s0,.56.29.74a1.47,1.47,0,0,0,1.15.28.91.91,0,0,1,.33,0h.25a1.61,1.61,0,0,1,.36.1,1,1,0,0,1,.72,1.21c0,.13.15.07.26-.11l.18-.32a6.22,6.22,0,0,0,.58.43l2.22,1.26a12.88,12.88,0,0,0,2,1,24.58,24.58,0,0,0,3.79.9h.44a1.35,1.35,0,0,1,.49,0c.53.23,1.26-.09,1.9-.15a.85.85,0,0,1,1-.13l.16-.1c.1-.21-.22-.2.06-.52h.49a.47.47,0,0,0,.39-.29c.2-.41.39-.44.58-.37s.52.24.78.36a4.08,4.08,0,0,0,.42.19.18.18,0,0,0,.16-.1.41.41,0,0,0,0-.19c0-.13-.07-.26-.11-.39.56-.11.75.38,1.28.36-.12-.17-.25-.24-.27-.4A1.89,1.89,0,0,0,52.43,85a4.27,4.27,0,0,1-.45-.6l-.7-.82-.22-.22c.16-.12.25-.14.32-.11s.33.21.51.29.37.12.9-.4c.3,0,.39.36.82.22a1.64,1.64,0,0,0-.14-.22,26.85,26.85,0,0,1-2.22-2.31A6.61,6.61,0,0,0,50.5,80a36.82,36.82,0,0,0-3.11-2.88c-1.22-1-2.5-2-3.75-3l-.89-.73c-.26-.22-.73-.57-.67-.55-.15-.12-.3-.24-.45-.34-.37-.3-.33-.59-.88-.77a2.05,2.05,0,0,1-.57-.34s-.12-.06,0-.08a5.15,5.15,0,0,1,.68-.29,8.66,8.66,0,0,0,1.57-.49l.54-.32,1-.53c.65-.33,1.32-.71,2-1.12.28-.17.65-.18.92-.36s.49-.51.78-.71c.45-.37.95-.68,1.41-1a37.25,37.25,0,0,0,3-2.62c.73-.77,1.5-1.52,2.23-2.36a18.76,18.76,0,0,0,2-2.83,2,2,0,0,1,.31-.5c.26-.28.74-.5.79-.85a4.15,4.15,0,0,1,.25-1.15l.39-.85c.11-.28.2-.56.29-.85l.4-1.36L59,51.84c.09-.43.19-.87.24-1.25l.22-1.39L60,45.38C59.87,44.42,59.84,43.57,59.82,42.72ZM15.7,67.47h0Zm-.17,28.16h0Zm29-48.35h0a.4.4,0,0,1,.07.09s0,0-.05.09a4.38,4.38,0,0,0-.16.53,3.82,3.82,0,0,0-.15.82,6.53,6.53,0,0,1-.08.76.3.3,0,0,1-.06.22,2.43,2.43,0,0,0-.45.91,1.5,1.5,0,0,1-.46.83,2.62,2.62,0,0,0-.43,1,.33.33,0,0,1-.23.2c-.48.11-.65.42-.51,1.07-.35-.2-.53-.2-.56,0a1.55,1.55,0,0,0,0,.43c0,.15,0,.26-.2.17a.31.31,0,0,0-.42.12,6.53,6.53,0,0,1-.64,1c-.1.13-.21.23-.5.06s-.39-.11-.39.12c0,.91-.85.83-1.21,1.32h-.25c-.09,0-.21-.1-.2,0,0,.32-.06.29-.35,0s-.3.06-.34.31c0,.09,0,.25-.08.23-.31-.15-.28.13-.34.34a.4.4,0,0,1-.51.25,3.25,3.25,0,0,1-.37-.13c-.11,0-.26.14-.14.48l-.12.17-.35.29a1.67,1.67,0,0,1-.73.36,11.57,11.57,0,0,0-1.17.11,4.2,4.2,0,0,0-.92.58A.62.62,0,0,1,32,60a5.4,5.4,0,0,0-.58.09v-.17c.07-.79.12-1.57.19-2.36,0-.26.08-.51.09-.77V54.05c-.06-.73-.11-1.47-.17-2.2s-.09-1.29-.18-1.94a4.72,4.72,0,0,0-.1-.64,1.37,1.37,0,0,0,.6-.09,21.4,21.4,0,0,1,2.73-.81,5.32,5.32,0,0,0,.67-.14l.53-.15c.36-.11.74-.24,1.12-.34.71-.19,1.42-.36,2.12-.52a3.38,3.38,0,0,0,.6-.17c1.06-.23,2.11-.39,3.1-.53l1.06-.14H44a.8.8,0,0,1,.21,0,.52.52,0,0,1,.23.1v.18a.7.7,0,0,1,.12.26c0,.09.13.17-.07.3Z"/><path class="cls-1" d="M150.45,9.55a9.65,9.65,0,0,1,.07-1.42c0-.13.1-.27.14-.41s.08-.61.12-.92a.43.43,0,0,0,0-.16.87.87,0,0,0-.07-.17c-.05-.07-.1-.15-.15-.21L150,6.12a4.83,4.83,0,0,0-.5-.16c-.1,0-.14.06-.35-.15s-.1-.06-.09,0c0,.28-.16.11-.28.09s-.19-.1-.26-.1a2.41,2.41,0,0,1-.92-.24c-.12,0-.25-.11-.25.08s-.08.1-.14.12-.13-.14-.24-.36l-.19-.34v.23l.38.68a.35.35,0,0,0-.31.1c-.07.1-.1.13-.29,0s-.12,0-.16,0-.17.12-.27.16-.41,0-.51.19a.37.37,0,0,1-.24.17c-.14,0-.28,0-.37.13a1,1,0,0,1-.29-.36c-.17-.29-.18-.24-.18-.18a1.13,1.13,0,0,0,0,.26v.19h-.09l0,0v.08a.24.24,0,0,0-.1.1h0c-.14-.06-.25-.06-.26.11H144c-.12-.19-.18-.26-.17-.17v.17A4.64,4.64,0,0,0,142.5,7c-.11,0-.2.15-.31.19l-.67.19a4.77,4.77,0,0,1-.51.13,2.66,2.66,0,0,0-.74.07c-.24.07-.5.43-.89.17m-.06,0c-.14.31-.4.21-.61.28-.44.16-.87.36-1.3.54a.13.13,0,0,1-.12,0c-.32-.19-.54,0-.74.17s-.1.14-.18.09c-.3-.17-.45.12-.64.29s-.19.19-.33.11a.39.39,0,0,0-.5.06c-.07,0-.11.18-.2.13s-.18.26-.32.25-.3-.11-.43-.13-.11.06-.14.14-.18.13-.32,0-.39-.09-.47.24c0,.16-.13.26-.25.16a.64.64,0,0,0-.47-.07,5.4,5.4,0,0,1-.57,0c-.19,0-.53-.13-.67.21,0,.06-.09,0-.15,0a.73.73,0,0,0-.7.1,1,1,0,0,1-.27.11,4.53,4.53,0,0,0-.53.05c-.22.06-.39.27-.62.26a1.55,1.55,0,0,0-1,.29,1.15,1.15,0,0,1-.48.24c-.53.09-1.11,0-1.52.52-.37-.16-.58.24-.91.23a1,1,0,0,0-.43.09,23.18,23.18,0,0,0-2.39.81,4.08,4.08,0,0,1-1.47.47c-.06,0-.12,0-.14.14,0,.29-.18.24-.34.17s-.3-.07-.37.18-.12.13-.22.06c-.36-.27-.58-.14-.77.14-.07.1-.15.19-.25.15a1.13,1.13,0,0,0-.68.07c-.25,0-.46.24-.71.29-.47.09-.87.42-1.38.41h-.14c-.49.2-1,.27-1.5.49a2.5,2.5,0,0,1-1.43.42h-.09c-.29.08-.53.32-.87.25a.11.11,0,0,0-.11,0,2.26,2.26,0,0,1-1,.42,1.85,1.85,0,0,0-.33.21c-.13.07-.25.2-.41.15a1,1,0,0,0-.92.19,1.92,1.92,0,0,1-.31.18c-.52.21-1,.38-1.55.64-.22.12-.47.13-.68.26a10.25,10.25,0,0,1-.93.53c-.32.15-.4.35-.63.42a4.11,4.11,0,0,0-1.62,1.36,9.31,9.31,0,0,0-1.1,1.7c-.46.81-.89,1.69-1.33,2.54a.88.88,0,0,0,0,.6,1.82,1.82,0,0,1,0,.57,8.58,8.58,0,0,0,3.71,1.61h.16A9.34,9.34,0,0,1,106,28a7.08,7.08,0,0,0,2.25.06,8.06,8.06,0,0,0,1.68-.33l3.54-.84c.83-.19,1.67-.35,2.49-.57s1.76-.52,2.65-.76c.53-.15,1.07-.24,1.59-.39s1.13-.37,1.7-.55l.87-.26,1.92-.53c.06,0,.11-.05.16-.06.62-.12,1.25-.23,1.87-.37.26-.06.48-.21.74-.29.42-.13.84-.25,1.28-.34s.83-.29,1.27-.35a3.75,3.75,0,0,0,1.15-.44,11.27,11.27,0,0,1,1.61-.54l.9-.33-.68,1c-.08.12-.11.28-.23.36a2.45,2.45,0,0,0-.83,1.1c-.23.43-.49.84-.75,1.24-.47.73-1,1.45-1.42,2.19a2.5,2.5,0,0,1-.56.76,1.39,1.39,0,0,0-.42.67,2,2,0,0,1-.64,1,1.35,1.35,0,0,0-.31.4l-.44.76-2,3.06c-.14.22-.36.4-.5.62-.51,1-1.06,1.9-1.66,2.8a19.39,19.39,0,0,0-1.52,2.56L120.4,42l-.36.71-2,3.6-2.21,4.08-1,1.7c-.39.69-.77,1.4-1.18,2.08-.25.42-.59.78-.8,1.21a26.76,26.76,0,0,1-1.55,2.78,23.15,23.15,0,0,1-1.87,3.19,1.76,1.76,0,0,0-.19.39c-.15.33-.29.67-.46,1a15.8,15.8,0,0,1-.91,1.39,18.12,18.12,0,0,0-1.15,2.34,3.69,3.69,0,0,1-.33.62,24.22,24.22,0,0,0-2,3.4A34.42,34.42,0,0,1,102.45,74a28,28,0,0,0-1.71,3.48,4.82,4.82,0,0,1-.6,1c-1,1.22-1.53,2.36-1.35,3.13-.68.44-1.06.87-1.1,1.23a1.47,1.47,0,0,0,0,.59c0,.16,0,.34-.39.67a2.13,2.13,0,0,0-.86,1.14l-2.8,5a3.32,3.32,0,0,1-.55.63c-.36.34-.52.53-.37.51.34,0,.15.16-.71.92-.7.62.31,2.93.52,3s.21,0,.09.16c-.67.7-.49.71-.35.76L92.5,96c.74-.36,1.09-.4,1.18-.24s-.07.25,0,.32.54-.1,1.18-.53c-.06,0-.09.1,0,.12s0,.38.34.37a8.84,8.84,0,0,0,1.32-.43h.13c.15.19.39.31,1.45-.34s.46.27,1.41-.28l.6-.36h0l.28-.06h0c.17.1.61-.08,1.07-.29.64-.29,1.21-.54.92.09,0,.11.19.07.36,0l2.15-.49a1.08,1.08,0,0,0,.42-.13c.84-.6,1.21-.61,1.56-.46a1.42,1.42,0,0,0,.82-.23c.46-.24.81-.38,1-.25s.71.05,1.32-.38c.15-.11.44-.17.47-.1.21.5.89.21,1.65-.26a1,1,0,0,1,.51-.17,7.53,7.53,0,0,0,3.75-.84c.21-.1.52-.2.63-.13.51.29,1.11,0,1.69-.41.25-.15.57-.42.75-.39.55.07,1.14-.37,1.62-.31.68.07,1.14-.38,1.67-.59a3.08,3.08,0,0,1,.54-.16l3.4-1c.91-.25.92-.24,1.36-1.13.29.79.28.78.71.61.18-.07.37-.12.55-.18.64-.22,1.29-.42,1.92-.69s.57-.29.9-1c.07.06.16.09.2.18.3.53.59.6.88.33a1.32,1.32,0,0,1,1-.38c.23,0,.26-.17.22-.63a.92.92,0,0,1,0-.33c.09-.32.59-.33.77,0s.32.42.53.34a.71.71,0,0,0,.54-.54c.09-.39.34-.49.59-.62a1.18,1.18,0,0,1,1.51.25c.1.09.17-.07.11-.27l-.12-.34a6.13,6.13,0,0,0,.79-.16l2.7-.85a16.49,16.49,0,0,0,2.33-.81,30.86,30.86,0,0,0,3.61-2.28,3.51,3.51,0,0,0,.34-.33,1.69,1.69,0,0,1,.41-.34c.59-.25.89-1,1.32-1.54a.92.92,0,0,1,.64-.82v-.19c0-.07-.33,0-.36-.39.13-.11.27-.22.4-.35a.44.44,0,0,0,.06-.49c-.17-.42,0-.59.15-.68s.59-.24.88-.35a3.33,3.33,0,0,0,.47-.19c.15-.08.05-.12,0-.18a.34.34,0,0,0-.11-.17l-.4-.17c.34-.49.87-.32,1.26-.74a1.3,1.3,0,0,1-.52-.06,2.17,2.17,0,0,0-1.56-.21,5.56,5.56,0,0,1-.82-.05h-1.52c0-.2.08-.28.16-.31l.63-.19c.21-.07.38-.2.37-.95.22-.23.59-.06.8-.47h-.28a34.74,34.74,0,0,1-3.53.16,6.53,6.53,0,0,0-1.25,0c-1.56.14-3.12.25-4.66.45-1.76.24-3.5.57-5.24.86-.84.14-1.68.25-2.51.42-1,.21-2,.49-3,.72-2.41.56-4.86.9-7.23,1.65-.6.19-1.21.35-1.82.5l-.46.11h-.27a7.77,7.77,0,0,1-.93.21c-.57.07-.71-.17-1.21,0h-.2l.41-.45c.05-.06.43-.33.46-.37s-.21.1-.21.07.13-.15.17-.21l.21-.34c.08-.12.47-.36.54-.46h.36c-.09,0-.23-.07-.2-.08a.33.33,0,0,1,.1,0l1.87-3.38c.61-1.07,1.28-2.11,1.87-3.19s1.07-2.23,1.64-3.32c.66-1.27,1.36-2.52,2-3.77l2.1-3.9.12-.26c.53-1.11,1-2.24,1.61-3.34.33-.64.76-1.24,1.14-1.86,0-.08.15-.15.13-.25-.07-.44.21-.7.38-1a11,11,0,0,0,.65-1.22,7.32,7.32,0,0,1,1.43-2.36c.1-.1.22-.26.15-.39-.17-.34,0-.51.12-.72L136,42.63a8.54,8.54,0,0,1,.66-1.13,1.35,1.35,0,0,1,.48-.37c.33-.18.69-.32,1-.5s.41-.4,0-.89a5.55,5.55,0,0,0-.42-.41,2.9,2.9,0,0,0,.65-.14c.32-.15-.26-.31-.27-.47a.4.4,0,0,1,.09-.2c.2-.33.41-.66.6-1L141,33.45c.25-.45.53-.87.76-1.32l2-4.11c.12-.24.26-.47.37-.71L146,23.39c.5-1.16,1-2.3,1.5-3.48q1.13-2.85,2.19-5.73a7.71,7.71,0,0,0,.53-2.64M95,95.46l.15-.1C95.61,95.18,95.24,95.31,95,95.46Zm19.53-4,.07-.08v.06Z"/><path class="cls-1" d="M145.1,5.63a2.83,2.83,0,0,0-.11-.31c-.06-.06-.12-.13-.12-.11a.62.62,0,0,0,.13.33C145.13,5.74,145.1,5.66,145.1,5.63Z"/><path class="cls-1" d="M143.84,6.2l-.13-.33s-.12-.15-.12-.13a.61.61,0,0,0,0,.19Z"/><path class="cls-1" d="M143.52,6.17V6.11c0-.06-.13-.2-.14-.21s-.07,0-.09,0a.47.47,0,0,0,.06.15A.66.66,0,0,0,143.52,6.17Z"/><path class="cls-1" d="M146.54,5.19l-.1-.17h0l.14.33Z"/><path class="cls-1" d="M140.21,7.5l-.06-.13-.07-.07.06.14Z"/><path class="cls-1" d="M140.48,7.31V7.18l-.06-.06.08.15Z"/><path class="cls-1" d="M139.83,7.76V7.65h0Z"/><polygon class="cls-1" points="141.49 6.63 141.46 6.59 141.49 6.65 141.49 6.63"/><path class="cls-1" d="M146.58,5.43V5.36h0Z"/><path class="cls-1" d="M99.37,84.94c0-1.69,0-3.39-.13-5.07-.12-1.92-.33-3.83-.5-5.75-.08-.92-.13-1.84-.24-2.75-.14-1.12-.35-2.23-.51-3.35-.39-2.65-.56-5.34-1.15-8-.15-.67-.27-1.34-.37-2l-.55-3.48c-.56-3.39-1.13-6.76-1.65-10.19-.81-5.3-1.53-10.94-2.39-16.39v-.4c0-.43,0-.5.05-.51s.06,0,.1-.34V25.66a7.37,7.37,0,0,0,0-.94c0-.37,0-.56-.08-.45s0,0-.06.07h0v.08a2.54,2.54,0,0,1,0-.39,4.34,4.34,0,0,0,0-.51c0-.11-.1-.41-.15-.3s-.08-.15-.11-.74v-.21a3.71,3.71,0,0,0-.1-.68c0-.21,0-.1,0-.08a1.38,1.38,0,0,1-.19-.3c-.07-.14,0-.17-.06-.18a.4.4,0,0,1-.28-.42c0-.31,0-.12-.08-.29s-.1-.25-.14-.47v-.14c0-.08-.08,0-.12,0s-.25-.15-.37-.08,0,0,0-.06h-.07c0,.06-.07.13-.11,0s-.08.05-.13.1,0,.08-.07.08h0v.41h-.08l-.51.12a.7.7,0,0,0-.25,0c-.14.06.32-.34-.09-.07V20.2c0-.06.26-.24-.22.1h-.07a.11.11,0,0,1,0-.11c0-.06.18-.2.19-.23s-.42.24-.27.08c-.35.23-.18.08-.17,0s.1-.14-.26.11h0s.06-.09,0,0-.16.06-.13,0,0-.07-.06,0c-.35.24-.32.18-.39.2s-.33.09-.19-.09,0-.14.08-.23,0,0-.21.12c-.42.3-.39.25-.19.07s.13-.12.07-.08a.68.68,0,0,1-.17.07s.08-.16.19-.29,0,0-.14,0-.32.21-.28.16-.14,0-.38.2h0l.66-.48-.22.1a2.57,2.57,0,0,0-.38.25,2,2,0,0,1-.43.28s-.06,0-.33.13l-.21.15-.11.1-.08.09-.22.17H85c.12-.11,0,0-.15.08l-.45.33-2,.52a8.21,8.21,0,0,0-1.22.37l-.58.16-.1.05h0a.45.45,0,0,1-.15.3l-.11.05C80,23,80,23,80,23s0,0-.44.17l.31-.27.25-.26h-.2a1.68,1.68,0,0,0-.42.22,1.23,1.23,0,0,1-.4.19H79l.12,0V23h-.26l-.28.09h-.09a1.26,1.26,0,0,0-.2.2s-.26.14.12,0h0c-.19.1-.28.18-.25.22s-.18.14-.28.21a4.91,4.91,0,0,0-.51.39c-.09.1,0,.16-.05.24a.06.06,0,0,1,0,.06h-.19l-2,6.52-2.81,8.65-2.89,8.9-.17.59-2,6.78c-.23.75-.56,1.48-.84,2.21,0,.1-.12.2-.09.3.14.45-.1.78-.22,1.16a12.45,12.45,0,0,0-.45,1.43,8.77,8.77,0,0,1-1,2.8c-.08.13-.18.32-.09.45.23.32.06.54,0,.78l-.73,2.5A14.54,14.54,0,0,1,63.3,69a1.66,1.66,0,0,1-.42.49c-.3.26-.64.49-.94.75s-.35.52.13.94a5.85,5.85,0,0,0,.48.34,2.7,2.7,0,0,0-.62.29c-.29.23.31.27.34.43a.46.46,0,0,1-.06.23l-.43,1.19L60.2,78.48c-.17.52-.39,1-.55,1.56L58.3,84.82c-.08.28-.18.55-.25.83l-1,4.53c-.32,1.33-.66,2.66-.93,4q-.68,3.25-1.26,6.53a8.82,8.82,0,0,0-.1,2.9,1.89,1.89,0,0,0,.66,1.3c.6.52.71,1,.21,1.42l0,.06a.24.24,0,0,0,.12.37.77.77,0,0,0,.52,0,4.2,4.2,0,0,0,.8-.45c1-.76,2-1.51,3-2.29a33.62,33.62,0,0,0,3.9-3.74A17.82,17.82,0,0,0,67,95.51c.07-.17.16-.33.24-.5.34-.71.7-1.42,1-2.14s.64-1.5,1-2.25l.84-2c.06-.14.06-.32.17-.43a3.09,3.09,0,0,0,.65-1.35c.16-.5.36-1,.55-1.48.35-.88.74-1.74,1.07-2.63a2.67,2.67,0,0,1,.43-.92,1.64,1.64,0,0,0,.31-.8,2.27,2.27,0,0,1,.49-1.16,1.74,1.74,0,0,0,.25-.49l.31-.89,1.45-3.66c.11-.27.3-.5.4-.77.44-1.09.65-2.26,1.2-3.32a24.46,24.46,0,0,0,1.1-3l1-2.83.24-.83,1.45-4.22c.07-.19.11-.4.17-.61a1.51,1.51,0,0,1,.11-.22,1.23,1.23,0,0,1,.12-.26s.12.11.12,0a.84.84,0,0,1,.12-.31v-.2c0-.11,0-.19.11.06v-.4c0-.06,0,.09.07.19s0-.36.08-.61v-.07c0,.51,0,.39.06.2s.06-.45,0-.06.07-.59.11-.91h0v.21c-.08,1.25-.06.89.15-1.06-.14,1.51-.18,2-.13,1.5l.13-1.1c0-.41.08-.65,0,.12-.12,1.18-.1,1-.07.83.06-.4.12-.7.18-1,0-.12,0-.09-.11,1-.11.86-.15,1.12-.06.56.36-2.22.13-.41.24-.89a2.27,2.27,0,0,1-.09.57c-.08.46-.11.61,0,.27.15-.78.12-.54-.09.55-.17.89-.07.38,0-.15a1,1,0,0,1,.09-.41c-.16.8,0,.12.08-.23s.08-.24,0,.23l-.18.81c-.09.41,0,.07.21-.79.07-.2.18-.56.09-.12l-.27,1.08c0,.13,0-.06.06-.13h0v.18c-.14.5-.26.87,0,.13s-.25.8,0,.21l.14-.36h0c-.1.28,0,.16,0,0s.18-.33-.21.61c-.07.16-.08.21-.09.22v.13h0c.29-.55.23-.39.06,0-.07.13,0,.08,0,0s.14-.2,0,0-.18.29,0,0c.06-.08,0-.05,0,0-.44.63-.35.47-.12.21h0c-.28.37-.36.37-.07.16h0c-.36.28-.2.14,0,0s.25-.13.19-.09.08,0-.08.08.09,0,.17,0h0a8.05,8.05,0,0,1,.24,1.18l.33,1.74c.18,1,.17,1,1,1.58-.81.23-.8.23-.66.71.06.2.09.41.14.61.18.71.33,1.44.56,2.14s.25.65.93,1.07c-.06.07-.1.16-.19.2-.56.27-.64.58-.39.92a1.63,1.63,0,0,1,.31,1.13c0,.25.15.3.61.3a1,1,0,0,1,.34,0,.47.47,0,0,1,.14.65.55.55,0,0,1-.22.18c-.37.16-.44.31-.38.54a.77.77,0,0,0,.51.64,1,1,0,0,1,.57.7A1.34,1.34,0,0,1,86,75.82c-.1.1,0,.19.27.15l.35-.09a2.53,2.53,0,0,0,.1.87l.66,3a17.94,17.94,0,0,0,.64,2.6,33.43,33.43,0,0,0,2,4.13,3.9,3.9,0,0,0,.31.4,2.19,2.19,0,0,1,.31.48c.21.66,1,1.06,1.45,1.59a1,1,0,0,1,.78.77.3.3,0,0,1,.18.06c.22-.08,0-.35.42-.35.1.15.2.31.32.47a.43.43,0,0,0,.49.12c.43-.14.6,0,.67.23s.19.66.29,1a5.34,5.34,0,0,0,.16.53c.07.18.12.07.18.06a.32.32,0,0,0,.18-.1c.07-.13.14-.27.2-.41.47.42.26,1,.65,1.44a.94.94,0,0,1,.1-.56A2.48,2.48,0,0,0,97,90.55a6.41,6.41,0,0,1,.11-.88l.56-.74c.11.4.17.43.92.5.22.26,0,.64.42.91l.06-.3c.07-1.28-.1-2.53.09-3.82A9.23,9.23,0,0,0,99.37,84.94ZM82.44,59.78Zm9.38-32h0v0Zm-2.88-6.87Zm-.64-.68.13-.1h0l-.13.09Zm-6.8,2.22h.13a.81.81,0,0,0-.16.16s-.26.13.12.05h0a4.34,4.34,0,0,1-.54.25Zm-.42.49c.21-.06.12,0,.11,0s-.19.07-.1.07,0,.07-.09.12l-.17.12-.12.11-.15.12a.2.2,0,0,0-.06.14l-.08.06c-.18-.06.24-.55.65-.73Zm-.7.77h0Zm-.07.17h-.12V23.8c.18,0,.1.08.1.09Zm-.94-.6c.19,0,.18,0-.1.11-.06,0-.06,0,.08-.1Zm-.86.78Z"/><path class="cls-1" d="M204.91,154.34c-1.2-.41-.83-.77-2.25-1a.8.8,0,0,1-.63-.58,1.86,1.86,0,0,0-.8-1.53c-.15-.11-.08-.22-.1-.33-.26-1.69-.62-3.39-.73-5.06a20.8,20.8,0,0,1-.32-2.72,46.75,46.75,0,0,0-.29-5.42v-6.86a4.33,4.33,0,0,1,.19-1.29c.49-1.66.17-3.41.22-5.12,0-.79.2-1.56.26-2.34s.06-1.46.1-2.19c0-.51.08-1,.12-1.54a46.52,46.52,0,0,0,.37-5c-.09-2.76.83-5.4,1.25-8.11.1-.64,0-1.31.06-2,.23-1.42.61-2.82.81-4.24s.31-3.07.4-4.61c0-.68.79-1.2,2.57-1.51a3.79,3.79,0,0,1,2.1.28,3.87,3.87,0,0,1,.62.53c.67.62,1.38,1.24,2,1.85a7.63,7.63,0,0,1,.83,1.13c.07.11-.07.22,0,.33,1.43,1.49,1.26,2.83,1.27,4.19a6.82,6.82,0,0,0,.36,1.67,5.59,5.59,0,0,0,1.35,2.07,3.53,3.53,0,0,1,.61,1.53c.11.36.17.72.25,1.08,0,.08.09.17.09.25v2.86a4.88,4.88,0,0,0,.12.75,5.66,5.66,0,0,1,.15.59,9.58,9.58,0,0,0,.2,2.14,5.9,5.9,0,0,1-.13,3.09c-.26,1.19-.61,2.38-.81,3.58a12.14,12.14,0,0,0,0,2c-.07.92-.21,1.83-.33,2.74,0,.16-.16.31-.09.48a1.89,1.89,0,0,1-.5,2.3.25.25,0,0,0-.07.32c.53.93,0,1.74.07,2.62a17.37,17.37,0,0,1-.63,5.07.76.76,0,0,0,0,.66,2.29,2.29,0,0,1,.07,2.44,3.08,3.08,0,0,0-.09,1.13c-.06.81-.12,1.62-.19,2.43-.09,1-.15,2-.32,3a5.82,5.82,0,0,1-.56,1.56,14.23,14.23,0,0,1-1.74,3.12,13.76,13.76,0,0,1-3,2.32A27.54,27.54,0,0,1,204.91,154.34Z"/><path class="cls-1" d="M109.81,145.42c-.19-.35-.3-.44-.33-.28a1.93,1.93,0,0,0,0,.34c0,.12,0,.21-.13,0s-.21-.2-.26-.12-.24.34-.36.5-.11.1-.28-.17-.22-.27-.22-.08c0,.76-.4.36-.57.63a.4.4,0,0,1-.14-.14c0-.09-.12-.17-.1,0s0,.22-.19-.12-.16-.07-.15.14,0,.21,0,.18c-.17-.24-.13,0-.14.17s-.1.17-.23,0a2.21,2.21,0,0,0-.2-.25c-.06-.06-.12,0,0,.37h0c-.06.13-.09.33-.24.21s-.25-.31-.34-.35-.1.11-.16.17,0,0-.07-.06-.3-.31-.25.07-.3-.29-.27,0v.21h0c-.11-.11-.14,0-.16.09s-.08.27-.32-.21c0-.08-.09-.09-.12-.08l-.37.09h-.06c.06.38,0,.33-.22.15s-.11,0-.12.08,0,.21-.17.06-.22-.16-.19.13c0,.07,0,.08-.08,0-.28-.47-.33-.33-.33,0,0,.07,0,.1-.06.07-.32-.24-.55-.23-.64.14,0,.06,0,.1-.11,0-.24-.34-.26-.14-.27.09s0,.28,0,.23-.16.14-.29,0-.15.15-.21.26a.16.16,0,0,1-.08.06,10.34,10.34,0,0,1-1,.46c-.37.14-.28.12-.21.9-.33-.77-.32-.76-.44-.65l-.16.11a2.84,2.84,0,0,0-.54.43c-.15.17-.14.21-.07.83a.8.8,0,0,1-.13-.19c-.26-.53-.39-.63-.43-.41s-.13.3-.28.24-.06.12.09.56c0,.11.09.24.1.32,0,.29-.13.24-.3-.12s-.24-.43-.3-.38-.13.1-.06.45,0,.42-.06.51-.29.15-.65-.41c-.06-.1,0,0,0,.24l.14.34a1.1,1.1,0,0,0-.26.06c-.27.15-.54.32-.8.49a1.82,1.82,0,0,0-.67.49A7.73,7.73,0,0,0,94.6,154a1.22,1.22,0,0,0,0,.27c0,.1,0,.23-.06.27a8.17,8.17,0,0,0-.08,1.29c0,.44.05.59,0,.69a.49.49,0,0,0,0,.17c.09.21.12,0,.25.41a.49.49,0,0,1-.06.28,1,1,0,0,0,.11.45c.18.41.18.56.13.62l-.24.23a.22.22,0,0,0-.13.29.56.56,0,0,0,.09.17l.2.21c0,.42-.25.2-.28.54a.21.21,0,0,1,.22.12c.31.39.48.38.65.38s.22.1.33.14l.45.15h.13v.27s-.13.06-.19.11-.09.14.12.84c0,.19-.21,0-.18.35l.12.07a5.26,5.26,0,0,1,1.3.26,1.22,1.22,0,0,0,.47.13,12.94,12.94,0,0,0,1.65.11,12.63,12.63,0,0,0,1.76-.21,8,8,0,0,0,.84-.1c.33-.08.64-.22,1-.33a9.9,9.9,0,0,0,2.3-.72,6.35,6.35,0,0,1,1.14-.47c.53-.2,1-.42,1.59-.59a26.83,26.83,0,0,0,3-.85,6.73,6.73,0,0,1,1.41-.33c.1,0,.26.13.36.1s.15-.21.25-.25a4.1,4.1,0,0,1,.5-.14c.36-.12.71-.27,1.07-.38.54-.18,1.14-.19,1.67-.38a.13.13,0,0,1,.14,0c.06.05.32.31.36.2s.08-.28.18-.3a2.33,2.33,0,0,0,.44-.1c.44-.16.88-.35,1.32-.5s.79-.19,1.16-.34.7-.41,1.06-.59.86-.36,1.29-.53l1.33-.56.08-.05c.35-.21.69-.44,1.05-.61a3.24,3.24,0,0,1,.7-.16h.08c0-.3.16-.22.27-.27s.3-.06.41-.18a.87.87,0,0,1,.88-.21c.05,0,.13,0,.11-.1,0-.32.06-.27.12-.3.23-.12.46-.25.7-.36a1,1,0,0,1,.41-.12c.06,0,.16.08.26.16s.35.35.52.5.23.09.09-.48a2.5,2.5,0,0,0-.16-.55,3.25,3.25,0,0,0,.31.42c.16.16-.09-.37-.08-.46s0,0,.06,0a1.48,1.48,0,0,0,.37-.1l1.41-.54a4.26,4.26,0,0,0,.47-.15c.44-.23.87-.48,1.31-.73l.24-.11,1.16-.85c.34-.26.69-.49,1-.78.52-.47,1-1,1.54-1.5a1.9,1.9,0,0,0,.49-1.06,2.42,2.42,0,0,0-.08-1.07c-.18-.71-.15-1,.13-.74h0s.08,0,0-.25a2.35,2.35,0,0,0-.22-.45,5.08,5.08,0,0,0-.41-.51c-.54-.55-1.09-1.12-1.62-1.62a17.19,17.19,0,0,0-2.24-1.85,3.62,3.62,0,0,0-2.12-.86h-.95a6.36,6.36,0,0,0-.75.08l-.66.06a.09.09,0,0,1-.14,0,.36.36,0,0,0-.48,0,1.92,1.92,0,0,1-.46.11,4.14,4.14,0,0,0-.86.12c-.1,0-.18.09-.33,0a.2.2,0,0,0-.26,0h0a.27.27,0,0,1-.37,0h0a.19.19,0,0,0-.18,0c-.09,0-.18.07-.27.09l-1.18.2c-.09,0-.2,0-.29,0-.36.06-.63.33-1,.29a2.07,2.07,0,0,0-.94.26L121,141c-.08,0-.15.09-.23.12-.42.15-.85.27-1.27.43s-.93.38-1.4.57c-.2.08-.4.13-.61.2s-.49.18-.74.25-.35,0-.48.06a4.6,4.6,0,0,1-1,.36,2.52,2.52,0,0,1-1.16.34.13.13,0,0,0-.13.07l-.3.2a1.75,1.75,0,0,1-.55.08c-.29,0-.5.27-.75.41,0,0-.07.07-.13.06-.54-.16-.8.4-1.3.34-.25,0-.38.27-.57.41a.17.17,0,0,1-.19,0c-.31-.18-.48,0-.48.53Zm-7.2,2h0v0Z"/><path class="cls-1" d="M107.4,109.15l.16-.13a.49.49,0,0,0,0-.17.56.56,0,0,0-.09-.17c-.06-.07-.12-.12-.21-.21,0-.43.31-.21.39-.56a.23.23,0,0,1-.24-.11.77.77,0,0,0-.73-.37,1.54,1.54,0,0,1-.37-.14l-.52-.14h-.15v-.28s.16-.06.23-.12.12-.15,0-.86c0-.2.25,0,.25-.36l-.13-.07a7.67,7.67,0,0,1-1.51-.24,1.75,1.75,0,0,0-.55-.12A18,18,0,0,0,102,105a18.4,18.4,0,0,0-2.11.24,8.27,8.27,0,0,0-1,.12c-.4.09-.78.24-1.18.35a14.47,14.47,0,0,0-2.81.78,10.15,10.15,0,0,1-1.4.5c-.65.22-1.29.45-2,.63-1.21.33-2.49.48-3.66.92a9.15,9.15,0,0,1-1.71.37c-.12,0-.3-.13-.42-.1s-.21.21-.33.26-.41.09-.61.15c-.44.13-.87.29-1.31.41-.66.19-1.37.21-2,.42,0,0-.1.06-.17,0s-.34-.31-.41-.2-.13.29-.25.31a3,3,0,0,0-.54.11c-.54.17-1.08.37-1.63.54s-1,.2-1.41.37-.88.44-1.32.62-1.06.38-1.58.57L72.5,113l-.1,0c-.44.22-.87.46-1.32.65a5,5,0,0,1-.84.17h-.1c0,.31-.22.23-.35.28a1.84,1.84,0,0,0-.51.19,1.19,1.19,0,0,1-1.06.23c-.06,0-.15,0-.14.1,0,.33-.1.27-.18.31-.29.13-.57.26-.87.38a1.76,1.76,0,0,1-.5.13.58.58,0,0,1-.28-.16c-.1-.08-.37-.35-.55-.5s-.26-.09-.16.5a3,3,0,0,0,.12.56,4.63,4.63,0,0,0-.32-.42c-.17-.16.06.38,0,.47s0,0-.08,0a2.21,2.21,0,0,0-.45.11l-1.73.57a5.5,5.5,0,0,0-.58.16l-1.64.77a1.48,1.48,0,0,0-.29.12l-1.47.89c-.43.27-.87.51-1.29.82-.67.49-1.34,1-2,1.56a2.15,2.15,0,0,0-.7,1.09,2.05,2.05,0,0,0,0,1.1c.13.73.06,1-.24.76h0s-.1,0,0,.26a1.92,1.92,0,0,0,.21.46,4.15,4.15,0,0,0,.43.51c.58.56,1.16,1.12,1.73,1.63a16.31,16.31,0,0,0,2.44,1.85,4.28,4.28,0,0,0,2.41.84h1.12c.3,0,.6-.06.9-.09l.79-.07c.06,0,.1-.08.17,0a.5.5,0,0,0,.57,0,2.66,2.66,0,0,1,.56-.12c.34,0,.7-.07,1-.14.12,0,.23-.09.39,0a.25.25,0,0,0,.31-.05.36.36,0,0,1,.46,0,.26.26,0,0,0,.21,0,2,2,0,0,0,.33-.09l1.42-.23c.1,0,.24.05.34,0a3.37,3.37,0,0,0,.68-.22,11.39,11.39,0,0,0-.16,1.75,21.83,21.83,0,0,1-.28,2.28c-.06.54-.07,1.09-.12,1.63s-.12.93-.18,1.39-.11,1.16-.19,1.74a3.61,3.61,0,0,0-.07.73,7,7,0,0,1-.08,1.12,7.37,7.37,0,0,1-.2,1c0,.34-.08.69-.1,1s0,.44,0,.66a1.89,1.89,0,0,0,0,1,.42.42,0,0,1-.08.38,3.18,3.18,0,0,0-.14.53v.82c-.11.88-.24,1.75-.36,2.62a2.54,2.54,0,0,0,0,.39,3.09,3.09,0,0,1,0,.43c-.13,1-.26,2-.38,3.05-.06.46-.07.93-.12,1.39a4.49,4.49,0,0,0-.12,1.71.63.63,0,0,1-.12.53.4.4,0,0,0-.09.3c0,.1.18.22.16.31s-.14.21-.07.33a.38.38,0,0,1-.09.52c-.22.16-.09.2-.07.3a3.27,3.27,0,0,1-.15,1.58.24.24,0,0,0,0,.23c.17.25,0,.46,0,.69s-.1.17-.1.26v.25l-.68-.15c.07.65.12.69.61,1.17v.15a.29.29,0,0,1-.14.08c-.6.15-.75.43-.57.82a1.58,1.58,0,0,1,.07,1.17c-.07.24.08.33.54.42h0a3.1,3.1,0,0,1-.1.53,1.21,1.21,0,0,0,0,.38c-.23.08-.3.2-.28.39a.87.87,0,0,0,.2.6,3.14,3.14,0,0,1,0,.75,8.81,8.81,0,0,0-.16,1.62V168a9.65,9.65,0,0,1-.07,1.44c0,.13-.07.25.06.38a.22.22,0,0,1,0,.16,5,5,0,0,1-.21.76.42.42,0,0,0,0,.5.27.27,0,0,1,0,.37l-.1.07c-.15.09-.12.21-.11.33a9.64,9.64,0,0,1,0,1.52c0,.31.15.64-.06.93v.08a1.23,1.23,0,0,1,0,1.12v.19c0,.06.1.14.06.19a1.72,1.72,0,0,0,0,.46c0,.15.35.42.17.62a.11.11,0,0,0,.09.11c.38.1.34.25.41.39a2,2,0,0,0,.47.54.5.5,0,0,0,.5,0l.14-.08c.26.16,0,.26-.06.37s.13.19.36.18h0c0,.11.12.22.17.34a2.09,2.09,0,0,1,.21.54c.07.69.72,1.24,1.09,1.85a1,1,0,0,1,.6.92l.17.09c.23,0,.06-.35.48-.26.07.17.14.35.22.52a.43.43,0,0,0,.45.22c.45,0,.58.13.61.36s0,.68.08,1v.55c0,.18.1.09.17.1a.36.36,0,0,0,.2-.06c.1-.11.19-.24.28-.36.37.51,0,1,.34,1.54.09-.23.09-.41.21-.53a2.47,2.47,0,0,0,.66-1.56,6,6,0,0,1,.29-.84l.36-1.23.09-.36c.18.09.25.18.25.27v.71c0,.41.08.45.8.68.16.3-.12.63.22,1l.12-.28c.33-1.23.43-2.5.88-3.72a8.43,8.43,0,0,0,.35-1.31c.32-1.66.67-3.32.92-5,.28-1.9.47-3.82.7-5.72l.21-1.69c.07-.56.35-1.18.45-1.77a17.07,17.07,0,0,1,.39-3.42,1.93,1.93,0,0,0,0-.34,2.44,2.44,0,0,1,0-.54,24.54,24.54,0,0,0,.4-4.53A11.16,11.16,0,0,1,82,154.7c.15-1.48.24-3,.46-4.45.35-2.37.83-4.73,1.08-7.12.19-1.85.57-3.67.86-5.5.07-.4.17-.8.21-1.21.11-1.19.16-2.39.29-3.59s.31-2.29.47-3.43h.05c.1-.81.24-1.61.3-2.42a7.28,7.28,0,0,0-.1-2.59v-.12c.35-.11.7-.22,1.06-.31a13,13,0,0,1,1.35-.41,4.25,4.25,0,0,0,1.23-.5,12.94,12.94,0,0,1,1.76-.44h.19l1-.4L93,122c.14.13.24.19.24-.11l.14-.07c.09.08.18.18.18,0v-.11l.15-.07h0l.31-.11.11.2a.12.12,0,0,0,.14.08l.45-.1h.07c0-.39.1-.34.27-.16s.12,0,.15-.08.08-.21.21-.06.24.16.24-.13c0-.07.06-.08.1,0,.28.48.35.33.39,0,0-.07,0-.1.08-.07.35.24.62.22.77-.16,0-.06.08-.1.13,0,.24.35.29.14.33-.09s0-.29.08-.24.2-.15.35,0,.2-.16.28-.27a.17.17,0,0,1,.1-.06c.39-.17.79-.34,1.19-.49s.33-.13.35-.55l.13,0c.17.45.2.43.32.33l.2-.11a5.1,5.1,0,0,0,.69-.45.46.46,0,0,0,.17-.28l.29-.07c.15.26.25.27.3.1a.39.39,0,0,1,.13-.2h.06a.28.28,0,0,1,.18,0c.06,0,.07,0,0-.2a1,1,0,0,1,.41-.19h.06a1,1,0,0,0,.59-.31h.13v-.54a2.32,2.32,0,0,1,.22.3c.06.1.06,0,0-.25l-.13-.34a1.7,1.7,0,0,0,.31-.06l1-.51a2.64,2.64,0,0,0,.85-.51,9.46,9.46,0,0,0,1.09-1.77,2.29,2.29,0,0,0,.08-.28.4.4,0,0,1,.11-.28c.2-.17.17-.87.25-1.32-.09-.5,0-.61.1-.71v-.17c-.09-.21-.14,0-.24-.41a1.43,1.43,0,0,1,.1-.29.9.9,0,0,0-.08-.46c-.17-.42-.15-.57-.08-.63S107.3,109.23,107.4,109.15ZM96.6,120.83v0Z"/><path class="cls-1" d="M143.58,146.48c-.14-1.89-.13-3.79-.37-5.66-.41-3.17-1.59-6.22-1.55-9.47a4.28,4.28,0,0,0-.23-.92,9.47,9.47,0,0,1-.3-1.48c0-1.27-.87-6.32-1.54-10-.71-3.89-1.47-7.64-2.19-11.29-.17-.84-.3-1.76-.44-2.69v-.76a7.37,7.37,0,0,0,0-.94c0-.37,0-.56-.07-.46s0,0-.06.07h0V103a2.54,2.54,0,0,1,0-.39,4.34,4.34,0,0,0,0-.51c0-.11-.08-.41-.14-.3s-.08-.15-.09-.74v-.21a2.19,2.19,0,0,0-.07-.68c-.07-.21,0-.1,0-.08a1.33,1.33,0,0,1-.18-.31c-.06-.14,0-.18-.06-.18s-.08-.18-.11-.49,0-.12-.07-.3a2.15,2.15,0,0,1-.13-.47v-.14c0-.08-.08,0-.11,0s-.24-.16-.37-.1,0,0,0-.06h-.07c0,.06-.08.13-.11,0s-.09,0-.13.1-.05.07-.08.08h0a3.45,3.45,0,0,1-.09.76c0,.09,0-.27,0-.3v-.28l-.06.83v-.3c0,.6-.06.66-.08.61a.26.26,0,0,1,0-.13v-.43c0,.21,0,.42-.07.63a.32.32,0,0,1-.05.19,5.2,5.2,0,0,1-.43-.37c-.09-.08-.18-.18-.21,0s0,.07-.05.08,0,0,0-.09v.09H134a2,2,0,0,1-.13-.41c-.05-.24,0-.21-.09-.38v.22l.18.76c-.09,0-.19-.07-.26,0s-.11.09-.22-.13-.09-.08-.12-.07a.92.92,0,0,1-.24.06c-.08,0-.33-.12-.45,0s-.36,0-.52.09-.09,0-.19-.43c-.06-.23-.1-.28-.11-.23a1,1,0,0,0,0,.25c0,.17,0,.37-.11.08v.07c0,.07,0,.18-.07.13s-.24-.23-.29,0-.07,0-.1,0c-.06-.22-.1-.3-.11-.22a3.69,3.69,0,0,1,0,.6c-.05.17,0,.12-.09,0s-.16-.27-.18-.09-.06-.08-.09-.18-.09-.24-.07-.08c.06.46,0,.31-.1.36h0c-.08-.24-.06-.08-.07,0s-.11-.37-.15-.45h0v.33c0,.35-.08.53-.32-.06,0-.1-.08-.14-.09-.09a.21.21,0,0,1-.21.11.26.26,0,0,0-.27.12s0,.17-.11,0,0,.21-.08.21-.17-.44-.2-.34h0s-.1.36-.16.51h0c0,.23-.11.23-.26-.07s-.24-.29-.25,0c0,.13,0,.2-.08.08-.16-.31-.22-.16-.31-.18s-.08,0,0,.29,0,.17,0,.09c-.22-.4-.31-.25-.42-.17a.81.81,0,0,0,0,.22l.15.17-.12.18s-.07,0-.15-.25-.16-.33-.21-.3a1.28,1.28,0,0,1-.21.14s-.09,0,0,.4,0,.33,0,.33h-.28c-.07.26-.16.27-.33.08V101a1.55,1.55,0,0,0-.08-.23s-.09-.06-.13,0a1.39,1.39,0,0,0-.33.77l-.21-.82v-.09a2.88,2.88,0,0,0,.07.59c.07.46,0,.51-.13.16a1.89,1.89,0,0,0-.11-.25v.37l.06.27a.38.38,0,0,1-.09-.15,1.7,1.7,0,0,0-.14-.49c0-.06,0,0-.06,0l-.12.12-.29.19a.84.84,0,0,0,0,.45.53.53,0,0,1,0,.25,2.85,2.85,0,0,1-.37.23s-.09,0-.21-.45a.67.67,0,0,0-.1-.23c-.11,0-.25-.16-.23.37.13.27.17.11.28.29a.45.45,0,0,1-.2.23,1.49,1.49,0,0,1-.18-.5c-.08-.36-.1-.32-.12-.3a.14.14,0,0,0-.06.12,1.5,1.5,0,0,0,0,.3l.13.33c-.08,0-.08,0-.22-.42-.06-.2-.09-.23-.11-.18-.08.24-.23.19-.38.18l-.09-.73-.25-.84a2.49,2.49,0,0,1-.12,1.24c0-.17-.11-.34-.17-.51s-.13-.08-.17,0a.36.36,0,0,0-.19.21,1.8,1.8,0,0,1-.12.44,2.08,2.08,0,0,0,0,.5c0,.08-.13-.08-.16,0a1.39,1.39,0,0,0-.25.63c0,.11-.06.09-.08.15s-.11.25-.16.39,0,.17-.06.18-.06.19,0,.46c-1.46,4.51-1.62,4.9-3.22,9.45l-2.48,7-1.26,3.57-.75,2.05c-.39,1.06-.86,2.1-1.19,3.19-1,3.19-1.87,6.41-2.9,9.59s-2.09,6.08-3.15,9.11h-.1c-.73,2.15-1.53,4.27-2.17,6.45a27.05,27.05,0,0,0-1.48,7,19.54,19.54,0,0,0-.14,3.82,2.52,2.52,0,0,1-.18,1.3c-.86,2-.53,4.27-.58,6.44a4.07,4.07,0,0,0,1.51,3.32,3.9,3.9,0,0,1,1.75,3,.49.49,0,0,0,.16.37c.17.12.5.3.59.25,1.09-.56,2.36-.87,3-2,1.83-3.4,3.7-6.78,5.38-10.26,1.16-2.39,2.24-4.81,3.17-7.28,1.46-3.89,3-7.77,4.11-11.78s2.5-7.67,3.77-11.49l2.26-6.82.44-1.31h0l.05.08a.33.33,0,0,1,0-.14,2.62,2.62,0,0,1,0-.56.61.61,0,0,1,0-.19V129h0c0,.07,0,.07.14.07h.21l.06.22,1,3.56c.73,2.61,1.48,5.23,2.27,7.82,1,3.45,2.24,6.86,3.21,10.32a71.81,71.81,0,0,0,5.14,12.12,6.54,6.54,0,0,0,1.27,1.51.84.84,0,0,0,.64.1.88.88,0,0,0,.46-.41,1,1,0,0,0,0-.56c-.41-2,.21-3.91.9-5.85a9.38,9.38,0,0,0,.49-1.89A46.7,46.7,0,0,0,143.58,146.48Zm-15.09-44.89c.24-.06.41-.38.71-.18h0l-.86.25.1-.07Zm-1.76-.84v.06h0v-.06Zm-2.08.79c0,.45,0,.47-.16.39,0-.29,0-.28.11-.39Zm-.16.4v0Z"/><polygon class="cls-1" points="133.34 98.8 133.34 98.79 133.34 98.79 133.34 98.8"/><path class="cls-1" d="M128.11,99.93c.15.32.17.14.23.16s-.09-.32-.11-.35S128.11,99.64,128.11,99.93Z"/><path class="cls-1" d="M132,98.58v-.32c0-.07-.07-.16-.08-.14a.69.69,0,0,0,0,.35C131.9,98.54,131.94,98.61,132,98.58Z"/><path class="cls-1" d="M130.83,98.73v-.35a.34.34,0,0,0-.07-.16.61.61,0,0,0,0,.19Z"/><path class="cls-1" d="M122.46,101.5a.29.29,0,0,0,0-.13v-.17h-.07a.54.54,0,0,0,0,.18A.37.37,0,0,0,122.46,101.5Z"/><path class="cls-1" d="M126,100.81l-.09-.2v.06a1.22,1.22,0,0,0,0,.27.69.69,0,0,0,0,.13H126v-.26Z"/><path class="cls-1" d="M130.59,98.6h0s-.06-.23-.07-.24-.05-.06-.07,0a.38.38,0,0,0,0,.15A.93.93,0,0,0,130.59,98.6Z"/><path class="cls-1" d="M126.3,100.91v-.3a.83.83,0,0,0-.07-.13.38.38,0,0,0,0,.15Z"/><path class="cls-1" d="M123.74,102v-.34a.61.61,0,0,0,0,.19Z"/><path class="cls-1" d="M124.05,101.88v-.17l-.07-.17v.23S124,101.89,124.05,101.88Z"/><path class="cls-1" d="M133.17,98.62l0-.19h0v.35S133.15,98.67,133.17,98.62Z"/><path class="cls-1" d="M121.08,101.88v-.17a.24.24,0,0,0,0,.12S121.07,101.89,121.08,101.88Z"/><path class="cls-1" d="M123.12,101v-.3a.38.38,0,0,0,0,.15A.3.3,0,0,0,123.12,101Z"/><path class="cls-1" d="M127.7,98.81v-.07S127.69,98.82,127.7,98.81Z"/><path class="cls-1" d="M128,98.72v0Z"/><path class="cls-1" d="M127.36,98.89v-.08h0v.08Z"/><polygon class="cls-1" points="128.88 98.39 128.86 98.35 128.88 98.41 128.88 98.39"/><path class="cls-1" d="M125.06,100.58v0Z"/><path class="cls-1" d="M121.93,100.75h0v0Z"/><path class="cls-1" d="M123,101.1h0v0Z"/><path class="cls-1" d="M133.16,98.85v-.07h0Z"/><path class="cls-1" d="M124.94,100.5h0v0Z"/><path class="cls-1" d="M200.66,79.6a.22.22,0,0,0-.25-.18l-.07,0c-.16,0-.28.15-.47.11a1.83,1.83,0,0,0-1.06.19l-.26.08v-.58a2.4,2.4,0,0,1-.52.16l-1.65.44-2.29-.23c-.11.13-.39-.17-.42.17h0c-.08.07-.1.26,0,.71-.12-.29-.23-.52-.28-.5l-.31.13h0c.13.47-.07.2-.15.17s-.12-.16-.11-.11c.08.44-.13.19-.18.33a.86.86,0,0,1-.1.16V81l-.35.1c-.17-.14-.24,0-.33,0l-.07.08-.82.23h0l-5.21,1.48h0a.79.79,0,0,0-.06-.22.88.88,0,0,0-.12-.21.65.65,0,0,0-.16.21.48.48,0,0,0,.05.17l.06.12h-.11v0h-.15v-.07h-.12a.11.11,0,0,0,0,.08L185,83c-1.15.32-2.27.59-3.43.94L171.24,87.1c-.59.18-1.19.33-1.78.52l-.59.19-.34.12-.63.23-1.27.46-2.53.92c-1.49.54-3,1.06-4.46,1.65q-3.57,1.41-7.11,2.9a11.31,11.31,0,0,0-2.88,1.66,2.07,2.07,0,0,0-.87,1.32c-.14.8-.55,1.19-1.26,1h-.09c-.16,0-.33.09-.29.32a.75.75,0,0,0,.3.44,4.35,4.35,0,0,0,.92.38c1.34.36,2.68.73,4,1a40.46,40.46,0,0,0,6,.93A23.09,23.09,0,0,0,165,101a4.58,4.58,0,0,0,.63-.1c.9-.15,1.81-.28,2.71-.45s1.85-.39,2.77-.58l.6-.12a4,4,0,0,1,.48-.09h.39s.11-.08.16,0a.54.54,0,0,0,.47.07,1.49,1.49,0,0,1,.47-.07h.71c.23,0,.2-.07.17.08s.06.08.17,0,.3-.16.2,0,0,.08,0,.08h.19a.79.79,0,0,1,.42.12.88.88,0,0,1-.1.13l-.11.11c-.25.29-.05.27-.48.67a1.28,1.28,0,0,0-.41.54l-.27.41v.1c-.13.2-.27.39-.38.57l-2.16,4-1.22,2.14-1.48,2.62c-.31.52-.72,1-1,1.54-.59,1.2-1.3,2.33-2,3.49a36.25,36.25,0,0,1-2.33,4,3.23,3.23,0,0,0-.25.49c-.2.41-.38.83-.59,1.23-.33.62-.74,1.18-1.12,1.76a28.55,28.55,0,0,0-1.48,2.92,2.77,2.77,0,0,1-.26.48c-1.14,1.34-1.59,3.07-2.64,4.47a13.33,13.33,0,0,0-1.12,2.39,2,2,0,0,1-.4.6,2.71,2.71,0,0,0-.92,2.33c-.42,0-.66.15-.7.5a3.64,3.64,0,0,0,0,.66c0,.21,0,.4-.26.43a.76.76,0,0,0-.55.56c-.21.64-.44,1.27-.67,1.9a.68.68,0,0,1-.59.54.44.44,0,0,0-.46.51,2.17,2.17,0,0,1-.36,1.46l-.4.63c-.06.11-.13.21-.18.32s-.2.4-.28.59a1,1,0,0,1-.44.42c-.23.1-.37.24-.36.47,0,.52-.11.62-.64.79s-.58.8-.61,1.25c0,.17,0,.46-.11.52-.55.42-.48.8-.55,1.22a3,3,0,0,1-.86,1.45c-.22.22-.49.41-.71.64-.44.46-.46.79-.13.94a5.3,5.3,0,0,1-.93,1.89c-.36.43-.92.87-1.23,1.31a6.87,6.87,0,0,0-.6,1.29,1.94,1.94,0,0,1-.26.31c-.61.64-1.17,1.28-1,1.7s-1.16,1.32-1.05,1.75a.75.75,0,0,0,.09.25h0l-.19.34h0a2.35,2.35,0,0,0-.62,1.16l.33,2c-.08,0-.18-.07-.23,0a3.8,3.8,0,0,0-.41.49,3.17,3.17,0,0,0-.65,1.77c0,.21,0,.44-.18.45l-.17-.47c0-.14-.2-.41-.2-.33a2.2,2.2,0,0,0,.13,1.19,2,2,0,0,0-.3.36h0c-.14-.13-.2-.1-.12.24l-.08.13c-.23.49-.5.91-.75,1.37a1.06,1.06,0,0,0-.13.39,1.08,1.08,0,0,0,.1.35.52.52,0,0,0,.14.19,4.08,4.08,0,0,1,1.25.89,1.61,1.61,0,0,0,.3.21A7,7,0,0,0,141.9,173v.27a4.06,4.06,0,0,0,1.37-.3,6.19,6.19,0,0,0,2.09-.34,11.16,11.16,0,0,1,1.63-.43,3.83,3.83,0,0,0,.84-.35l.6-.34,6.15-1.61a8.35,8.35,0,0,0,4-1.78c-.1.88-.08.87,1,.53.46-.14.91-.25,1.37-.38,1.59-.46,3.17-.88,4.71-1.38a7.51,7.51,0,0,0,1.36-.53c.35-.19.41-.37.64-.73.08.05.19.08.24.17.34.53.7.57,1.08.28a2,2,0,0,1,1.28-.44c.29,0,.34-.18.31-.65a1,1,0,0,1,0-.34.57.57,0,0,1,1,0c.2.35.38.41.64.31a1,1,0,0,0,.71-.58c.14-.41.45-.52.77-.66a1.67,1.67,0,0,1,1.86.17c.12.09.22-.08.15-.28l-.12-.34c.35-.07.67-.11,1-.21l3.41-1a25.44,25.44,0,0,0,2.94-1,45.94,45.94,0,0,0,4.62-2.52,4.94,4.94,0,0,0,.44-.36,2.19,2.19,0,0,1,.53-.37c.75-.29,1.17-1.09,1.74-1.64.11-.55.48-.71.84-.87a.32.32,0,0,1,.06-.19c.06-.06-.41.05-.43-.38.17-.12.35-.24.52-.38a.42.42,0,0,0,.11-.5c-.18-.42,0-.6.23-.7l1.11-.41c.2-.07.4-.13.6-.22a.47.47,0,0,0,.06-.19.31.31,0,0,0-.13-.17l-.48-.15c.46-.52,1.1-.37,1.61-.82a2.78,2.78,0,0,1-.65,0,3.19,3.19,0,0,0-1.93-.12,8.34,8.34,0,0,1-1,0l-1.47.06h-.43a.33.33,0,0,1,.22-.33l.79-.23c.45-.15.48-.23.52-1,.28-.25.74-.09,1-.53h-.35c-1.47.09-2.9.4-4.39.37a10.13,10.13,0,0,0-1.56.09c-1.94.23-3.89.43-5.81.73-2.2.34-4.38.79-6.56,1.18-1,.19-2.1.35-3.14.57-1.28.28-2.54.61-3.82.91l-1.14.26-.5.11h-.54a1.77,1.77,0,0,0-.82.2,3.77,3.77,0,0,1-.87.25,10.78,10.78,0,0,1-1.07.25l.06-.09c.25-.38.57-.79.84-1.12a4.68,4.68,0,0,0,.59-.86,1.91,1.91,0,0,1,.57-.63h.1l.18-.17a2.74,2.74,0,0,0,.38-.45c.21-.36.29-.8.48-1.17.31-.59.69-1.15,1-1.73l2.14-3.82c1.09-1.9,2.32-3.71,3.4-5.62a1.7,1.7,0,0,1,.29-.46c.26-.26.7-.43.78-.74a3.18,3.18,0,0,1,.33-1c.31-.49.62-1,.9-1.48l2.66-4.79c.76-1.35,1.6-2.66,2.34-4s1.38-2.78,2.1-4.15c.84-1.59,1.72-3.15,2.58-4.73l2.66-4.89.16-.33,1.06-2.14,2.08-3.92c.82-1.52,1.76-3,2.65-4.58a2.19,2.19,0,0,0,.33-.6,7.15,7.15,0,0,1,1.06-2.23c.52-1,1.13-2,1.57-2.88a44,44,0,0,1,3.36-5.84c.21-.32.5-.76.39-.83-.27-.17.14-.73.4-1.21v-.79h.08a5,5,0,0,0-.06-.54v-.38a4.71,4.71,0,0,0,.27.71c0-.41,0-.71.17-.59s0-.09,0-.37a1.14,1.14,0,0,0,.38-.64,1.09,1.09,0,0,1,.28-.53,2.23,2.23,0,0,0,.29-.44,1.33,1.33,0,0,0,.11-.76,1,1,0,0,1,.09-.68c.16-.2.16-.7,0-1.55-.1-.39-.07-.54,0-.57l.37-.13v.07c.14-.08.28-.16.41-.25s0-.08,0-.14A.82.82,0,0,0,200.66,79.6Zm-61,87.27.08.31-.12.11a1,1,0,0,1,.06-.42Zm53.92-86.24.09-.17v.13Z"/><path class="cls-1" d="M191,81.2h0v0Z"/></g></g></g></svg>